Aykiz-SemiBoldItalic.ufo
<glyph name="exclam" format="2">
  <advance width="273"/>
  <unicode hex="0021"/>
  <outline>
    <contour>
      <point x="89.98048124406051" y="259.2707894306935" type="line"/>
      <point x="87.36215501408476" y="242.30547015975478"/>
      <point x="100.486677924" y="227.0"/>
      <point x="117.65285659636226" y="227.0" type="curve"/>
      <point x="150.08212212881273" y="227.0" type="line"/>
      <point x="162.95640163227316" y="227.0"/>
      <point x="174.17155237003416" y="235.77901086347148"/>
      <point x="177.26292938960532" y="248.27662907079758" type="curve"/>
      <point x="280.4109209329457" y="665.2766290707976" type="line"/>
      <point x="284.77804860367354" y="682.9317691413469"/>
      <point x="271.4173557666311" y="700.0"/>
      <point x="253.2301136721531" y="700.0" type="curve"/>
      <point x="182.01015046528403" y="700.0" type="line"/>
      <point x="168.19521745699882" y="700.0"/>
      <point x="156.4449418943224" y="689.9240755618425"/>
      <point x="154.33777511298229" y="676.2707894306935" type="curve"/>
    </contour>
    <contour>
      <point x="93" y="-6" type="curve" smooth="yes"/>
      <point x="135" y="-6"/>
      <point x="168" y="27"/>
      <point x="168" y="70" type="curve" smooth="yes"/>
      <point x="168" y="107"/>
      <point x="139" y="136"/>
      <point x="99" y="136" type="curve" smooth="yes"/>
      <point x="57" y="136"/>
      <point x="24" y="104"/>
      <point x="24" y="60" type="curve" smooth="yes"/>
      <point x="24" y="24"/>
      <point x="53" y="-6"/>
    </contour>
  </outline>
</glyph>
<glyph name="numbersign" format="2">
  <advance width="707"/>
  <unicode hex="0023"/>
  <outline>
    <contour>
      <point x="357.52052248452304" y="36.001632764134456" type="line"/>
      <point x="351.823154951245" y="18.197359222640607"/>
      <point x="365.1063606232069" y="0.0"/>
      <point x="383.8" y="0.0" type="curve"/>
      <point x="409.561333363569" y="0.0" type="line"/>
      <point x="421.73766870649933" y="0.0"/>
      <point x="432.518158027549" y="7.86924383609066"/>
      <point x="436.2292094851501" y="19.46627964109405" type="curve"/>
      <point x="642.479477515477" y="663.9983672358655" type="line"/>
      <point x="648.176845048755" y="681.8026407773594"/>
      <point x="634.8936393767931" y="700.0"/>
      <point x="616.2" y="700.0" type="curve"/>
      <point x="590.438666636431" y="700.0" type="line"/>
      <point x="578.2623312935007" y="700.0"/>
      <point x="567.481841972451" y="692.1307561639094"/>
      <point x="563.7707905148499" y="680.533720358906" type="curve"/>
    </contour>
    <contour>
      <point x="14.509715134390275" y="208.36229006375015" type="line"/>
      <point x="11.136126810411673" y="191.07264990335983"/>
      <point x="24.37575544171796" y="175.0"/>
      <point x="41.99145171110984" y="175.0" type="curve"/>
      <point x="608.9353775571828" y="175.0" type="line"/>
      <point x="622.3318856006534" y="175.0"/>
      <point x="633.8515440635291" y="184.48916332558682"/>
      <point x="636.4171141339024" y="197.63770993624985" type="curve"/>
      <point x="641.4902848656097" y="223.63770993624985" type="line"/>
      <point x="644.8638731895883" y="240.92735009664017"/>
      <point x="631.624244558282" y="257.0"/>
      <point x="614.0085482888902" y="257.0" type="curve"/>
      <point x="47.064622442817154" y="257.0" type="line"/>
      <point x="33.66811439934652" y="257.0"/>
      <point x="22.148455936470867" y="247.51083667441318"/>
      <point x="19.58288586609759" y="234.36229006375015" type="curve"/>
    </contour>
    <contour>
      <point x="98.38337340732633" y="35.573041897894754" type="line"/>
      <point x="92.75383167801589" y="17.980723993799646"/>
      <point x="105.87890394912114" y="0.0"/>
      <point x="124.35" y="0.0" type="curve"/>
      <point x="149.56133336356902" y="0.0" type="line"/>
      <point x="161.73766870649933" y="0.0"/>
      <point x="172.51815802754902" y="7.86924383609066"/>
      <point x="176.2292094851501" y="19.46627964109405" type="curve"/>
      <point x="382.6166265926737" y="664.4269581021052" type="line"/>
      <point x="388.2461683219841" y="682.0192760062004"/>
      <point x="375.12109605087886" y="700.0"/>
      <point x="356.65" y="700.0" type="curve"/>
      <point x="331.438666636431" y="700.0" type="line"/>
      <point x="319.26233129350067" y="700.0"/>
      <point x="308.481841972451" y="692.1307561639094"/>
      <point x="304.7707905148499" y="680.533720358906" type="curve"/>
    </contour>
    <contour>
      <point x="100.50971513439028" y="476.36229006375015" type="line"/>
      <point x="97.13612681041167" y="459.07264990335983"/>
      <point x="110.37575544171796" y="443.0"/>
      <point x="127.99145171110985" y="443.0" type="curve"/>
      <point x="694.9353775571828" y="443.0" type="line"/>
      <point x="708.3318856006534" y="443.0"/>
      <point x="719.8515440635291" y="452.4891633255868"/>
      <point x="722.4171141339024" y="465.63770993624985" type="curve"/>
      <point x="727.4902848656097" y="491.63770993624985" type="line"/>
      <point x="730.8638731895883" y="508.92735009664017"/>
      <point x="717.624244558282" y="525.0"/>
      <point x="700.0085482888902" y="525.0" type="curve"/>
      <point x="133.06462244281715" y="525.0" type="line"/>
      <point x="119.66811439934652" y="525.0"/>
      <point x="108.14845593647087" y="515.5108366744132"/>
      <point x="105.5828858660976" y="502.36229006375015" type="curve"/>
    </contour>
  </outline>
</glyph>
<glyph name="dollar" format="2">
  <advance width="625"/>
  <unicode hex="0024"/>
  <outline>
    <contour>
      <point x="212.35416277847716" y="-88.2291861076142" type="line"/>
      <point x="209.0669362927108" y="-104.66531853644598"/>
      <point x="221.63836800347832" y="-120.0"/>
      <point x="238.4" y="-120.0" type="curve"/>
      <point x="255.0454907238804" y="-120.0" type="line"/>
      <point x="268.3925592849138" y="-120.0"/>
      <point x="279.88417414161194" y="-110.57912929194032"/>
      <point x="282.50174964322616" y="-97.49125178386915" type="curve"/>
      <point x="459.6458372215228" y="788.2291861076142" type="line"/>
      <point x="462.9330637072892" y="804.665318536446"/>
      <point x="450.3616319965217" y="820.0"/>
      <point x="433.6" y="820.0" type="curve"/>
      <point x="416.9545092761196" y="820.0" type="line"/>
      <point x="403.6074407150862" y="820.0"/>
      <point x="392.11582585838806" y="810.5791292919403"/>
      <point x="389.49825035677384" y="797.4912517838692" type="curve"/>
    </contour>
    <contour>
      <point x="269" y="-9" type="curve" smooth="yes"/>
      <point x="448" y="-9"/>
      <point x="571" y="76"/>
      <point x="571" y="213" type="curve" smooth="yes"/>
      <point x="571" y="428"/>
      <point x="213" y="360"/>
      <point x="215" y="500" type="curve" smooth="yes"/>
      <point x="216" y="567"/>
      <point x="284" y="612"/>
      <point x="394" y="612" type="curve" smooth="yes"/>
      <point x="464" y="612"/>
      <point x="532" y="593"/>
      <point x="584" y="557" type="curve"/>
      <point x="629" y="650" type="line"/>
      <point x="571" y="688"/>
      <point x="488" y="709"/>
      <point x="400" y="709" type="curve" smooth="yes"/>
      <point x="224" y="709"/>
      <point x="102" y="623"/>
      <point x="102" y="489" type="curve" smooth="yes"/>
      <point x="102" y="262"/>
      <point x="458" y="334"/>
      <point x="458" y="196" type="curve" smooth="yes"/>
      <point x="458" y="128"/>
      <point x="387" y="88"/>
      <point x="279" y="88" type="curve" smooth="yes"/>
      <point x="193" y="88"/>
      <point x="107" y="118"/>
      <point x="52" y="166" type="curve"/>
      <point x="2" y="74" type="line"/>
      <point x="56" y="27"/>
      <point x="161" y="-9"/>
    </contour>
  </outline>
</glyph>
<glyph name="ampersand" format="2">
  <advance width="696"/>
  <unicode hex="0026"/>
  <outline>
    <contour>
      <point x="258" y="-9" type="curve" smooth="yes"/>
      <point x="423.49869996507596" y="-9.0"/>
      <point x="567.033563097544" y="90.75242561476145"/>
      <point x="649.2080600400157" y="284.1289278331351" type="curve"/>
      <point x="655.4002267385073" y="298.7005964390981"/>
      <point x="647.5785862180013" y="315.2378941138584"/>
      <point x="632.5939367334776" y="320.35030393799" type="curve"/>
      <point x="600.4720743725206" y="331.30952756702237" type="line"/>
      <point x="586.244170293043" y="336.1637536647265"/>
      <point x="570.789568214746" y="328.88176377901834"/>
      <point x="564.7738739481574" y="315.1046745366064" type="curve"/>
      <point x="497.3338931319455" y="160.65423323477597"/>
      <point x="385.7302494677924" y="83.0"/>
      <point x="266" y="83" type="curve" smooth="yes"/>
      <point x="180" y="83"/>
      <point x="134" y="122"/>
      <point x="134" y="178" type="curve" smooth="yes"/>
      <point x="134" y="245"/>
      <point x="188" y="287"/>
      <point x="320" y="345" type="curve" smooth="yes"/>
      <point x="480" y="413"/>
      <point x="563" y="472"/>
      <point x="563" y="574" type="curve" smooth="yes"/>
      <point x="563" y="658"/>
      <point x="493" y="707"/>
      <point x="394" y="707" type="curve" smooth="yes"/>
      <point x="273" y="707"/>
      <point x="181" y="637"/>
      <point x="181" y="521" type="curve" smooth="yes"/>
      <point x="181" y="470"/>
      <point x="203" y="425"/>
      <point x="243" y="376" type="curve" smooth="yes"/>
      <point x="543.6542489515369" y="12.396267674234949" type="line"/>
      <point x="554.0762871787141" y="-0.2078848067574519"/>
      <point x="573.0367838816123" y="-1.2344805476204126"/>
      <point x="584.7587820439206" y="10.170706853544441" type="curve"/>
      <point x="618.4450509928831" y="42.94653610118361" type="line"/>
      <point x="628.9194890211429" y="53.13788120976068"/>
      <point x="629.7942529112115" y="69.67091566350875"/>
      <point x="620.4537357673931" y="80.91067129323692" type="curve"/>
      <point x="337" y="422" type="line" smooth="yes"/>
      <point x="298" y="469"/>
      <point x="282" y="501"/>
      <point x="282" y="532" type="curve" smooth="yes"/>
      <point x="282" y="590"/>
      <point x="325" y="627"/>
      <point x="390" y="627" type="curve" smooth="yes"/>
      <point x="440" y="627"/>
      <point x="469" y="600"/>
      <point x="469" y="565" type="curve" smooth="yes"/>
      <point x="469" y="511"/>
      <point x="431" y="478"/>
      <point x="284" y="416" type="curve" smooth="yes"/>
      <point x="113" y="343"/>
      <point x="24" y="270"/>
      <point x="24" y="159" type="curve" smooth="yes"/>
      <point x="24" y="56"/>
      <point x="116" y="-9"/>
    </contour>
  </outline>
</glyph>
<glyph name="quotesingle" format="2">
  <advance width="215"/>
  <unicode hex="0027"/>
  <outline>
    <contour>
      <point x="106.47901192508357" y="458.6358536407152" type="line"/>
      <point x="103.61211329776577" y="441.55910964321356"/>
      <point x="116.77685104100011" y="426.0"/>
      <point x="134.0925749154307" y="426.0" type="curve"/>
      <point x="158.5480841808863" y="426.0" type="line"/>
      <point x="171.66759444628335" y="426.0"/>
      <point x="183.02800301771472" y="435.10939060416126"/>
      <point x="185.87897281923267" y="447.9153861060616" type="curve"/>
      <point x="234.41181953456115" y="665.9153861060615" type="line"/>
      <point x="238.305402895592" y="683.404596612987"/>
      <point x="224.9983100445403" y="700.0"/>
      <point x="207.08093089621477" y="700.0" type="curve"/>
      <point x="170.6911150614161" y="700.0" type="line"/>
      <point x="157.01614746546036" y="700.0"/>
      <point x="145.34166451093947" y="690.1220886086395"/>
      <point x="143.07755207106896" y="676.6358536407153" type="curve"/>
    </contour>
  </outline>
</glyph>
<glyph name="parenleft" format="2">
  <advance width="342"/>
  <unicode hex="0028"/>
  <outline>
    <contour>
      <point x="115.27048700070951" y="-176.43607778166535" type="curve"/>
      <point x="119.12157961483827" y="-187.13954521821887"/>
      <point x="129.43378147756474" y="-194.0"/>
      <point x="140.80897947531224" y="-194.0" type="curve"/>
      <point x="184.54697230340224" y="-194.0" type="line"/>
      <point x="203.54437243268754" y="-194.0"/>
      <point x="217.02298928595997" y="-175.4780292076399"/>
      <point x="211.87534238386257" y="-157.19134161684053" type="curve"/>
      <point x="189.523952253319" y="-77.78945249915674"/>
      <point x="179.0" y="-1.8981480000525153"/>
      <point x="179" y="77" type="curve" smooth="yes"/>
      <point x="179.0" y="295.4372727064897"/>
      <point x="252.44068047321312" y="519.9226014519498"/>
      <point x="380.04732969204696" y="701.4660939287498" type="curve"/>
      <point x="391.8491595290292" y="718.2563271911904"/>
      <point x="380.1230387737355" y="742.0"/>
      <point x="359.6" y="742.0" type="curve"/>
      <point x="311.0643825124757" y="742.0" type="line"/>
      <point x="302.7833192979925" y="742.0"/>
      <point x="294.9036626901995" y="738.3529624244951"/>
      <point x="289.6942417443579" y="731.9157315469132" type="curve"/>
      <point x="154.64528575377722" y="565.0370479992316"/>
      <point x="73.0" y="320.1763929053204"/>
      <point x="73" y="83" type="curve" smooth="yes"/>
      <point x="73.0" y="-8.142475466531778"/>
      <point x="89.95123116858963" y="-106.0654434004994"/>
    </contour>
  </outline>
</glyph>
<glyph name="parenright" format="2">
  <advance width="342"/>
  <unicode hex="0029"/>
  <outline>
    <contour>
      <point x="1.952670307953042" y="-153.46609392874987" type="curve"/>
      <point x="-9.849159529029157" y="-170.25632719119045"/>
      <point x="1.8769612262645303" y="-194.0"/>
      <point x="22.4" y="-194.0" type="curve"/>
      <point x="70.93561748752433" y="-194.0" type="line"/>
      <point x="79.21668070200754" y="-194.0"/>
      <point x="87.09633730980053" y="-190.35296242449508"/>
      <point x="92.30575825564213" y="-183.91573154691318" type="curve"/>
      <point x="227.35471424622278" y="-17.03704799923165"/>
      <point x="309.0" y="227.82360709467957"/>
      <point x="309" y="465" type="curve" smooth="yes"/>
      <point x="309.0" y="556.1424754665318"/>
      <point x="292.04876883141037" y="654.0654434004994"/>
      <point x="266.72951299929053" y="724.4360777816653" type="curve"/>
      <point x="262.8784203851618" y="735.1395452182188"/>
      <point x="252.56621852243526" y="742.0"/>
      <point x="241.19102052468776" y="742.0" type="curve"/>
      <point x="197.45302769659776" y="742.0" type="line"/>
      <point x="178.45562756731246" y="742.0"/>
      <point x="164.97701071404003" y="723.4780292076399"/>
      <point x="170.12465761613743" y="705.1913416168405" type="curve"/>
      <point x="192.476047746681" y="625.7894524991567"/>
      <point x="203.0" y="549.8981480000525"/>
      <point x="203" y="471" type="curve" smooth="yes"/>
      <point x="203.0" y="252.5627272935103"/>
      <point x="129.55931952678688" y="28.077398548050127"/>
    </contour>
  </outline>
</glyph>
<glyph name="asterisk" format="2">
  <advance width="408"/>
  <unicode hex="002A"/>
  <outline>
    <contour>
      <point x="439.29301298261385" y="604.2239803050892" type="line"/>
      <point x="452.59584702436126" y="610.831924012101"/>
      <point x="458.4238273087378" y="626.6777362796117"/>
      <point x="452.5726959383343" y="640.3303761438867" type="curve"/>
      <point x="448.02332212326553" y="650.9455817123804" type="line"/>
      <point x="441.5573016593091" y="666.0329627949455"/>
      <point x="423.5591970375362" y="672.3476261936826"/>
      <point x="409.084098963889" y="664.6074695848573" type="curve"/>
      <point x="292" y="602" type="line"/>
      <point x="302" y="596" type="line"/>
      <point x="326.550961852092" y="711.6271106582395" type="line"/>
      <point x="329.8724664678054" y="727.2703259451479"/>
      <point x="317.94195352121716" y="742.0"/>
      <point x="301.95" y="742.0" type="curve"/>
      <point x="287.45421904294057" y="742.0" type="line"/>
      <point x="273.8839815078913" y="742.0"/>
      <point x="262.26710236602025" y="732.2691132861139"/>
      <point x="259.8879161546484" y="718.9090676376411" type="curve"/>
      <point x="238" y="596" type="line"/>
      <point x="248" y="602" type="line"/>
      <point x="156.6184460401352" y="663.9805322510388" type="line"/>
      <point x="143.64776982651716" y="672.7780343785362"/>
      <point x="125.98221048703545" y="669.2165673337374"/>
      <point x="117.43342731543665" y="656.0806322164027" type="curve"/>
      <point x="107.59071488363037" y="640.9564643333832" type="line"/>
      <point x="99.03265223405039" y="627.8062705059798"/>
      <point x="102.94885994758548" y="610.1914652426779"/>
      <point x="116.27257143714783" y="601.9061320474879" type="curve"/>
      <point x="211" y="543" type="line"/>
      <point x="214" y="562" type="line"/>
      <point x="85.47206532805922" y="498.1560585943301" type="line"/>
      <point x="71.86098775894203" y="491.39500045542223"/>
      <point x="66.1283835779827" y="475.0106066186085"/>
      <point x="72.555315292977" y="461.2386100864779" type="curve"/>
      <point x="76.56437728783266" y="452.64776295464435" type="line"/>
      <point x="83.33159179675198" y="438.1465890069601"/>
      <point x="100.85440077478182" y="432.2564892978015"/>
      <point x="115.00674655532752" y="439.7257829042006" type="curve"/>
      <point x="233" y="502" type="line"/>
      <point x="220" y="509" type="line"/>
      <point x="195.54250246889222" y="393.81307614381495" type="line"/>
      <point x="192.17286010512498" y="377.9431475918789"/>
      <point x="204.27627903644637" y="363.0"/>
      <point x="220.5" y="363.0" type="curve"/>
      <point x="235.70331204020914" y="363.0" type="line"/>
      <point x="249.20352698940326" y="363.0"/>
      <point x="260.78146977722423" y="372.63313286943486"/>
      <point x="263.23645790325753" y="385.90825384724445" type="curve"/>
      <point x="286" y="509" type="line"/>
      <point x="275" y="504" type="line"/>
      <point x="367.5848119526714" y="441.7446954111348" type="line"/>
      <point x="380.4873971564679" y="433.0688191534095"/>
      <point x="397.98766801610145" y="436.5667174877632"/>
      <point x="406.56394387237657" y="449.5357200021304" type="curve"/>
      <point x="416.11774898451034" y="463.9829374887717" type="line"/>
      <point x="424.8165668283842" y="477.13724739902"/>
      <point x="420.940799503846" y="494.87714988836467"/>
      <point x="407.54859993622836" y="503.2050723085639" type="curve"/>
      <point x="313" y="562" type="line"/>
      <point x="310" y="540" type="line"/>
    </contour>
  </outline>
</glyph>
<glyph name="plus" format="2">
  <advance width="587"/>
  <unicode hex="002B"/>
  <outline>
    <contour>
      <point x="224.62847297562246" y="161.4436591042769" type="line"/>
      <point x="221.19711981150456" y="144.1309226853185"/>
      <point x="234.44470254424925" y="128.0"/>
      <point x="252.09420754720134" y="128.0" type="curve"/>
      <point x="291.0048915518978" y="128.0" type="line"/>
      <point x="304.3702060131061" y="128.0"/>
      <point x="315.87218984675235" y="137.44604877225052"/>
      <point x="318.4706261234767" y="150.5563408957231" type="curve"/>
      <point x="395.37152702437754" y="538.5563408957231" type="line"/>
      <point x="398.8028801884954" y="555.8690773146815"/>
      <point x="385.55529745575075" y="572.0"/>
      <point x="367.90579245279866" y="572.0" type="curve"/>
      <point x="328.9951084481022" y="572.0" type="line"/>
      <point x="315.6297939868939" y="572.0"/>
      <point x="304.12781015324765" y="562.5539512277495"/>
      <point x="301.5293738765233" y="549.4436591042769" type="curve"/>
    </contour>
    <contour>
      <point x="80.69825035677383" y="338.49125178386913" type="line"/>
      <point x="77.23301555736602" y="321.16507778683007"/>
      <point x="90.48520941475837" y="305.0"/>
      <point x="108.15450927611958" y="305.0" type="curve"/>
      <point x="505.7937604336772" y="305.0" type="line"/>
      <point x="519.253633794767" y="305.0"/>
      <point x="530.8089915969645" y="314.5770143368704"/>
      <point x="533.3072352801684" y="327.8030103067739" type="curve"/>
      <point x="539.7294575023906" y="361.8030103067739" type="line"/>
      <point x="542.9863267700682" y="379.0452593709493"/>
      <point x="529.763129153772" y="395.0"/>
      <point x="512.2159826558994" y="395.0" type="curve"/>
      <point x="114.9545092761196" y="395.0" type="line"/>
      <point x="101.6074407150862" y="395.0"/>
      <point x="90.11582585838806" y="385.5791292919403"/>
      <point x="87.49825035677384" y="372.49125178386913" type="curve"/>
    </contour>
  </outline>
</glyph>
<glyph name="hyphen" format="2">
  <advance width="384"/>
  <unicode hex="002D"/>
  <outline>
    <contour>
      <point x="56.292899031666906" y="262.2125226671309" type="line"/>
      <point x="53.02509773405659" y="244.96579359640975"/>
      <point x="66.24985481362074" y="229.0"/>
      <point x="83.80343533041336" y="229.0" type="curve"/>
      <point x="298.0454907238804" y="229.0" type="line"/>
      <point x="311.3925592849138" y="229.0"/>
      <point x="322.88417414161194" y="238.42087070805968"/>
      <point x="325.50174964322616" y="251.50874821613084" type="curve"/>
      <point x="333.3017496432262" y="290.50874821613087" type="line"/>
      <point x="336.766984442634" y="307.83492221316993"/>
      <point x="323.5147905852416" y="324.0"/>
      <point x="305.8454907238804" y="324.0" type="curve"/>
      <point x="91.1929090146239" y="324.0" type="line"/>
      <point x="77.73898979505826" y="324.0"/>
      <point x="66.18697481922509" y="314.4312559903546"/>
      <point x="63.682372715877435" y="301.2125226671309" type="curve"/>
    </contour>
  </outline>
</glyph>
<glyph name="slash" format="2">
  <advance width="361"/>
  <unicode hex="002F"/>
  <outline>
    <contour>
      <point x="-81.34896137423185" y="-58.56839148451728" type="line"/>
      <point x="-91.55007636921773" y="-77.22751832971477"/>
      <point x="-78.04645458062063" y="-100.0"/>
      <point x="-56.780854147853745" y="-100.0" type="curve"/>
      <point x="-15.603434599492331" y="-100.0" type="line"/>
      <point x="-5.366694957058138" y="-100.0"/>
      <point x="4.054105507167964" y="-94.41365555776268"/>
      <point x="8.964672626885772" y="-85.43160851548272" type="curve"/>
      <point x="493.34896137423186" y="800.5683914845173" type="line"/>
      <point x="503.5500763692177" y="819.2275183297147"/>
      <point x="490.04645458062066" y="842.0"/>
      <point x="468.78085414785374" y="842.0" type="curve"/>
      <point x="427.60343459949235" y="842.0" type="line"/>
      <point x="417.36669495705814" y="842.0"/>
      <point x="407.94589449283205" y="836.4136555577627"/>
      <point x="403.0353273731142" y="827.4316085154827" type="curve"/>
    </contour>
  </outline>
</glyph>
<glyph name="one" format="2">
  <advance width="375"/>
  <unicode hex="0031"/>
  <outline>
    <contour>
      <point x="114.69825035677383" y="33.49125178386914" type="line"/>
      <point x="111.23301555736602" y="16.16507778683009"/>
      <point x="124.48520941475837" y="0.0"/>
      <point x="142.1545092761196" y="0.0" type="curve"/>
      <point x="199.0454907238804" y="0.0" type="line"/>
      <point x="212.3925592849138" y="0.0"/>
      <point x="223.88417414161194" y="9.420870708059686"/>
      <point x="226.50174964322616" y="22.50874821613085" type="curve"/>
      <point x="355.3017496432262" y="666.5087482161308" type="line"/>
      <point x="358.766984442634" y="683.8349222131699"/>
      <point x="345.5147905852416" y="700.0"/>
      <point x="327.8454907238804" y="700.0" type="curve"/>
      <point x="117.9090909090909" y="700.0" type="line"/>
      <point x="104.58245812398675" y="700.0"/>
      <point x="93.10248353980461" y="690.6072935220328"/>
      <point x="90.46354635463547" y="677.5445544554456" type="curve"/>
      <point x="81.77667766776678" y="634.5445544554456" type="line"/>
      <point x="78.27341283009613" y="617.2033935089759"/>
      <point x="91.53073479198548" y="601.0"/>
      <point x="109.22222222222223" y="601.0" type="curve"/>
      <point x="249.53594371843676" y="601.0" type="line"/>
      <point x="260.9245655646796" y="601.0"/>
      <point x="267.20189670806514" y="614.2276765326202"/>
      <point x="260.0" y="623.05" type="curve"/>
      <point x="256.0" y="627.95" type="line"/>
      <point x="248.8202712881363" y="636.7451676720331"/>
      <point x="234.64435692972967" y="633.2217846486484"/>
      <point x="232.41773929170407" y="622.0886964585203" type="curve"/>
    </contour>
  </outline>
</glyph>
<glyph name="two" format="2">
  <advance width="578"/>
  <unicode hex="0032"/>
  <outline>
    <contour>
      <point x="-10.102269533497998" y="33.62643602419726" type="line"/>
      <point x="-13.664126664701099" y="16.262382509582142"/>
      <point x="-0.3990019638239346" y="0.0"/>
      <point x="17.32660608446372" y="0.0" type="curve"/>
      <point x="469.09090909090907" y="0.0" type="line"/>
      <point x="482.4175418760132" y="0.0"/>
      <point x="493.8975164601954" y="9.392706477967213"/>
      <point x="496.53645364536453" y="22.455445544554458" type="curve"/>
      <point x="505.22332233223324" y="65.45544554455445" type="line"/>
      <point x="508.7265871699039" y="82.79660649102412"/>
      <point x="495.4692652080145" y="99.0"/>
      <point x="477.77777777777777" y="99.0" type="curve"/>
      <point x="94" y="99" type="line"/>
      <point x="119" y="54" type="line"/>
      <point x="411" y="283" type="line" smooth="yes"/>
      <point x="532" y="378"/>
      <point x="567" y="449"/>
      <point x="567" y="530" type="curve" smooth="yes"/>
      <point x="567" y="635"/>
      <point x="483" y="709"/>
      <point x="339" y="709" type="curve" smooth="yes"/>
      <point x="239.7970742448665" y="709.0"/>
      <point x="150.97771039371167" y="673.8556366326877"/>
      <point x="91.81574937316338" y="619.2715210234636" type="curve"/>
      <point x="80.35085071727013" y="608.6937554645438"/>
      <point x="81.6795174465881" y="590.7032707600673"/>
      <point x="93.52326399465369" y="580.5514880045826" type="curve"/>
      <point x="128.68071990017754" y="550.4165257998478" type="line"/>
      <point x="140.04828697269127" y="540.6728968805503"/>
      <point x="156.97621726390952" y="541.7514102198861"/>
      <point x="168.35268908416032" y="551.4846406490966" type="curve"/>
      <point x="211.90399557942658" y="588.745305318176"/>
      <point x="266.7018239126087" y="609.0"/>
      <point x="323" y="609" type="curve" smooth="yes"/>
      <point x="411" y="609"/>
      <point x="452" y="572"/>
      <point x="452" y="515" type="curve" smooth="yes"/>
      <point x="452" y="461"/>
      <point x="425" y="417"/>
      <point x="334" y="345" type="curve" smooth="yes"/>
      <point x="6.937643056087837" y="84.32641998798643" type="line"/>
      <point x="1.8091719917151678" y="80.23895200533717"/>
      <point x="-1.721844209761912" y="74.48100947741068"/>
      <point x="-3.039654993034265" y="68.05668190895796" type="curve"/>
    </contour>
  </outline>
</glyph>
<glyph name="three" format="2">
  <advance width="577"/>
  <unicode hex="0033"/>
  <outline>
    <contour>
      <point x="220" y="-9" type="curve" smooth="yes"/>
      <point x="402" y="-9"/>
      <point x="524" y="90"/>
      <point x="524" y="228" type="curve" smooth="yes"/>
      <point x="524" y="342"/>
      <point x="441" y="411"/>
      <point x="296" y="411" type="curve" smooth="yes"/>
      <point x="281.7" y="411.0" type="line"/>
      <point x="278.365385147108" y="411.0"/>
      <point x="277.1287405144238" y="406.6227031928977"/>
      <point x="279.970403340914" y="404.8778225099651" type="curve"/>
      <point x="308.366290085398" y="387.4417517019486" type="line"/>
      <point x="319.3169803271565" y="380.71764365876356"/>
      <point x="333.4389556452104" y="382.310689596501"/>
      <point x="342.6164681017188" y="391.30538307977224" type="curve"/>
      <point x="571.6179208699168" y="615.7450539203169" type="line"/>
      <point x="575.7694875616075" y="619.8139200803007"/>
      <point x="578.5517502126289" y="625.0740368989327"/>
      <point x="579.5787015828416" y="630.7956231044037" type="curve"/>
      <point x="586.0865088126261" y="667.0534062417744" type="line"/>
      <point x="589.1681728926548" y="684.2226775447906"/>
      <point x="575.9705537019662" y="700.0"/>
      <point x="558.5269150167974" y="700.0" type="curve"/>
      <point x="145.9090909090909" y="700.0" type="line"/>
      <point x="132.58245812398675" y="700.0"/>
      <point x="121.10248353980461" y="690.6072935220328"/>
      <point x="118.46354635463547" y="677.5445544554456" type="curve"/>
      <point x="109.77667766776678" y="634.5445544554456" type="line"/>
      <point x="106.27341283009613" y="617.2033935089759"/>
      <point x="119.53073479198548" y="601.0"/>
      <point x="137.22222222222223" y="601.0" type="curve"/>
      <point x="464.35387445548196" y="601.0" type="line"/>
      <point x="474.6619142906695" y="601.0"/>
      <point x="482.07074330875406" y="610.9144072626787"/>
      <point x="479.15" y="620.8" type="curve"/>
      <point x="477.85" y="625.2" type="line"/>
      <point x="475.1974010045914" y="634.1780273690753"/>
      <point x="463.9405119082738" y="637.1017016701084"/>
      <point x="457.25427205755716" y="630.549186616406" type="curve"/>
      <point x="228.19133720068695" y="406.06751045667323" type="line"/>
      <point x="224.15821289018157" y="402.115048632378"/>
      <point x="221.41441497154892" y="397.0354757934664"/>
      <point x="220.32011272506602" y="391.49557067064677" type="curve"/>
      <point x="211.05782551535904" y="344.60524167150515" type="line"/>
      <point x="208.43892135183546" y="331.34703934366706"/>
      <point x="218.58561551591743" y="319.0"/>
      <point x="232.1" y="319.0" type="curve"/>
      <point x="264" y="319" type="line" smooth="yes"/>
      <point x="361" y="319"/>
      <point x="409" y="287"/>
      <point x="409" y="222" type="curve" smooth="yes"/>
      <point x="409" y="142"/>
      <point x="343" y="93"/>
      <point x="227" y="93" type="curve" smooth="yes"/>
      <point x="142" y="93"/>
      <point x="71" y="123"/>
      <point x="31" y="166" type="curve"/>
      <point x="-28" y="77" type="line"/>
      <point x="24" y="23"/>
      <point x="114" y="-9"/>
    </contour>
  </outline>
</glyph>
<glyph name="four" format="2">
  <advance width="674"/>
  <unicode hex="0034"/>
  <outline>
    <contour>
      <point x="23.129351719463813" y="198.0984992851046" type="line"/>
      <point x="19.94162687661226" y="180.8847851337062"/>
      <point x="33.1548620367127" y="165.0"/>
      <point x="50.66124785902869" y="165.0" type="curve"/>
      <point x="619.8627385599128" y="165.0" type="line"/>
      <point x="633.2917790323992" y="165.0"/>
      <point x="644.8298001478925" y="174.53422182322907"/>
      <point x="647.3608983094006" y="187.72257540161348" type="curve"/>
      <point x="655.6134235619259" y="230.72257540161348" type="line"/>
      <point x="658.926982895812" y="247.98796350975726"/>
      <point x="645.6957445221348" y="264.0"/>
      <point x="628.1152638124381" y="264.0" type="curve"/>
      <point x="132.05202230482416" y="264.0" type="line"/>
      <point x="127.27090039550042" y="264.0"/>
      <point x="126.30846761473187" y="257.23302553120686"/>
      <point x="130.9" y="255.9" type="curve"/>
      <point x="148.66833764102847" y="250.74145036228205" type="line"/>
      <point x="158.7031861253613" y="247.82810725392736"/>
      <point x="169.5253337543291" y="250.74480721585547"/>
      <point x="176.7370823417582" y="258.3063172821206" type="curve"/>
      <point x="557.9354917046888" y="657.9924093162326" type="line"/>
      <point x="573.0226796343478" y="673.811308438785"/>
      <point x="561.8100276549308" y="700.0"/>
      <point x="539.95" y="700.0" type="curve"/>
      <point x="480.9121379563057" y="700.0" type="line"/>
      <point x="473.30079863805906" y="700.0"/>
      <point x="466.01744263384046" y="696.901416374745"/>
      <point x="460.7390610911461" y="691.4176973349664" type="curve"/>
      <point x="37.82844588936507" y="252.0551817706447" type="line"/>
      <point x="34.026602376507554" y="248.10544045522752"/>
      <point x="31.46787558846081" y="243.12652817768839"/>
      <point x="30.469626614959797" y="237.7359837207829" type="curve"/>
    </contour>
    <contour>
      <point x="375.934139540392" y="33.65097129896121" type="line"/>
      <point x="372.35468498713783" y="16.28008890816897"/>
      <point x="385.6221300145563" y="0.0"/>
      <point x="403.3579708441744" y="0.0" type="curve"/>
      <point x="458.0454907238804" y="0.0" type="line"/>
      <point x="471.3925592849138" y="0.0"/>
      <point x="482.88417414161194" y="9.420870708059686"/>
      <point x="485.50174964322616" y="22.50874821613085" type="curve"/>
      <point x="556.3017496432261" y="376.50874821613087" type="line"/>
      <point x="559.766984442634" y="393.83492221316993"/>
      <point x="546.5147905852416" y="410.0"/>
      <point x="528.8454907238804" y="410.0" type="curve"/>
      <point x="478.83156957527825" y="410.0" type="line"/>
      <point x="465.5398758729445" y="410.0"/>
      <point x="454.07986817733166" y="400.65535846301395"/>
      <point x="451.40459185351773" y="387.6356803537864" type="curve"/>
      <point x="426" y="264" type="line"/>
      <point x="403" y="165" type="line"/>
    </contour>
  </outline>
</glyph>
<glyph name="five" format="2">
  <advance width="579"/>
  <unicode hex="0035"/>
  <outline>
    <contour>
      <point x="234" y="-9" type="curve" smooth="yes"/>
      <point x="416" y="-9"/>
      <point x="538" y="90"/>
      <point x="538" y="237" type="curve" smooth="yes"/>
      <point x="538" y="350"/>
      <point x="456" y="426"/>
      <point x="275" y="426" type="curve" smooth="yes"/>
      <point x="182.38895171417704" y="426.0" type="line"/>
      <point x="169.29499792856194" y="426.0"/>
      <point x="162.49020475151386" y="410.3951641137543"/>
      <point x="171.4" y="400.8" type="curve"/>
      <point x="176.6" y="395.2" type="line"/>
      <point x="186.97299819993313" y="384.02907886161046"/>
      <point x="205.55386338705148" y="388.32136542625034"/>
      <point x="209.97623284709593" y="402.91010146110955" type="curve"/>
      <point x="274.7809626107761" y="616.6912214861236" type="line"/>
      <point x="278.657565725827" y="629.4795559001419"/>
      <point x="263.95750100563174" y="639.794934084205"/>
      <point x="253.25" y="631.8" type="curve"/>
      <point x="245.75" y="626.2" type="line"/>
      <point x="234.96496330085242" y="618.1471725979698"/>
      <point x="240.660339626635" y="601.0"/>
      <point x="254.1200961537364" y="601.0" type="curve"/>
      <point x="550.0909090909091" y="601.0" type="line"/>
      <point x="563.4175418760133" y="601.0"/>
      <point x="574.8975164601954" y="610.3927064779672"/>
      <point x="577.5364536453645" y="623.4554455445544" type="curve"/>
      <point x="586.2233223322332" y="666.4554455445544" type="line"/>
      <point x="589.7265871699038" y="683.7966064910241"/>
      <point x="576.4692652080145" y="700.0"/>
      <point x="558.7777777777778" y="700.0" type="curve"/>
      <point x="210.95066259451423" y="700.0" type="line"/>
      <point x="198.52962312398765" y="700.0"/>
      <point x="187.59322759807108" y="691.8169738334417"/>
      <point x="184.08842855051864" y="679.9006570717634" type="curve"/>
      <point x="90.55901678581276" y="361.90065707176336" type="line"/>
      <point x="85.2844789689541" y="343.96722849444393"/>
      <point x="98.72824118129829" y="326.0"/>
      <point x="117.42125082980833" y="326.0" type="curve"/>
      <point x="255" y="326" type="line" smooth="yes"/>
      <point x="375" y="326"/>
      <point x="423" y="287"/>
      <point x="423" y="224" type="curve" smooth="yes"/>
      <point x="423" y="142"/>
      <point x="357" y="93"/>
      <point x="241" y="93" type="curve" smooth="yes"/>
      <point x="156" y="93"/>
      <point x="85" y="123"/>
      <point x="45" y="166" type="curve"/>
      <point x="-14" y="77" type="line"/>
      <point x="38" y="23"/>
      <point x="128" y="-9"/>
    </contour>
  </outline>
</glyph>
<glyph name="six" format="2">
  <advance width="622"/>
  <unicode hex="0036"/>
  <outline>
    <contour>
      <point x="326" y="-9" type="curve" smooth="yes"/>
      <point x="475" y="-9"/>
      <point x="588" y="82"/>
      <point x="588" y="227" type="curve" smooth="yes"/>
      <point x="588" y="357"/>
      <point x="483" y="429"/>
      <point x="360" y="429" type="curve" smooth="yes"/>
      <point x="256" y="429"/>
      <point x="166" y="389"/>
      <point x="125" y="276" type="curve"/>
      <point x="171" y="258" type="line"/>
      <point x="171" y="273"/>
      <point x="172" y="288"/>
      <point x="174" y="329" type="curve" smooth="yes"/>
      <point x="181" y="467"/>
      <point x="266" y="611"/>
      <point x="448" y="611" type="curve" smooth="yes"/>
      <point x="491.34601672234976" y="611.0"/>
      <point x="531.8025645239856" y="604.4986949283937"/>
      <point x="565.6859090473789" y="587.1983947013977" type="curve"/>
      <point x="575.3597674757971" y="582.2590754718706"/>
      <point x="587.6188246252591" y="584.9941195437177"/>
      <point x="593.0527792661389" y="594.3990410375482" type="curve"/>
      <point x="623.4482176086916" y="647.0065304765817" type="line"/>
      <point x="629.9252427154559" y="658.216766238289"/>
      <point x="626.5137354206711" y="672.6547610299789"/>
      <point x="614.8579840584068" y="678.2907791498743" type="curve"/>
      <point x="572.518512568256" y="698.7635930499581"/>
      <point x="514.8560141716325" y="709.0"/>
      <point x="455" y="709" type="curve" smooth="yes"/>
      <point x="168" y="709"/>
      <point x="55" y="473"/>
      <point x="55" y="279" type="curve" smooth="yes"/>
      <point x="55" y="90"/>
      <point x="167" y="-9"/>
    </contour>
    <contour>
      <point x="323" y="84" type="curve" smooth="yes"/>
      <point x="228" y="84"/>
      <point x="176" y="143"/>
      <point x="176" y="205" type="curve" smooth="yes"/>
      <point x="176" y="281"/>
      <point x="238" y="336"/>
      <point x="334" y="336" type="curve" smooth="yes"/>
      <point x="417" y="336"/>
      <point x="474" y="294"/>
      <point x="474" y="220" type="curve" smooth="yes"/>
      <point x="474" y="135"/>
      <point x="411" y="84"/>
    </contour>
  </outline>
</glyph>
<glyph name="seven" format="2">
  <advance width="603"/>
  <unicode hex="0037"/>
  <outline>
    <contour>
      <point x="140.66885001350587" y="43.12114333847095" type="line"/>
      <point x="128.71132335563794" y="24.485666232056268"/>
      <point x="142.0928433195017" y="0.0"/>
      <point x="164.2347368870656" y="0.0" type="curve"/>
      <point x="222.69563024750167" y="0.0" type="line"/>
      <point x="232.232715520544" y="0.0"/>
      <point x="241.11396800570702" y="4.854356139222485"/>
      <point x="246.26338945591348" y="12.88177504154934" type="curve"/>
      <point x="634.08953754729" y="617.4628881063018" type="line"/>
      <point x="636.0121938070006" y="620.4601116490086"/>
      <point x="637.3454935691047" y="623.7965665593443"/>
      <point x="638.0179588543364" y="627.293386042549" type="curve"/>
      <point x="645.5985140341917" y="666.7122729777965" type="line"/>
      <point x="648.9193488614336" y="683.9806140794548"/>
      <point x="635.68708681109" y="700.0"/>
      <point x="618.1023335187335" y="700.0" type="curve"/>
      <point x="138.9748899965786" y="700.0" type="line"/>
      <point x="125.618659486121" y="700.0"/>
      <point x="114.1218351532404" y="690.5664902015029"/>
      <point x="111.51386232021144" y="677.4673539265166" type="curve"/>
      <point x="78.66318358717976" y="512.4673539265166" type="line"/>
      <point x="75.2149706527482" y="495.1479207785763"/>
      <point x="88.46485292279303" y="479.0"/>
      <point x="106.12421126354693" y="479.0" type="curve"/>
      <point x="159.09600555053908" y="479.0" type="line"/>
      <point x="172.42034362222932" y="479.0"/>
      <point x="183.89900936437178" y="488.389546301616"/>
      <point x="186.54034030301693" y="501.4494603871393" type="curve"/>
      <point x="218" y="657" type="line"/>
      <point x="149" y="601" type="line"/>
      <point x="556" y="601" type="line"/>
      <point x="532" y="653" type="line"/>
    </contour>
  </outline>
</glyph>
<glyph name="nine" format="2">
  <advance width="622"/>
  <unicode hex="0039"/>
  <outline>
    <contour>
      <point x="330" y="709" type="curve" smooth="yes"/>
      <point x="181" y="709"/>
      <point x="68" y="618"/>
      <point x="68" y="473" type="curve" smooth="yes"/>
      <point x="68" y="343"/>
      <point x="173" y="271"/>
      <point x="296" y="271" type="curve" smooth="yes"/>
      <point x="400" y="271"/>
      <point x="490" y="311"/>
      <point x="531" y="424" type="curve"/>
      <point x="485" y="442" type="line"/>
      <point x="485" y="427"/>
      <point x="484" y="412"/>
      <point x="482" y="371" type="curve" smooth="yes"/>
      <point x="475" y="233"/>
      <point x="390" y="89"/>
      <point x="208" y="89" type="curve" smooth="yes"/>
      <point x="164.65398327765024" y="89.0"/>
      <point x="124.19743547601439" y="95.50130507160631"/>
      <point x="90.31409095262117" y="112.80160529860241" type="curve"/>
      <point x="80.64023252420307" y="117.74092452812957"/>
      <point x="68.38117537474085" y="115.00588045628221"/>
      <point x="62.94722073386104" y="105.60095896245178" type="curve"/>
      <point x="32.55178239130837" y="52.99346952341834" type="line"/>
      <point x="26.074757284544177" y="41.783233761711074"/>
      <point x="29.48626457932886" y="27.345238970021175"/>
      <point x="41.14201594159311" y="21.709220850125774" type="curve"/>
      <point x="83.48148743174394" y="1.2364069500419241"/>
      <point x="141.14398582836748" y="-9.0"/>
      <point x="201" y="-9" type="curve" smooth="yes"/>
      <point x="488" y="-9"/>
      <point x="601" y="227"/>
      <point x="601" y="421" type="curve" smooth="yes"/>
      <point x="601" y="610"/>
      <point x="489" y="709"/>
    </contour>
    <contour>
      <point x="333" y="616" type="curve" smooth="yes"/>
      <point x="428" y="616"/>
      <point x="480" y="557"/>
      <point x="480" y="495" type="curve" smooth="yes"/>
      <point x="480" y="419"/>
      <point x="418" y="364"/>
      <point x="322" y="364" type="curve" smooth="yes"/>
      <point x="239" y="364"/>
      <point x="182" y="406"/>
      <point x="182" y="480" type="curve" smooth="yes"/>
      <point x="182" y="565"/>
      <point x="245" y="616"/>
    </contour>
  </outline>
</glyph>
<glyph name="less" format="2">
  <advance width="586"/>
  <unicode hex="003C"/>
  <outline>
    <contour>
      <point x="573.0" y="532.45" type="line"/>
      <point x="576.9420179801533" y="551.9629890017587"/>
      <point x="557.9979034117026" y="568.2630405056914"/>
      <point x="539.2914912613267" y="561.4537534652682" type="curve"/>
      <point x="107.72388925536079" y="404.35961612976325" type="line"/>
      <point x="98.57548751352405" y="401.0295230621826"/>
      <point x="91.81356081497624" y="393.1864479933836"/>
      <point x="89.8668212194652" y="383.64742397537947" type="curve"/>
      <point x="77.57592885353816" y="323.422051382337" type="line"/>
      <point x="74.91337504074957" y="310.3755376996729"/>
      <point x="81.80701918733378" y="297.25859328079855"/>
      <point x="94.06241189244167" y="292.05224506717275" type="curve"/>
      <point x="460.4112225548132" y="136.4195760984326" type="line"/>
      <point x="476.7240356638448" y="129.48955048170794"/>
      <point x="495.29013576154233" y="139.2678934876259"/>
      <point x="498.80358791423896" y="156.63996246484808" type="curve"/>
      <point x="505.40804210894987" y="189.29531931647435" type="line"/>
      <point x="508.0725331120963" y="202.46974705425393"/>
      <point x="500.9996055451726" y="215.67882446868268"/>
      <point x="488.55764340296486" y="220.76435655251566" type="curve"/>
      <point x="143.0573488030987" y="361.984271311844" type="line"/>
      <point x="131.64902867663938" y="366.6473121861551"/>
      <point x="118.82745290593832" y="359.7027551108792"/>
      <point x="116.5" y="347.6" type="curve"/>
      <point x="115.5" y="342.4" type="line"/>
      <point x="113.50617358200424" y="332.032102626422"/>
      <point x="123.51586019485235" y="323.41246512412755"/>
      <point x="133.473052657348" y="326.92287222287877" type="curve"/>
      <point x="547.0113337582048" y="472.7157473781698" type="line"/>
      <point x="556.3072458617394" y="475.993020159682"/>
      <point x="563.195282327934" y="483.91664752327324"/>
      <point x="565.1471037467977" y="493.57816354664885" type="curve"/>
    </contour>
  </outline>
</glyph>
<glyph name="equal" format="2">
  <advance width="586"/>
  <unicode hex="003D"/>
  <outline>
    <contour>
      <point x="104.69825035677383" y="457.49125178386913" type="line"/>
      <point x="101.23301555736602" y="440.16507778683007"/>
      <point x="114.4852094147584" y="424.0"/>
      <point x="132.1545092761196" y="424.0" type="curve"/>
      <point x="528.2939618022107" y="424.0" type="line"/>
      <point x="541.5289208757041" y="424.0"/>
      <point x="552.9563304660967" y="433.2668285236157"/>
      <point x="555.69012175991" y="446.2163662311524" type="curve"/>
      <point x="562.8678995376878" y="480.2163662311524" type="line"/>
      <point x="566.5428287475371" y="497.6239256462284"/>
      <point x="553.2629798258737" y="514.0"/>
      <point x="535.4717395799885" y="514.0" type="curve"/>
      <point x="138.9545092761196" y="514.0" type="line"/>
      <point x="125.60744071508621" y="514.0"/>
      <point x="114.11582585838806" y="504.5791292919403"/>
      <point x="111.49825035677384" y="491.49125178386913" type="curve"/>
    </contour>
    <contour>
      <point x="56.698250356773826" y="218.49125178386913" type="line"/>
      <point x="53.233015557366016" y="201.16507778683007"/>
      <point x="66.48520941475837" y="185.0"/>
      <point x="84.15450927611958" y="185.0" type="curve"/>
      <point x="481.0454907238804" y="185.0" type="line"/>
      <point x="494.3925592849138" y="185.0"/>
      <point x="505.88417414161194" y="194.42087070805968"/>
      <point x="508.50174964322616" y="207.50874821613084" type="curve"/>
      <point x="515.3017496432261" y="241.50874821613087" type="line"/>
      <point x="518.7669844426339" y="258.83492221316993"/>
      <point x="505.5147905852416" y="275.0"/>
      <point x="487.8454907238804" y="275.0" type="curve"/>
      <point x="90.9545092761196" y="275.0" type="line"/>
      <point x="77.6074407150862" y="275.0"/>
      <point x="66.11582585838806" y="265.5791292919403"/>
      <point x="63.49825035677383" y="252.49125178386916" type="curve"/>
    </contour>
  </outline>
</glyph>
<glyph name="greater" format="2">
  <advance width="586"/>
  <unicode hex="003E"/>
  <outline>
    <contour>
      <point x="48.0" y="167.55" type="line"/>
      <point x="44.05953624344678" y="148.04470440506157"/>
      <point x="63.003711825187295" y="131.7554522641052"/>
      <point x="81.69826245567403" y="138.57436622358603" type="curve"/>
      <point x="527" y="301" type="line"/>
      <point x="547" y="399" type="line"/>
      <point x="161.62121835446527" y="563.5022137479741" type="line"/>
      <point x="145.30223626036914" y="570.4681101814252"/>
      <point x="126.70178425928471" y="560.6921555042411"/>
      <point x="123.18442099947183" y="543.3007482751663" type="curve"/>
      <point x="116.57499858944925" y="510.62082635894353" type="line"/>
      <point x="113.91809875151237" y="497.4839327158112"/>
      <point x="120.94328906407183" y="484.30653776314955"/>
      <point x="133.33129736980675" y="479.19045121610577" type="curve"/>
      <point x="497" y="329" type="line"/>
      <point x="507" y="381" type="line"/>
      <point x="73.94096414075615" y="227.302708255313" type="line"/>
      <point x="64.67168889670879" y="224.01294315753728"/>
      <point x="57.808256435256936" y="216.10086935452185"/>
      <point x="55.860582766425104" y="206.45988469380427" type="curve"/>
    </contour>
  </outline>
</glyph>
<glyph name="question" format="2">
  <advance width="577"/>
  <unicode hex="003F"/>
  <outline>
    <contour>
      <point x="225.05895867150429" y="259.59146463940874" type="curve"/>
      <point x="218.92465197230632" y="243.13628646737192"/>
      <point x="232.26563966913173" y="227.0"/>
      <point x="249.82703503946897" y="227.0" type="curve"/>
      <point x="309.37407728245614" y="227.0" type="line"/>
      <point x="322.11278475033157" y="227.0"/>
      <point x="332.9913393096518" y="235.7462714883549"/>
      <point x="337.96832726648273" y="247.47249248361442" type="curve"/>
      <point x="386.55085633199434" y="361.9372003093391"/>
      <point x="563.0" y="374.70083764391575"/>
      <point x="563" y="546" type="curve" smooth="yes"/>
      <point x="563" y="646"/>
      <point x="478" y="709"/>
      <point x="344" y="709" type="curve" smooth="yes"/>
      <point x="235.86499388766606" y="709.0"/>
      <point x="148.03064671094756" y="675.7069193455907"/>
      <point x="89.27780598219326" y="617.9016055491207" type="curve"/>
      <point x="78.53084718926883" y="607.3279665952056"/>
      <point x="79.92097599120046" y="590.0566652133147"/>
      <point x="91.18073174208118" y="580.0308552981469" type="curve"/>
      <point x="122.99377180614047" y="551.704175789053" type="line"/>
      <point x="134.5798258992126" y="541.3878262541258"/>
      <point x="152.2389381856696" y="542.6236546273373"/>
      <point x="163.72905751362703" y="553.0467479783385" type="curve"/>
      <point x="205.88580643995317" y="591.2886249242703"/>
      <point x="258.9158295335683" y="612.0"/>
      <point x="326" y="612" type="curve" smooth="yes"/>
      <point x="405" y="612"/>
      <point x="448" y="579"/>
      <point x="448" y="526" type="curve" smooth="yes"/>
      <point x="448.0" y="411.7467218463512"/>
      <point x="274.57041937075394" y="392.4051544848271"/>
    </contour>
    <contour>
      <point x="238" y="-6" type="curve" smooth="yes"/>
      <point x="280" y="-6"/>
      <point x="313" y="27"/>
      <point x="313" y="70" type="curve" smooth="yes"/>
      <point x="313" y="107"/>
      <point x="284" y="136"/>
      <point x="244" y="136" type="curve" smooth="yes"/>
      <point x="202" y="136"/>
      <point x="169" y="104"/>
      <point x="169" y="60" type="curve" smooth="yes"/>
      <point x="169" y="24"/>
      <point x="198" y="-6"/>
    </contour>
  </outline>
</glyph>
<glyph name="at" format="2">
  <advance width="1034"/>
  <unicode hex="0040"/>
  <outline>
    <contour>
      <point x="445" y="-203" type="curve" smooth="yes"/>
      <point x="519" y="-203"/>
      <point x="600" y="-187"/>
      <point x="659" y="-160" type="curve"/>
      <point x="643" y="-87" type="line"/>
      <point x="586" y="-114"/>
      <point x="519" y="-127"/>
      <point x="451" y="-127" type="curve" smooth="yes"/>
      <point x="237" y="-127"/>
      <point x="122" y="-2"/>
      <point x="122" y="182" type="curve" smooth="yes"/>
      <point x="122" y="433"/>
      <point x="300" y="633"/>
      <point x="576" y="633" type="curve" smooth="yes"/>
      <point x="803" y="633"/>
      <point x="919" y="518"/>
      <point x="919" y="339" type="curve" smooth="yes"/>
      <point x="919" y="219"/>
      <point x="869" y="80"/>
      <point x="790" y="80" type="curve" smooth="yes"/>
      <point x="753" y="80"/>
      <point x="737" y="101"/>
      <point x="746" y="148" type="curve" smooth="yes"/>
      <point x="809.3238334742351" y="465.523793563665" type="line"/>
      <point x="812.7783497721416" y="482.84572528602416"/>
      <point x="799.5276103213511" y="499.0"/>
      <point x="781.8645697720409" y="499.0" type="curve"/>
      <point x="739.9545092761196" y="499.0" type="line"/>
      <point x="726.6074407150862" y="499.0"/>
      <point x="715.115825858388" y="489.5791292919403"/>
      <point x="712.4982503567738" y="476.49125178386913" type="curve"/>
      <point x="692" y="374" type="line"/>
      <point x="681.3305520025382" y="251.78632293816423" type="line"/>
      <point x="681.1111898470515" y="249.27362915713547"/>
      <point x="680.5533238079651" y="246.8020956668155"/>
      <point x="679.6720935977648" y="244.43879646673298" type="curve"/>
      <point x="659" y="189" type="line"/>
      <point x="646" y="132" type="line" smooth="yes"/>
      <point x="627" y="47"/>
      <point x="675" y="-6"/>
      <point x="763" y="-6" type="curve" smooth="yes"/>
      <point x="898" y="-6"/>
      <point x="994" y="160"/>
      <point x="994" y="343" type="curve" smooth="yes"/>
      <point x="994" y="561"/>
      <point x="846" y="708"/>
      <point x="586" y="708" type="curve" smooth="yes"/>
      <point x="257" y="708"/>
      <point x="39" y="475"/>
      <point x="39" y="176" type="curve" smooth="yes"/>
      <point x="39" y="-48"/>
      <point x="190" y="-203"/>
    </contour>
    <contour>
      <point x="463" y="-6" type="curve" smooth="yes"/>
      <point x="642" y="-6"/>
      <point x="733" y="130"/>
      <point x="732" y="295" type="curve" smooth="yes"/>
      <point x="731" y="428"/>
      <point x="657" y="504"/>
      <point x="527" y="504" type="curve" smooth="yes"/>
      <point x="362" y="504"/>
      <point x="247" y="372"/>
      <point x="247" y="208" type="curve" smooth="yes"/>
      <point x="247" y="77"/>
      <point x="339" y="-6"/>
    </contour>
    <contour>
      <point x="486" y="82" type="curve" smooth="yes"/>
      <point x="400" y="82"/>
      <point x="348" y="129"/>
      <point x="348" y="215" type="curve" smooth="yes"/>
      <point x="348" y="335"/>
      <point x="425" y="416"/>
      <point x="531" y="416" type="curve" smooth="yes"/>
      <point x="619" y="416"/>
      <point x="673" y="369"/>
      <point x="673" y="284" type="curve" smooth="yes"/>
      <point x="673" y="170"/>
      <point x="596" y="82"/>
    </contour>
  </outline>
</glyph>
<glyph name="A" format="2">
  <advance width="740"/>
  <unicode hex="0041"/>
  <anchor x="317" y="0" name="bottom"/>
  <anchor x="690" y="0" name="ogonek"/>
  <anchor x="457" y="700" name="top"/>
  <anchor x="200" y="700" name="topleft"/>
  <outline>
    <contour>
      <point x="-27.72688886177624" y="43.306734785025455" type="line"/>
      <point x="-39.88569684869103" y="24.682740056709573"/>
      <point x="-26.522747367514363" y="0.0"/>
      <point x="-4.281124420818216" y="0.0" type="curve"/>
      <point x="51.57587086305099" y="0.0" type="line"/>
      <point x="61.17835141098747" y="0.0"/>
      <point x="70.11103700052621" y="4.920674859743177"/>
      <point x="75.24251682530392" y="13.037050127151508" type="curve"/>
      <point x="459.93810491542985" y="621.5035867350488" type="line"/>
      <point x="464.7384202280117" y="629.0961646675729"/>
      <point x="459.28277611663907" y="639.0"/>
      <point x="450.3" y="639.0" type="curve"/>
      <point x="445.7" y="639.0" type="line"/>
      <point x="435.1318374908339" y="639.0"/>
      <point x="427.33004908478824" y="629.1397260584127"/>
      <point x="429.76044114394364" y="618.8548219140398" type="curve"/>
      <point x="570.9050482832168" y="21.56075594055934" type="line"/>
      <point x="573.8908808393079" y="8.925345322399068"/>
      <point x="585.1711598371236" y="0.0"/>
      <point x="598.1545645347571" y="0.0" type="curve"/>
      <point x="654.0885331165872" y="0.0" type="line"/>
      <point x="672.3200593406489" y="0.0"/>
      <point x="685.6889345891414" y="17.1462828840969"/>
      <point x="681.2433709073343" y="34.82750207310212" type="curve"/>
      <point x="519.3233709073343" y="678.8275020731021" type="line"/>
      <point x="516.1938719475626" y="691.2743729358308"/>
      <point x="505.0027981135653" y="700.0"/>
      <point x="492.16853311658724" y="700.0" type="curve"/>
      <point x="416.15887557918177" y="700.0" type="line"/>
      <point x="406.70148123740324" y="700.0"/>
      <point x="397.88317638633106" y="695.2258719265465"/>
      <point x="392.7131111382238" y="687.3067347850255" type="curve"/>
    </contour>
    <contour>
      <point x="139.92351934692124" y="209.1625261207501" type="line"/>
      <point x="129.9901279779324" y="190.51207701979146"/>
      <point x="143.50601459797707" y="168.0"/>
      <point x="164.63683369608475" y="168.0" type="curve"/>
      <point x="535.0650591375395" y="168.0" type="line"/>
      <point x="552.3273867796178" y="168.0"/>
      <point x="565.477984354919" y="183.46836262316305"/>
      <point x="562.7001540230115" y="200.5057219921965" type="curve"/>
      <point x="556.8305888056201" y="236.50572199219653" type="line"/>
      <point x="554.6220037243669" y="250.0517104905496"/>
      <point x="542.9203492002104" y="260.0"/>
      <point x="529.1954939201482" y="260.0" type="curve"/>
      <point x="183.81074673956303" y="260.0" type="line"/>
      <point x="173.46434061503916" y="260.0"/>
      <point x="163.9611767071829" y="254.29445422573116"/>
      <point x="159.09743239039952" y="245.16252612075013" type="curve"/>
    </contour>
  </outline>
</glyph>
<glyph name="B" format="2">
  <advance width="759"/>
  <unicode hex="0042"/>
  <anchor x="324" y="0" name="bottom"/>
  <anchor x="464" y="700" name="top"/>
  <outline>
    <contour>
      <point x="53.698250356773826" y="33.49125178386914" type="line"/>
      <point x="50.233015557366016" y="16.16507778683009"/>
      <point x="63.48520941475838" y="0.0"/>
      <point x="81.15450927611958" y="0.0" type="curve"/>
      <point x="390" y="0" type="line" smooth="yes"/>
      <point x="573" y="0"/>
      <point x="697" y="73"/>
      <point x="697" y="220" type="curve" smooth="yes"/>
      <point x="697" y="320"/>
      <point x="628" y="374"/>
      <point x="528" y="374" type="curve"/>
      <point x="504" y="342" type="line"/>
      <point x="616" y="342"/>
      <point x="727" y="412"/>
      <point x="727" y="544" type="curve" smooth="yes"/>
      <point x="727" y="646"/>
      <point x="645" y="700"/>
      <point x="503" y="700" type="curve" smooth="yes"/>
      <point x="209.9545092761196" y="700.0" type="line"/>
      <point x="196.6074407150862" y="700.0"/>
      <point x="185.11582585838806" y="690.5791292919403"/>
      <point x="182.49825035677384" y="677.4912517838692" type="curve"/>
    </contour>
    <contour>
      <point x="214.10241480031667" y="93.0" type="line"/>
      <point x="196.45021367403388" y="93.0"/>
      <point x="183.20200089329964" y="109.13557312898057"/>
      <point x="186.63796621843588" y="126.45014349290241" type="curve"/>
      <point x="277.5251257515098" y="584.4501434929024" type="line"/>
      <point x="280.12617335879736" y="597.5573833962926"/>
      <point x="291.6267457952255" y="607.0"/>
      <point x="304.9895743333906" y="607.0" type="curve"/>
      <point x="478" y="607" type="line" smooth="yes"/>
      <point x="560" y="607"/>
      <point x="608" y="582"/>
      <point x="608" y="525" type="curve" smooth="yes"/>
      <point x="608" y="442"/>
      <point x="539" y="401"/>
      <point x="435" y="401" type="curve" smooth="yes"/>
      <point x="245.10027711662673" y="401.0" type="line"/>
      <point x="231.68779251043432" y="401.0"/>
      <point x="220.1591071967528" y="391.48872051655616"/>
      <point x="217.61044130009887" y="378.3206133838441" type="curve"/>
      <point x="210.4491509775182" y="341.3206133838441" type="line"/>
      <point x="207.105070143318" y="324.042862407143"/>
      <point x="220.3405904057793" y="308.0"/>
      <point x="237.9389867940461" y="308.0" type="curve"/>
      <point x="447" y="308" type="line" smooth="yes"/>
      <point x="534" y="308"/>
      <point x="583" y="285"/>
      <point x="583" y="219" type="curve" smooth="yes"/>
      <point x="583" y="136"/>
      <point x="515" y="93"/>
      <point x="398" y="93" type="curve" smooth="yes"/>
    </contour>
  </outline>
</glyph>
<glyph name="D" format="2">
  <advance width="826"/>
  <unicode hex="0044"/>
  <anchor x="326" y="0" name="bottom"/>
  <anchor x="220" y="356" name="center"/>
  <anchor x="462" y="699" name="top"/>
  <outline>
    <contour>
      <point x="53.698250356773826" y="33.49125178386914" type="line"/>
      <point x="50.233015557366016" y="16.16507778683009"/>
      <point x="63.48520941475838" y="0.0"/>
      <point x="81.15450927611958" y="0.0" type="curve"/>
      <point x="367" y="0" type="line" smooth="yes"/>
      <point x="628" y="0"/>
      <point x="802" y="164"/>
      <point x="802" y="412" type="curve" smooth="yes"/>
      <point x="802" y="587"/>
      <point x="677" y="700"/>
      <point x="465" y="700" type="curve" smooth="yes"/>
      <point x="209.9545092761196" y="700.0" type="line"/>
      <point x="196.60744071508623" y="700.0"/>
      <point x="185.11582585838806" y="690.5791292919404"/>
      <point x="182.49825035677384" y="677.4912517838692" type="curve"/>
    </contour>
    <contour>
      <point x="215.1278314018997" y="99.0" type="line"/>
      <point x="197.46728475769333" y="99.0"/>
      <point x="184.21712573421712" y="115.14997118576986"/>
      <point x="187.6673726890391" y="132.4702108989762" type="curve"/>
      <point x="276.5119942029833" y="578.4702108989762" type="line"/>
      <point x="279.12111585322384" y="591.5680015831838"/>
      <point x="290.6173177015128" y="601.0"/>
      <point x="303.9724529158439" y="601.0" type="curve"/>
      <point x="453" y="601" type="line" smooth="yes"/>
      <point x="609" y="601"/>
      <point x="687" y="525"/>
      <point x="687" y="405" type="curve" smooth="yes"/>
      <point x="687" y="229"/>
      <point x="567" y="99"/>
      <point x="370" y="99" type="curve" smooth="yes"/>
    </contour>
  </outline>
</glyph>
<glyph name="E" format="2">
  <advance width="670"/>
  <unicode hex="0045"/>
  <anchor x="308" y="0" name="bottom"/>
  <anchor x="563" y="0" name="ogonek"/>
  <anchor x="438" y="700" name="top"/>
  <anchor x="106" y="700" name="topleft"/>
  <outline>
    <contour>
      <point x="256.0475535017108" y="404.0" type="line"/>
      <point x="242.65869943916596" y="404.0"/>
      <point x="231.14337167883974" y="394.52142383407664"/>
      <point x="228.56972024709495" y="381.3822559983268" type="curve"/>
      <point x="220.5387924120434" y="340.3822559983268" type="line"/>
      <point x="217.1510489990563" y="323.0869343636031"/>
      <point x="230.39263758561532" y="307.0"/>
      <point x="248.01662566665928" y="307.0" type="curve"/>
      <point x="544.9524464982892" y="307.0" type="line"/>
      <point x="558.341300560834" y="307.0"/>
      <point x="569.8566283211602" y="316.47857616592336"/>
      <point x="572.4302797529051" y="329.6177440016732" type="curve"/>
      <point x="580.4612075879566" y="370.6177440016732" type="line"/>
      <point x="583.8489510009438" y="387.9130656363969"/>
      <point x="570.6073624143846" y="404.0"/>
      <point x="552.9833743333407" y="404.0" type="curve"/>
    </contour>
    <contour>
      <point x="215.1278314018997" y="99.0" type="line"/>
      <point x="197.46728475769333" y="99.0"/>
      <point x="184.2171257342171" y="115.14997118576986"/>
      <point x="187.6673726890391" y="132.4702108989762" type="curve"/>
      <point x="276.5119942029833" y="578.4702108989762" type="line"/>
      <point x="279.12111585322384" y="591.5680015831838"/>
      <point x="290.6173177015128" y="601.0"/>
      <point x="303.9724529158439" y="601.0" type="curve"/>
      <point x="646.0909090909091" y="601.0" type="line"/>
      <point x="659.4175418760133" y="601.0"/>
      <point x="670.8975164601954" y="610.3927064779672"/>
      <point x="673.5364536453645" y="623.4554455445544" type="curve"/>
      <point x="682.2233223322332" y="666.4554455445544" type="line"/>
      <point x="685.7265871699038" y="683.7966064910241"/>
      <point x="672.4692652080145" y="700.0"/>
      <point x="654.7777777777778" y="700.0" type="curve"/>
      <point x="209.9545092761196" y="700.0" type="line"/>
      <point x="196.6074407150862" y="700.0"/>
      <point x="185.11582585838806" y="690.5791292919403"/>
      <point x="182.49825035677384" y="677.4912517838692" type="curve"/>
      <point x="53.698250356773826" y="33.49125178386914" type="line"/>
      <point x="50.233015557366016" y="16.16507778683009"/>
      <point x="63.48520941475838" y="0.0"/>
      <point x="81.15450927611958" y="0.0" type="curve"/>
      <point x="540.0909090909091" y="0.0" type="line"/>
      <point x="553.4175418760133" y="0.0"/>
      <point x="564.8975164601954" y="9.392706477967208"/>
      <point x="567.5364536453645" y="22.45544554455445" type="curve"/>
      <point x="576.2233223322332" y="65.45544554455445" type="line"/>
      <point x="579.7265871699038" y="82.79660649102412"/>
      <point x="566.4692652080145" y="99.0"/>
      <point x="548.7777777777778" y="99.0" type="curve"/>
    </contour>
  </outline>
</glyph>
<glyph name="F" format="2">
  <advance width="636"/>
  <unicode hex="0046"/>
  <outline>
    <contour>
      <point x="226" y="374" type="line"/>
      <point x="206" y="275" type="line"/>
      <point x="538.0909090909091" y="275.0" type="line"/>
      <point x="551.4175418760133" y="275.0"/>
      <point x="562.8975164601954" y="284.3927064779672"/>
      <point x="565.5364536453645" y="297.45544554455444" type="curve"/>
      <point x="574.2233223322332" y="340.45544554455444" type="line"/>
      <point x="577.7265871699038" y="357.79660649102414"/>
      <point x="564.4692652080146" y="374.0"/>
      <point x="546.7777777777778" y="374.0" type="curve"/>
    </contour>
    <contour>
      <point x="138.03799882996447" y="0.0" type="line"/>
      <point x="151.3884358915541" y="0.0"/>
      <point x="162.88196673673568" y="9.42551673981781"/>
      <point x="165.49601354403075" y="22.51753449968726" type="curve"/>
      <point x="276.50398645596925" y="578.4824655003127" type="line"/>
      <point x="279.1180332632643" y="591.5744832601822"/>
      <point x="290.61156410844586" y="601.0"/>
      <point x="303.96200117003553" y="601.0" type="curve"/>
      <point x="646.0909090909091" y="601.0" type="line"/>
      <point x="659.4175418760133" y="601.0"/>
      <point x="670.8975164601954" y="610.3927064779672"/>
      <point x="673.5364536453645" y="623.4554455445544" type="curve"/>
      <point x="682.2233223322332" y="666.4554455445544" type="line"/>
      <point x="685.7265871699038" y="683.7966064910241"/>
      <point x="672.4692652080146" y="700.0"/>
      <point x="654.7777777777778" y="700.0" type="curve"/>
      <point x="209.9545092761196" y="700.0" type="line"/>
      <point x="196.60744071508623" y="700.0"/>
      <point x="185.11582585838806" y="690.5791292919404"/>
      <point x="182.49825035677384" y="677.4912517838692" type="curve"/>
      <point x="53.698250356773826" y="33.49125178386914" type="line"/>
      <point x="50.233015557366016" y="16.16507778683009"/>
      <point x="63.48520941475838" y="0.0"/>
      <point x="81.15450927611958" y="0.0" type="curve"/>
    </contour>
  </outline>
</glyph>
<glyph name="G" format="2">
  <advance width="772"/>
  <unicode hex="0047"/>
  <anchor x="352" y="0" name="bottom"/>
  <anchor x="498" y="700" name="top"/>
  <outline>
    <contour>
      <point x="395" y="-9" type="curve" smooth="yes"/>
      <point x="490" y="-9"/>
      <point x="584" y="22"/>
      <point x="653" y="77" type="curve"/>
      <point x="608" y="170" type="line"/>
      <point x="549" y="119"/>
      <point x="484" y="93"/>
      <point x="408" y="93" type="curve" smooth="yes"/>
      <point x="252" y="93"/>
      <point x="173" y="175"/>
      <point x="173" y="295" type="curve" smooth="yes"/>
      <point x="173" y="469"/>
      <point x="295" y="607"/>
      <point x="486" y="607" type="curve" smooth="yes"/>
      <point x="573" y="607"/>
      <point x="637" y="583"/>
      <point x="684" y="527" type="curve"/>
      <point x="766" y="597" type="line"/>
      <point x="710" y="669"/>
      <point x="616" y="709"/>
      <point x="491" y="709" type="curve" smooth="yes"/>
      <point x="227" y="709"/>
      <point x="58" y="523"/>
      <point x="58" y="288" type="curve" smooth="yes"/>
      <point x="58" y="111"/>
      <point x="187" y="-9"/>
    </contour>
    <contour>
      <point x="552.6289350857664" y="123.2529241804816" type="line"/>
      <point x="549.5464057642387" y="107.78099816281325"/>
      <point x="559.8482655738228" y="92.81821905350178"/>
      <point x="575.4016215700642" y="90.17708312961173" type="curve"/>
      <point x="626.2078718369021" y="81.54960666920532" type="line"/>
      <point x="641.132487495245" y="79.01523797250557"/>
      <point x="655.3688629486488" y="88.80201361916113"/>
      <point x="658.3479513668584" y="103.64425770274079" type="curve"/>
      <point x="702.2739438154886" y="322.48982722359506" type="line"/>
      <point x="705.7526681438939" y="339.8213287883281"/>
      <point x="692.4986495595341" y="356.0"/>
      <point x="674.8214758758995" y="356.0" type="curve"/>
      <point x="621.9717651111721" y="356.0" type="line"/>
      <point x="608.6169390298224" y="356.0"/>
      <point x="597.1209128843884" y="346.568428131257"/>
      <point x="594.511467036507" y="333.4710172409294" type="curve"/>
    </contour>
  </outline>
</glyph>
<glyph name="H" format="2">
  <advance width="811"/>
  <unicode hex="0048"/>
  <anchor x="352" y="0" name="bottom"/>
  <anchor x="463" y="556" name="center"/>
  <anchor x="492" y="700" name="top"/>
  <outline>
    <contour>
      <point x="706.9545092761196" y="700.0" type="line"/>
      <point x="693.6074407150861" y="700.0"/>
      <point x="682.1158258583881" y="690.5791292919404"/>
      <point x="679.4982503567738" y="677.4912517838692" type="curve"/>
      <point x="550.6982503567739" y="33.49125178386914" type="line"/>
      <point x="547.2330155573661" y="16.16507778683009"/>
      <point x="560.4852094147584" y="0.0"/>
      <point x="578.1545092761196" y="0.0" type="curve"/>
      <point x="635.0454907238804" y="0.0" type="line"/>
      <point x="648.3925592849139" y="0.0"/>
      <point x="659.8841741416119" y="9.420870708059688"/>
      <point x="662.5017496432262" y="22.50874821613085" type="curve"/>
      <point x="791.3017496432261" y="666.5087482161308" type="line"/>
      <point x="794.7669844426339" y="683.8349222131699"/>
      <point x="781.5147905852416" y="700.0"/>
      <point x="763.8454907238804" y="700.0" type="curve"/>
    </contour>
    <contour>
      <point x="138.0454907238804" y="0.0" type="line"/>
      <point x="151.39255928491377" y="0.0"/>
      <point x="162.88417414161194" y="9.420870708059688"/>
      <point x="165.50174964322616" y="22.50874821613085" type="curve"/>
      <point x="294.3017496432262" y="666.5087482161308" type="line"/>
      <point x="297.766984442634" y="683.8349222131699"/>
      <point x="284.5147905852416" y="700.0"/>
      <point x="266.8454907238804" y="700.0" type="curve"/>
      <point x="209.9545092761196" y="700.0" type="line"/>
      <point x="196.60744071508623" y="700.0"/>
      <point x="185.11582585838806" y="690.5791292919404"/>
      <point x="182.49825035677384" y="677.4912517838692" type="curve"/>
      <point x="53.698250356773826" y="33.49125178386914" type="line"/>
      <point x="50.233015557366016" y="16.16507778683009"/>
      <point x="63.48520941475838" y="0.0"/>
      <point x="81.15450927611958" y="0.0" type="curve"/>
    </contour>
    <contour>
      <point x="615" y="306" type="line"/>
      <point x="635" y="405" type="line"/>
      <point x="233" y="405" type="line"/>
      <point x="214" y="306" type="line"/>
    </contour>
  </outline>
</glyph>
<glyph name="J" format="2">
  <advance width="520"/>
  <unicode hex="004A"/>
  <anchor x="331" y="700" name="top"/>
  <outline>
    <contour>
      <point x="167" y="-9" type="curve" smooth="yes"/>
      <point x="302" y="-9"/>
      <point x="384" y="52"/>
      <point x="418" y="224" type="curve" smooth="yes"/>
      <point x="506.31803571351315" y="666.5198421013922" type="line"/>
      <point x="509.77536640490194" y="683.8428885129822"/>
      <point x="496.52424467811704" y="700.0"/>
      <point x="478.8595603478574" y="700.0" type="curve"/>
      <point x="172.9090909090909" y="700.0" type="line"/>
      <point x="159.58245812398675" y="700.0"/>
      <point x="148.1024835398046" y="690.6072935220328"/>
      <point x="145.46354635463547" y="677.5445544554456" type="curve"/>
      <point x="136.7766776677668" y="634.5445544554456" type="line"/>
      <point x="133.27341283009616" y="617.2033935089759"/>
      <point x="146.53073479198548" y="601.0"/>
      <point x="164.22222222222223" y="601.0" type="curve"/>
      <point x="346.8805456211407" y="601.0" type="line"/>
      <point x="364.538342339009" y="601.0"/>
      <point x="377.78786072415994" y="584.8547736398566"/>
      <point x="374.3423205768471" y="567.5364007941527" type="curve"/>
      <point x="305" y="219" type="line" smooth="yes"/>
      <point x="287" y="127"/>
      <point x="241" y="90"/>
      <point x="169" y="90" type="curve" smooth="yes"/>
      <point x="117.37618240993515" y="90.0"/>
      <point x="76.49551938546674" y="110.77009882681978"/>
      <point x="48.78250339276404" y="147.46131154812076" type="curve"/>
      <point x="41.03470576137879" y="157.7191662359542"/>
      <point x="25.833962616669805" y="160.18650251602867"/>
      <point x="16.567627606927676" y="151.27656500666123" type="curve"/>
      <point x="-27.29529874363607" y="109.10067428496532" type="line"/>
      <point x="-36.53175094194915" y="100.21947024812582"/>
      <point x="-38.734870558886165" y="86.04196157324644"/>
      <point x="-31.113782961672026" y="75.74114324695384" type="curve"/>
      <point x="8.69035442777817" y="21.941054656790303"/>
      <point x="77.66719870836596" y="-9.0"/>
    </contour>
  </outline>
</glyph>
<glyph name="K" format="2">
  <advance width="724"/>
  <unicode hex="004B"/>
  <anchor x="323" y="0" name="bottom"/>
  <anchor x="463" y="700" name="top"/>
  <outline>
    <contour>
      <point x="186" y="171" type="line"/>
      <point x="354" y="316" type="line"/>
      <point x="426" y="375" type="line"/>
      <point x="751.6136709717134" y="656.4479868771459" type="line"/>
      <point x="768.990217755364" y="671.467608432163"/>
      <point x="758.3680954756883" y="700.0"/>
      <point x="735.4" y="700.0" type="curve"/>
      <point x="664.4154741892032" y="700.0" type="line"/>
      <point x="657.696715842963" y="700.0"/>
      <point x="651.2019632591623" y="697.5840740035057"/>
      <point x="646.1165486630214" y="693.1931433389964" type="curve"/>
      <point x="200" y="308" type="line"/>
    </contour>
    <contour>
      <point x="53.698250356773826" y="33.49125178386914" type="line"/>
      <point x="50.233015557366016" y="16.16507778683009"/>
      <point x="63.48520941475838" y="0.0"/>
      <point x="81.15450927611958" y="0.0" type="curve"/>
      <point x="138.0454907238804" y="0.0" type="line"/>
      <point x="151.39255928491377" y="0.0"/>
      <point x="162.88417414161194" y="9.420870708059688"/>
      <point x="165.50174964322616" y="22.50874821613085" type="curve"/>
      <point x="294.3017496432262" y="666.5087482161308" type="line"/>
      <point x="297.766984442634" y="683.8349222131699"/>
      <point x="284.5147905852416" y="700.0"/>
      <point x="266.8454907238804" y="700.0" type="curve"/>
      <point x="209.9545092761196" y="700.0" type="line"/>
      <point x="196.60744071508623" y="700.0"/>
      <point x="185.11582585838806" y="690.5791292919404"/>
      <point x="182.49825035677384" y="677.4912517838692" type="curve"/>
    </contour>
    <contour>
      <point x="538.6695249715295" y="12.288393028422432" type="line"/>
      <point x="543.8796515544874" y="4.602866937724348"/>
      <point x="552.5608415251478" y="0.0"/>
      <point x="561.8459225857118" y="0.0" type="curve"/>
      <point x="622.2857710889956" y="0.0" type="line"/>
      <point x="644.7286703823222" y="0.0"/>
      <point x="658.0512197824656" y="25.081711384190086"/>
      <point x="645.485542213261" y="43.67707306169423" type="curve"/>
      <point x="402" y="404" type="line"/>
      <point x="326" y="326" type="line"/>
    </contour>
  </outline>
</glyph>
<glyph name="L" format="2">
  <advance width="596"/>
  <unicode hex="004C"/>
  <anchor x="302" y="0" name="bottom"/>
  <anchor x="180" y="379" name="center"/>
  <anchor x="482" y="399" name="dot"/>
  <anchor x="245" y="700" name="top"/>
  <anchor x="524" y="700" name="topright"/>
  <outline>
    <contour>
      <point x="53.698250356773826" y="33.49125178386914" type="line"/>
      <point x="50.233015557366016" y="16.16507778683009"/>
      <point x="63.48520941475838" y="0.0"/>
      <point x="81.15450927611958" y="0.0" type="curve"/>
      <point x="511.0909090909091" y="0.0" type="line"/>
      <point x="524.4175418760133" y="0.0"/>
      <point x="535.8975164601954" y="9.392706477967208"/>
      <point x="538.5364536453645" y="22.45544554455445" type="curve"/>
      <point x="547.2233223322332" y="65.45544554455445" type="line"/>
      <point x="550.7265871699038" y="82.79660649102412"/>
      <point x="537.4692652080145" y="99.0"/>
      <point x="519.7777777777778" y="99.0" type="curve"/>
      <point x="215.14336556271442" y="99.0" type="line"/>
      <point x="197.4777212384032" y="99.0"/>
      <point x="184.22637636476128" y="115.15876829351278"/>
      <point x="187.68535084864814" y="132.48246550031274" type="curve"/>
      <point x="294.3146491513519" y="666.5175344996873" type="line"/>
      <point x="297.7736236352387" y="683.8412317064872"/>
      <point x="284.5222787615968" y="700.0"/>
      <point x="266.8566344372856" y="700.0" type="curve"/>
      <point x="209.9545092761196" y="700.0" type="line"/>
      <point x="196.6074407150862" y="700.0"/>
      <point x="185.11582585838806" y="690.5791292919403"/>
      <point x="182.49825035677384" y="677.4912517838692" type="curve"/>
    </contour>
  </outline>
</glyph>
<glyph name="M" format="2">
  <advance width="955"/>
  <unicode hex="004D"/>
  <anchor x="425" y="0" name="bottom"/>
  <anchor x="565" y="700" name="top"/>
  <outline>
    <contour>
      <point x="53.698250356773826" y="33.49125178386914" type="line"/>
      <point x="50.233015557366016" y="16.16507778683009"/>
      <point x="63.48520941475838" y="0.0"/>
      <point x="81.15450927611958" y="0.0" type="curve"/>
      <point x="134.0369303559558" y="0.0" type="line"/>
      <point x="147.38784776783672" y="0.0"/>
      <point x="158.8816517714606" y="9.426179350364631"/>
      <point x="161.4951952102162" y="22.51878743403547" type="curve"/>
      <point x="259.943496853769" y="515.697898524595" type="line"/>
      <point x="261.0709148200301" y="521.345725669865"/>
      <point x="257.324086116614" y="526.8132024145019"/>
      <point x="251.65" y="527.8" type="curve"/>
      <point x="249.35" y="528.2" type="line"/>
      <point x="244.84818170082713" y="528.9829249215953"/>
      <point x="241.24468501548458" y="524.5048148254804"/>
      <point x="242.97260056180872" y="520.2747264934956" type="curve"/>
      <point x="414.88759092414" y="99.41179926767906" type="line"/>
      <point x="419.18901842280286" y="88.8815286698596"/>
      <point x="429.43350887948895" y="82.0"/>
      <point x="440.808432061188" y="82.0" type="curve"/>
      <point x="460.4286317210535" y="82.0" type="line"/>
      <point x="468.9993679192278" y="82.0"/>
      <point x="477.0980423454216" y="85.92536047175581"/>
      <point x="482.40787183187354" y="92.65315578697613" type="curve"/>
      <point x="818.1740319702606" y="518.0841427805007" type="line"/>
      <point x="821.5004029877426" y="522.2988060583331"/>
      <point x="818.7555387219835" y="528.5174615198583"/>
      <point x="813.4" y="528.9" type="curve"/>
      <point x="810.6" y="529.1" type="line"/>
      <point x="803.3986212021825" y="529.6143841998442"/>
      <point x="796.9385458010173" y="524.6927290050868"/>
      <point x="795.5226409843731" y="517.6132049218656" type="curve"/>
      <point x="698.6982503567739" y="33.491251783869146" type="line"/>
      <point x="695.233015557366" y="16.165077786830093"/>
      <point x="708.4852094147584" y="0.0"/>
      <point x="726.1545092761196" y="0.0" type="curve"/>
      <point x="779.0454907238804" y="0.0" type="line"/>
      <point x="792.3925592849138" y="0.0"/>
      <point x="803.884174141612" y="9.420870708059686"/>
      <point x="806.5017496432262" y="22.50874821613085" type="curve"/>
      <point x="935.3017496432261" y="666.5087482161308" type="line"/>
      <point x="938.766984442634" y="683.8349222131699"/>
      <point x="925.5147905852416" y="700.0"/>
      <point x="907.8454907238804" y="700.0" type="curve"/>
      <point x="856.6828056288961" y="700.0" type="line"/>
      <point x="848.0488156863742" y="700.0"/>
      <point x="839.8976761271871" y="696.0167693484871"/>
      <point x="834.5923857818489" y="689.2050385347195" type="curve"/>
      <point x="451.55178907836495" y="197.3998279524686" type="line"/>
      <point x="445.9596729110706" y="190.21982694754743"/>
      <point x="450.95111565522404" y="179.73569151724033"/>
      <point x="460.05" y="179.55" type="curve"/>
      <point x="464.95" y="179.45" type="line"/>
      <point x="475.42033101140584" y="179.23631977527742"/>
      <point x="482.7234689411633" y="189.76363614325575"/>
      <point x="478.85663165844966" y="199.4961106567523" type="curve"/>
      <point x="287.0170884567003" y="682.3386324350682" type="line"/>
      <point x="282.7808305965493" y="693.0009046338058"/>
      <point x="272.4687082946028" y="700.0"/>
      <point x="260.99569957423375" y="700.0" type="curve"/>
      <point x="209.9545092761196" y="700.0" type="line"/>
      <point x="196.6074407150862" y="700.0"/>
      <point x="185.11582585838806" y="690.5791292919403"/>
      <point x="182.49825035677384" y="677.4912517838692" type="curve"/>
    </contour>
  </outline>
</glyph>
<glyph name="N" format="2">
  <advance width="811"/>
  <unicode hex="004E"/>
  <anchor x="353" y="0" name="bottom"/>
  <anchor x="493" y="700" name="top"/>
  <outline>
    <contour>
      <point x="53.698250356773826" y="33.49125178386914" type="line"/>
      <point x="50.233015557366016" y="16.16507778683009"/>
      <point x="63.48520941475838" y="0.0"/>
      <point x="81.15450927611958" y="0.0" type="curve"/>
      <point x="138.0454907238804" y="0.0" type="line"/>
      <point x="151.39255928491377" y="0.0"/>
      <point x="162.88417414161194" y="9.420870708059688"/>
      <point x="165.50174964322616" y="22.50874821613085" type="curve"/>
      <point x="272" y="555" type="line"/>
      <point x="237" y="560" type="line"/>
      <point x="555.8945609774911" y="13.880874166987816" type="line"/>
      <point x="560.9140307617089" y="5.284840285758587"/>
      <point x="570.1198646215138" y="0.0"/>
      <point x="580.0741036884599" y="0.0" type="curve"/>
      <point x="635.0454907238804" y="0.0" type="line"/>
      <point x="648.3925592849139" y="0.0"/>
      <point x="659.8841741416119" y="9.420870708059688"/>
      <point x="662.5017496432262" y="22.50874821613085" type="curve"/>
      <point x="791.3017496432261" y="666.5087482161308" type="line"/>
      <point x="794.7669844426339" y="683.8349222131699"/>
      <point x="781.5147905852416" y="700.0"/>
      <point x="763.8454907238804" y="700.0" type="curve"/>
      <point x="706.9545092761196" y="700.0" type="line"/>
      <point x="693.6074407150861" y="700.0"/>
      <point x="682.1158258583881" y="690.5791292919404"/>
      <point x="679.4982503567738" y="677.4912517838692" type="curve"/>
      <point x="573" y="145" type="line"/>
      <point x="608" y="140" type="line"/>
      <point x="289.10543902250896" y="686.1191258330122" type="line"/>
      <point x="284.08596923829117" y="694.7151597142414"/>
      <point x="274.8801353784862" y="700.0"/>
      <point x="264.9258963115401" y="700.0" type="curve"/>
      <point x="209.9545092761196" y="700.0" type="line"/>
      <point x="196.60744071508623" y="700.0"/>
      <point x="185.11582585838806" y="690.5791292919404"/>
      <point x="182.49825035677384" y="677.4912517838692" type="curve"/>
    </contour>
  </outline>
</glyph>
<glyph name="P" format="2">
  <advance width="724"/>
  <unicode hex="0050"/>
  <outline>
    <contour>
      <point x="53.698250356773826" y="33.49125178386914" type="line"/>
      <point x="50.233015557366016" y="16.16507778683009"/>
      <point x="63.48520941475838" y="0.0"/>
      <point x="81.15450927611958" y="0.0" type="curve"/>
      <point x="138.0969682786906" y="0.0" type="line"/>
      <point x="151.42087283995392" y="0.0"/>
      <point x="162.89929127950842" y="9.388949343984986"/>
      <point x="165.5410743271079" y="22.448329692495737" type="curve"/>
      <point x="214" y="262" type="line"/>
      <point x="153" y="207" type="line"/>
      <point x="382" y="207" type="line" smooth="yes"/>
      <point x="586" y="207"/>
      <point x="713" y="313"/>
      <point x="713" y="492" type="curve" smooth="yes"/>
      <point x="713" y="623"/>
      <point x="617" y="700"/>
      <point x="451" y="700" type="curve" smooth="yes"/>
      <point x="209.9545092761196" y="700.0" type="line"/>
      <point x="196.60744071508623" y="700.0"/>
      <point x="185.11582585838806" y="690.5791292919404"/>
      <point x="182.49825035677384" y="677.4912517838692" type="curve"/>
    </contour>
    <contour>
      <point x="211" y="249" type="line"/>
      <point x="293" y="659" type="line"/>
      <point x="233" y="601" type="line"/>
      <point x="440" y="601" type="line" smooth="yes"/>
      <point x="541" y="601"/>
      <point x="598" y="561"/>
      <point x="598" y="481" type="curve" smooth="yes"/>
      <point x="598" y="366"/>
      <point x="520" y="306"/>
      <point x="385" y="306" type="curve" smooth="yes"/>
      <point x="171" y="306" type="line"/>
    </contour>
  </outline>
</glyph>
<glyph name="Q" format="2">
  <advance width="841"/>
  <unicode hex="0051"/>
  <anchor x="508" y="700" name="top"/>
  <outline>
    <contour>
      <point x="390" y="-9" type="curve" smooth="yes"/>
      <point x="648" y="-9"/>
      <point x="817" y="177"/>
      <point x="817" y="412" type="curve" smooth="yes"/>
      <point x="817" y="588"/>
      <point x="695" y="709"/>
      <point x="485" y="709" type="curve" smooth="yes"/>
      <point x="227" y="709"/>
      <point x="58" y="523"/>
      <point x="58" y="288" type="curve" smooth="yes"/>
      <point x="58" y="112"/>
      <point x="180" y="-9"/>
    </contour>
    <contour>
      <point x="591" y="-150" type="curve" smooth="yes"/>
      <point x="652.5195684533905" y="-150.0"/>
      <point x="710.8594206264271" y="-130.9217023178757"/>
      <point x="751.8445729414573" y="-92.05635777474453" type="curve"/>
      <point x="760.7590245726674" y="-83.60297369562764"/>
      <point x="761.4432132842356" y="-69.9666987647985"/>
      <point x="754.7632202580626" y="-59.656274746140014" type="curve"/>
      <point x="731.7702724081106" y="-24.16715958643153" type="line"/>
      <point x="725.7795755497569" y="-14.920649218103087"/>
      <point x="712.6925351381902" y="-13.781380187492035"/>
      <point x="704.1767044177049" y="-20.771875876663888" type="curve"/>
      <point x="673.0630629618577" y="-46.31251702026102"/>
      <point x="633.8917284014483" y="-60.0"/>
      <point x="594" y="-60" type="curve" smooth="yes"/>
      <point x="532" y="-60"/>
      <point x="488" y="-31"/>
      <point x="453" y="43" type="curve"/>
      <point x="325" y="16" type="line"/>
      <point x="388" y="-91"/>
      <point x="478" y="-150"/>
    </contour>
    <contour>
      <point x="400" y="93" type="curve" smooth="yes"/>
      <point x="252" y="93"/>
      <point x="173" y="175"/>
      <point x="173" y="295" type="curve" smooth="yes"/>
      <point x="173" y="464"/>
      <point x="290" y="607"/>
      <point x="475" y="607" type="curve" smooth="yes"/>
      <point x="623" y="607"/>
      <point x="702" y="525"/>
      <point x="702" y="405" type="curve" smooth="yes"/>
      <point x="702" y="236"/>
      <point x="585" y="93"/>
    </contour>
  </outline>
</glyph>
<glyph name="R" format="2">
  <advance width="729"/>
  <unicode hex="0052"/>
  <anchor x="318" y="0" name="bottom"/>
  <anchor x="458" y="700" name="top"/>
  <outline>
    <contour>
      <point x="53.698250356773826" y="33.49125178386914" type="line"/>
      <point x="50.233015557366016" y="16.16507778683009"/>
      <point x="63.48520941475838" y="0.0"/>
      <point x="81.15450927611958" y="0.0" type="curve"/>
      <point x="139.0110954460397" y="0.0" type="line"/>
      <point x="152.3736230938718" y="0.0"/>
      <point x="163.87402466959335" y="9.442201219874201"/>
      <point x="166.47538826717064" y="22.549071653821333" type="curve"/>
      <point x="214" y="262" type="line"/>
      <point x="155" y="209" type="line"/>
      <point x="384" y="209" type="line" smooth="yes"/>
      <point x="588" y="209"/>
      <point x="715" y="315"/>
      <point x="715" y="492" type="curve" smooth="yes"/>
      <point x="715" y="623"/>
      <point x="619" y="700"/>
      <point x="453" y="700" type="curve" smooth="yes"/>
      <point x="209.9545092761196" y="700.0" type="line"/>
      <point x="196.60744071508623" y="700.0"/>
      <point x="185.11582585838806" y="690.5791292919404"/>
      <point x="182.49825035677384" y="677.4912517838692" type="curve"/>
    </contour>
    <contour>
      <point x="503.96972526099717" y="14.263564921025987" type="line"/>
      <point x="508.93049567910685" y="5.452126555991953"/>
      <point x="518.2567995619593" y="0.0"/>
      <point x="528.3687078488251" y="0.0" type="curve"/>
      <point x="586.1037330960568" y="0.0" type="line"/>
      <point x="607.5235109360216" y="0.0"/>
      <point x="621.010979530482" y="23.07140698781525"/>
      <point x="610.5027156838847" y="41.73643507897401" type="curve"/>
      <point x="491" y="254" type="line"/>
      <point x="369" y="254" type="line"/>
    </contour>
    <contour>
      <point x="211" y="249" type="line"/>
      <point x="294" y="659" type="line"/>
      <point x="235" y="601" type="line"/>
      <point x="442" y="601" type="line" smooth="yes"/>
      <point x="543" y="601"/>
      <point x="600" y="561"/>
      <point x="600" y="481" type="curve" smooth="yes"/>
      <point x="600" y="366"/>
      <point x="522" y="306"/>
      <point x="387" y="306" type="curve" smooth="yes"/>
      <point x="173" y="306" type="line"/>
    </contour>
  </outline>
</glyph>
<glyph name="S" format="2">
  <advance width="625"/>
  <unicode hex="0053"/>
  <anchor x="268" y="0" name="bottom"/>
  <anchor x="408" y="700" name="top"/>
  <outline>
    <contour>
      <point x="269" y="-9" type="curve" smooth="yes"/>
      <point x="448" y="-9"/>
      <point x="571" y="76"/>
      <point x="571" y="213" type="curve" smooth="yes"/>
      <point x="571" y="428"/>
      <point x="213" y="360"/>
      <point x="215" y="500" type="curve" smooth="yes"/>
      <point x="216" y="567"/>
      <point x="284" y="612"/>
      <point x="394" y="612" type="curve" smooth="yes"/>
      <point x="453.58469601588604" y="612.0"/>
      <point x="511.72027529736164" y="598.2333910231009"/>
      <point x="559.772219833289" y="571.9336756423226" type="curve"/>
      <point x="572.889003358251" y="564.754618129679"/>
      <point x="589.8833873066299" y="569.1590004337017"/>
      <point x="596.3962813332773" y="582.6189814221066" type="curve"/>
      <point x="618.2878316134827" y="627.8615186678642" type="line"/>
      <point x="624.4152495945193" y="640.5248491620064"/>
      <point x="620.2412771566032" y="655.893182880309"/>
      <point x="607.8381090789022" y="662.531451627091" type="curve"/>
      <point x="551.6767999512745" y="692.5894062419732"/>
      <point x="477.79204208968804" y="709.0"/>
      <point x="400" y="709" type="curve" smooth="yes"/>
      <point x="224" y="709"/>
      <point x="102" y="623"/>
      <point x="102" y="489" type="curve" smooth="yes"/>
      <point x="102" y="262"/>
      <point x="458" y="334"/>
      <point x="458" y="196" type="curve" smooth="yes"/>
      <point x="458" y="128"/>
      <point x="387" y="88"/>
      <point x="279" y="88" type="curve" smooth="yes"/>
      <point x="205.61873021078372" y="88.0"/>
      <point x="132.23746042156745" y="109.84212042676208"/>
      <point x="78.11467066566442" y="146.07146578351984" type="curve"/>
      <point x="64.1110759811726" y="155.44535560606317"/>
      <point x="44.360466620809746" y="151.94325858228993"/>
      <point x="36.31368742420753" y="137.13718486054185" type="curve"/>
      <point x="12.728513492320646" y="93.74046482586999" type="line"/>
      <point x="6.460388572737603" y="82.2071149738372"/>
      <point x="8.980462196414168" y="67.73227369801775"/>
      <point x="19.740699415149173" y="60.213973104570265" type="curve"/>
      <point x="77.09465474002" y="20.14010971383077"/>
      <point x="171.83315613193372" y="-9.0"/>
    </contour>
  </outline>
</glyph>
<glyph name="T" format="2">
  <advance width="594"/>
  <unicode hex="0054"/>
  <anchor x="244" y="0" name="bottom"/>
  <anchor x="311" y="336" name="center"/>
  <anchor x="384" y="700" name="top"/>
  <outline>
    <contour>
      <point x="193.68535084864814" y="33.48246550031273" type="line"/>
      <point x="190.22637636476128" y="16.15876829351278"/>
      <point x="203.4777212384032" y="0.0"/>
      <point x="221.14336556271442" y="0.0" type="curve"/>
      <point x="278.03799882996447" y="0.0" type="line"/>
      <point x="291.3884358915541" y="0.0"/>
      <point x="302.88196673673565" y="9.42551673981781"/>
      <point x="305.49601354403075" y="22.51753449968726" type="curve"/>
      <point x="416.50398645596925" y="578.4824655003127" type="line"/>
      <point x="419.11803326326435" y="591.5744832601822"/>
      <point x="430.6115641084459" y="601.0"/>
      <point x="443.96200117003553" y="601.0" type="curve"/>
      <point x="634.0909090909091" y="601.0" type="line"/>
      <point x="647.4175418760133" y="601.0"/>
      <point x="658.8975164601954" y="610.3927064779672"/>
      <point x="661.5364536453645" y="623.4554455445544" type="curve"/>
      <point x="670.2233223322332" y="666.4554455445544" type="line"/>
      <point x="673.7265871699038" y="683.7966064910241"/>
      <point x="660.4692652080145" y="700.0"/>
      <point x="642.7777777777778" y="700.0" type="curve"/>
      <point x="113.9090909090909" y="700.0" type="line"/>
      <point x="100.58245812398675" y="700.0"/>
      <point x="89.10248353980461" y="690.6072935220328"/>
      <point x="86.46354635463547" y="677.5445544554456" type="curve"/>
      <point x="77.77667766776678" y="634.5445544554456" type="line"/>
      <point x="74.27341283009613" y="617.2033935089759"/>
      <point x="87.53073479198548" y="601.0"/>
      <point x="105.22222222222223" y="601.0" type="curve"/>
      <point x="272.8566344372856" y="601.0" type="line"/>
      <point x="290.5222787615968" y="601.0"/>
      <point x="303.7736236352387" y="584.8412317064872"/>
      <point x="300.3146491513519" y="567.5175344996873" type="curve"/>
    </contour>
  </outline>
</glyph>
<glyph name="U" format="2">
  <advance width="790"/>
  <unicode hex="0055"/>
  <anchor x="342" y="0" name="bottom"/>
  <anchor x="546" y="0" name="ogonek"/>
  <anchor x="482" y="700" name="top"/>
  <anchor x="745" y="700" name="topright"/>
  <outline>
    <contour>
      <point x="362" y="-9" type="curve" smooth="yes"/>
      <point x="546" y="-9"/>
      <point x="661" y="93"/>
      <point x="702" y="298" type="curve"/>
      <point x="775.3403034130013" y="666.5350246503314" type="line"/>
      <point x="778.786823113611" y="683.8537861458957"/>
      <point x="765.5371713388708" y="700.0"/>
      <point x="747.8788022809161" y="700.0" type="curve"/>
      <point x="692.9430869165766" y="700.0" type="line"/>
      <point x="679.6011553997529" y="700.0"/>
      <point x="668.1124639533556" y="690.5862126281277"/>
      <point x="665.4895112334658" y="677.504650961842" type="curve"/>
      <point x="591" y="306" type="line"/>
      <point x="561" y="158"/>
      <point x="490" y="93"/>
      <point x="373" y="93" type="curve" smooth="yes"/>
      <point x="247" y="93"/>
      <point x="188" y="163"/>
      <point x="216" y="305" type="curve"/>
      <point x="288.3017496432262" y="666.5087482161308" type="line"/>
      <point x="291.766984442634" y="683.8349222131699"/>
      <point x="278.5147905852416" y="700.0"/>
      <point x="260.8454907238804" y="700.0" type="curve"/>
      <point x="203.96588069813617" y="700.0" type="line"/>
      <point x="190.61369959719144" y="700.0"/>
      <point x="179.1191770524838" y="690.5720773770074"/>
      <point x="176.50695806642503" y="677.477916383599" type="curve"/>
      <point x="102" y="304" type="line"/>
      <point x="64" y="112"/>
      <point x="166" y="-9"/>
    </contour>
  </outline>
</glyph>
<glyph name="V" format="2">
  <advance width="720"/>
  <unicode hex="0056"/>
  <outline>
    <contour>
      <point x="245.87015308982484" y="21.502352318099533" type="line"/>
      <point x="248.87786309529915" y="8.8951846304827"/>
      <point x="260.14482228655476" y="0.0"/>
      <point x="273.1058020558747" y="0.0" type="curve"/>
      <point x="347.6581036062057" y="0.0" type="line"/>
      <point x="357.21569995996725" y="0.0"/>
      <point x="366.1131059915985" y="4.875110053957355"/>
      <point x="371.2569972607669" y="12.930420766301651" type="curve"/>
      <point x="782.4969972607669" y="656.9304207663016" type="line"/>
      <point x="794.3989058525037" y="675.5687563685741"/>
      <point x="781.0124198323294" y="700.0"/>
      <point x="758.8981036062057" y="700.0" type="curve"/>
      <point x="706.2823227558318" y="700.0" type="line"/>
      <point x="696.7572960673792" y="700.0"/>
      <point x="687.8855495625951" y="695.1578252323559"/>
      <point x="682.7329183292932" y="687.146800030215" type="curve"/>
      <point x="280" y="61" type="line"/>
      <point x="352" y="61" type="line"/>
      <point x="207.0706961942524" y="678.3988342124848" type="line"/>
      <point x="204.1000559475753" y="691.0537616633293"/>
      <point x="192.81058133724096" y="700.0"/>
      <point x="179.8116624490674" y="700.0" type="curve"/>
      <point x="119.46580205587469" y="700.0" type="line"/>
      <point x="101.37426956260825" y="700.0"/>
      <point x="88.03185294100697" y="683.1000176125456"/>
      <point x="92.23015308982482" y="665.5023523180995" type="curve"/>
    </contour>
  </outline>
</glyph>
<glyph name="W" format="2">
  <advance width="1135"/>
  <unicode hex="0057"/>
  <anchor x="514" y="0" name="bottom"/>
  <anchor x="654" y="700" name="top"/>
  <outline>
    <contour>
      <point x="205.76992365861102" y="24.312402569594507" type="line"/>
      <point x="207.6188135899291" y="10.396026742469262"/>
      <point x="219.48737564548446" y="0.0"/>
      <point x="233.52603334983516" y="0.0" type="curve"/>
      <point x="314.4282207209676" y="0.0" type="line"/>
      <point x="324.64816660587337" y="0.0"/>
      <point x="334.0563001824921" y="5.568196894977847"/>
      <point x="338.9738130539694" y="14.527290657700554" type="curve"/>
      <point x="651" y="583" type="line"/>
      <point x="617" y="583" type="line"/>
      <point x="694.6451287713988" y="24.146789213265357" type="line"/>
      <point x="696.568308048213" y="10.304647011010735"/>
      <point x="708.4036287835709" y="0.0"/>
      <point x="722.3787323351803" y="0.0" type="curve"/>
      <point x="803.1929389952363" y="0.0" type="line"/>
      <point x="813.5374001941241" y="0.0"/>
      <point x="823.039108762365" y="5.703421269854038"/>
      <point x="827.9037056143783" y="14.832691501514295" type="curve"/>
      <point x="1171.0637056143783" y="658.8326915015143" type="line"/>
      <point x="1181.0018276523083" y="677.4833226718926"/>
      <point x="1167.4861430280912" y="700.0"/>
      <point x="1146.3529389952362" y="700.0" type="curve"/>
      <point x="1095.7366689242795" y="700.0" type="line"/>
      <point x="1085.429386279141" y="700.0"/>
      <point x="1075.9555348715026" y="694.3371173411618"/>
      <point x="1071.0747949034437" y="685.2586564093208" type="curve"/>
      <point x="736" y="62" type="line"/>
      <point x="792" y="62" type="line"/>
      <point x="710.237762629361" y="675.6977346172671" type="line"/>
      <point x="708.3843039251697" y="689.609577596962"/>
      <point x="696.5177686024972" y="700.0"/>
      <point x="682.4830016197565" y="700.0" type="curve"/>
      <point x="617.6675633581106" y="700.0" type="line"/>
      <point x="607.3968414155403" y="700.0"/>
      <point x="597.9504532992651" y="694.3768474130958"/>
      <point x="593.0541233483551" y="685.3483546134411" type="curve"/>
      <point x="255" y="62" type="line"/>
      <point x="313" y="62" type="line"/>
      <point x="232.20530077427148" y="675.6549774525571" type="line"/>
      <point x="230.3711315311456" y="689.5859295610607"/>
      <point x="218.49605479912944" y="700.0"/>
      <point x="204.4448767893735" y="700.0" type="curve"/>
      <point x="147.96603334983516" y="700.0" type="line"/>
      <point x="131.037199707574" y="700.0"/>
      <point x="117.98039782150515" y="685.0937798381333"/>
      <point x="120.20992365861102" y="668.3124025695945" type="curve"/>
    </contour>
  </outline>
</glyph>
<glyph name="X" format="2">
  <advance width="683"/>
  <unicode hex="0058"/>
  <outline>
    <contour>
      <point x="1.0115782544781737" y="45.11928404316559" type="line"/>
      <point x="-14.966832281109628" y="27.958908892616503"/>
      <point x="-2.7975601833403125" y="0.0"/>
      <point x="20.65" y="0.0" type="curve"/>
      <point x="83.67291884409185" y="0.0" type="line"/>
      <point x="91.52723223644578" y="0.0"/>
      <point x="99.02041876007056" y="3.2988970854671447"/>
      <point x="104.32436405118219" y="9.09185860909261" type="curve"/>
      <point x="378" y="308" type="line"/>
      <point x="327" y="311" type="line"/>
      <point x="487.0634040930925" y="14.69215075623947" type="line"/>
      <point x="491.9527261715592" y="5.6410842895541204"/>
      <point x="501.4115294390149" y="0.0"/>
      <point x="511.69876787172063" y="0.0" type="curve"/>
      <point x="569.7180958762782" y="0.0" type="line"/>
      <point x="590.9981004533503" y="0.0"/>
      <point x="604.5003091431112" y="22.80036202599151"/>
      <point x="594.270538115446" y="41.460222141269675" type="curve"/>
      <point x="401" y="394" type="line"/>
      <point x="398" y="329" type="line"/>
      <point x="701.9187017981" y="656.7727859508577" type="line"/>
      <point x="717.189126850656" y="673.2417618069574"/>
      <point x="705.5091417252423" y="700.0"/>
      <point x="683.05" y="700.0" type="curve"/>
      <point x="623.2210118228551" y="700.0" type="line"/>
      <point x="615.4286181244308" y="700.0"/>
      <point x="607.9886974812138" y="696.7527372092193"/>
      <point x="602.6901474341932" y="691.0390022704546" type="curve"/>
      <point x="343" y="411" type="line"/>
      <point x="394" y="407" type="line"/>
      <point x="242.94736001136076" y="685.3548648847252" type="line"/>
      <point x="238.04990865833867" y="694.379728069854"/>
      <point x="228.60551805124157" y="700.0"/>
      <point x="218.33745176466599" y="700.0" type="curve"/>
      <point x="161.227754114881" y="700.0" type="line"/>
      <point x="139.96017653883612" y="700.0"/>
      <point x="126.45674754413658" y="677.2236919903777"/>
      <point x="136.6617954313806" y="658.5644622749757" type="curve"/>
      <point x="318" y="327" type="line"/>
      <point x="324" y="392" type="line"/>
    </contour>
  </outline>
</glyph>
<glyph name="Y" format="2">
  <advance width="654"/>
  <unicode hex="0059"/>
  <anchor x="273" y="0" name="bottom"/>
  <anchor x="319" y="235" name="center"/>
  <anchor x="414" y="700" name="top"/>
  <anchor x="138" y="700" name="topleft"/>
  <outline>
    <contour>
      <point x="222.69825035677383" y="33.49125178386914" type="line"/>
      <point x="219.23301555736603" y="16.16507778683009"/>
      <point x="232.48520941475837" y="0.0"/>
      <point x="250.1545092761196" y="0.0" type="curve"/>
      <point x="307.0454907238804" y="0.0" type="line"/>
      <point x="320.3925592849138" y="0.0"/>
      <point x="331.88417414161194" y="9.420870708059686"/>
      <point x="334.50174964322616" y="22.50874821613085" type="curve"/>
      <point x="377.38264885530816" y="236.9132442765407" type="line"/>
      <point x="378.5930549139125" y="242.96527456956258"/>
      <point x="370.2387156473428" y="245.8559257652666"/>
      <point x="367.45" y="240.35" type="curve"/>
      <point x="363.55" y="232.65" type="line"/>
      <point x="361.3761928982854" y="228.35812444020453"/>
      <point x="367.23900886518646" y="224.5884849135252"/>
      <point x="370.2416707470929" y="228.34742821705888" type="curve"/>
      <point x="713.0163687812731" y="657.4569005690751" type="line"/>
      <point x="726.7192543416639" y="674.6111363578934"/>
      <point x="714.5053382615606" y="700.0"/>
      <point x="692.55" y="700.0" type="curve"/>
      <point x="639.4014361422469" y="700.0" type="line"/>
      <point x="630.9274468566738" y="700.0"/>
      <point x="622.9093389558877" y="696.1623513923561"/>
      <point x="617.5941667511032" y="689.5625454220647" type="curve"/>
      <point x="313.3487586937512" y="311.7835039973769" type="line"/>
      <point x="306.0549424869739" y="302.7268319098075"/>
      <point x="312.62283068522277" y="289.2711204720803"/>
      <point x="324.25" y="289.45" type="curve"/>
      <point x="330.75" y="289.55" type="line"/>
      <point x="344.8338698806494" y="289.76667492124074"/>
      <point x="354.30770144591474" y="304.0592916094877"/>
      <point x="349.0216072658802" y="317.11530735535604" type="curve"/>
      <point x="201.08213202131876" y="682.5079871762609" type="line"/>
      <point x="196.80145029606436" y="693.0807552928532"/>
      <point x="186.53514426939816" y="700.0"/>
      <point x="175.12866971850573" y="700.0" type="curve"/>
      <point x="122.55650010513975" y="700.0" type="line"/>
      <point x="102.69404427648873" y="700.0"/>
      <point x="89.14683692199866" y="679.8937670053136"/>
      <point x="96.60585131526199" y="661.4850664583928" type="curve"/>
      <point x="270.9702241684626" y="231.1572300078829" type="line"/>
      <point x="272.65755157293285" y="226.99293922148092"/>
      <point x="278.90756217480424" y="228.7711749780676"/>
      <point x="278.15" y="233.2" type="curve"/>
      <point x="276.85" y="240.8" type="line"/>
      <point x="275.6468760568729" y="247.83364766751228"/>
      <point x="265.59485944059236" y="247.97429720296168"/>
      <point x="264.1954130289816" y="240.9770651449078" type="curve"/>
    </contour>
  </outline>
</glyph>
<glyph name="Z" format="2">
  <advance width="660"/>
  <unicode hex="005A"/>
  <anchor x="289.99" y="0" name="bottom"/>
  <anchor x="424" y="700" name="top"/>
  <outline>
    <contour>
      <point x="-6.1022695334979975" y="33.62643602419726" type="line"/>
      <point x="-9.664126664701099" y="16.262382509582142"/>
      <point x="3.6009980361760654" y="0.0"/>
      <point x="21.32660608446372" y="0.0" type="curve"/>
      <point x="556.0909090909091" y="0.0" type="line"/>
      <point x="569.4175418760133" y="0.0"/>
      <point x="580.8975164601954" y="9.392706477967213"/>
      <point x="583.5364536453645" y="22.455445544554458" type="curve"/>
      <point x="592.2233223322332" y="65.45544554455445" type="line"/>
      <point x="595.7265871699038" y="82.79660649102412"/>
      <point x="582.4692652080146" y="99.0"/>
      <point x="564.7777777777778" y="99.0" type="curve"/>
      <point x="112" y="99" type="line"/>
      <point x="122" y="55" type="line"/>
      <point x="686.014330290184" y="616.0458338149725" type="line"/>
      <point x="689.917978019866" y="619.9289360302878"/>
      <point x="692.5901097451873" y="624.8767850077885"/>
      <point x="693.6965248498519" y="630.2705586430283" type="curve"/>
      <point x="701.102269533498" y="666.3735639758028" type="line"/>
      <point x="704.664126664701" y="683.7376174904178"/>
      <point x="691.3990019638239" y="700.0"/>
      <point x="673.6733939155363" y="700.0" type="curve"/>
      <point x="160.9090909090909" y="700.0" type="line"/>
      <point x="147.58245812398675" y="700.0"/>
      <point x="136.1024835398046" y="690.6072935220328"/>
      <point x="133.46354635463547" y="677.5445544554456" type="curve"/>
      <point x="124.77667766776678" y="634.5445544554456" type="line"/>
      <point x="121.27341283009613" y="617.2033935089759"/>
      <point x="134.53073479198548" y="601.0"/>
      <point x="152.22222222222223" y="601.0" type="curve"/>
      <point x="583" y="601" type="line"/>
      <point x="573" y="645" type="line"/>
      <point x="8.985669709816015" y="83.9541661850275" type="line"/>
      <point x="5.082021980134032" y="80.07106396971227"/>
      <point x="2.4098902548126224" y="75.12321499221153"/>
      <point x="1.303475150148057" y="69.72944135697178" type="curve"/>
    </contour>
  </outline>
</glyph>
<glyph name="bracketleft" format="2">
  <advance width="342"/>
  <unicode hex="005B"/>
  <outline>
    <contour>
      <point x="12.689967026538177" y="-160.51438964256826" type="line"/>
      <point x="9.228752075394656" y="-177.8389735691476"/>
      <point x="22.480400943638323" y="-194.0"/>
      <point x="40.14735362844254" y="-194.0" type="curve"/>
      <point x="207.94737686371974" y="-194.0" type="line"/>
      <point x="221.33850460385597" y="-194.0"/>
      <point x="232.85511925110123" y="-184.51827938326034"/>
      <point x="235.42637119980031" y="-171.37632497879838" type="curve"/>
      <point x="242.46984946066988" y="-135.37632497879838" type="line"/>
      <point x="245.85338671939775" y="-118.08269010085594"/>
      <point x="232.61237979394713" y="-102.0"/>
      <point x="214.9908551245893" y="-102.0" type="curve"/>
      <point x="170.1366985156285" y="-102.0" type="line"/>
      <point x="152.47324177133927" y="-102.0"/>
      <point x="139.22240550852672" y="-85.84500705058608"/>
      <point x="142.67763436405474" y="-68.52279305487227" type="curve"/>
      <point x="281.50742159809727" y="627.4772069451277" type="line"/>
      <point x="284.1193554827539" y="640.5717021535397"/>
      <point x="295.61403266490265" y="650.0"/>
      <point x="308.96648574967105" y="650.0" type="curve"/>
      <point x="375.94737686371974" y="650.0" type="line"/>
      <point x="389.338504603856" y="650.0"/>
      <point x="400.85511925110126" y="659.4817206167396"/>
      <point x="403.4263711998003" y="672.6236750212016" type="curve"/>
      <point x="410.4698494606699" y="708.6236750212016" type="line"/>
      <point x="413.85338671939775" y="725.917309899144"/>
      <point x="400.6123797939471" y="742.0"/>
      <point x="382.9908551245893" y="742.0" type="curve"/>
      <point x="215.95931944040836" y="742.0" type="line"/>
      <point x="202.61008805696372" y="742.0"/>
      <point x="191.11724290781746" y="732.576146319343"/>
      <point x="188.501932838504" y="719.4856103574317" type="curve"/>
    </contour>
  </outline>
</glyph>
<glyph name="backslash" format="2">
  <advance width="361"/>
  <unicode hex="005C"/>
  <outline>
    <contour>
      <point x="284.3259890597973" y="-100.0" type="line"/>
      <point x="301.49940491380795" y="-100.0"/>
      <point x="314.62591785015917" y="-84.68229188253387"/>
      <point x="311.9956252837067" y="-67.71150011816266" type="curve"/>
      <point x="174.67503080387658" y="818.2884998818373" type="line"/>
      <point x="172.5601660084297" y="831.9337234250632"/>
      <point x="160.8135363321229" y="842.0"/>
      <point x="147.00539457996717" y="842.0" type="curve"/>
      <point x="108.67435370711675" y="842.0" type="line"/>
      <point x="91.5008206237111" y="842.0"/>
      <point x="78.3742754891215" y="826.6820936185709"/>
      <point x="81.00476194215325" y="809.7112132764306" type="curve"/>
      <point x="218.33476194215325" y="-76.28878672356934" type="line"/>
      <point x="220.44975134552251" y="-89.93387964853227"/>
      <point x="232.1963219463176" y="-100.0"/>
      <point x="246.00435370711673" y="-100.0" type="curve"/>
    </contour>
  </outline>
</glyph>
<glyph name="bracketright" format="2">
  <advance width="341"/>
  <unicode hex="005D"/>
  <outline>
    <contour>
      <point x="128.04068055959164" y="-194.0" type="line"/>
      <point x="141.38991194303628" y="-194.0"/>
      <point x="152.88275709218254" y="-184.576146319343"/>
      <point x="155.498067161496" y="-171.48561035743174" type="curve"/>
      <point x="331.31003297346183" y="708.5143896425683" type="line"/>
      <point x="334.77124792460535" y="725.8389735691476"/>
      <point x="321.5195990563617" y="742.0"/>
      <point x="303.85264637155746" y="742.0" type="curve"/>
      <point x="136.05262313628026" y="742.0" type="line"/>
      <point x="122.66149539614402" y="742.0"/>
      <point x="111.14488074889876" y="732.5182793832604"/>
      <point x="108.57362880019969" y="719.3763249787984" type="curve"/>
      <point x="101.53015053933012" y="683.3763249787984" type="line"/>
      <point x="98.14661328060225" y="666.082690100856"/>
      <point x="111.38762020605286" y="650.0"/>
      <point x="129.0091448754107" y="650.0" type="curve"/>
      <point x="173.8633014843715" y="650.0" type="line"/>
      <point x="191.52675822866073" y="650.0"/>
      <point x="204.77759449147328" y="633.8450070505861"/>
      <point x="201.32236563594526" y="616.5227930548723" type="curve"/>
      <point x="62.492578401902705" y="-79.47720694512775" type="line"/>
      <point x="59.88064451724607" y="-92.57170215353972"/>
      <point x="48.38596733509735" y="-102.0"/>
      <point x="35.03351425032893" y="-102.0" type="curve"/>
      <point x="-31.699900748378816" y="-102.0" type="line"/>
      <point x="-45.20163523304294" y="-102.0"/>
      <point x="-56.78042654288107" y="-111.6352495261799"/>
      <point x="-59.233779426057524" y="-124.91221807042893" type="curve"/>
      <point x="-65.885953339101" y="-160.91221807042893" type="line"/>
      <point x="-69.06617211797366" y="-178.1228138149163"/>
      <point x="-55.85402876265515" y="-194.0"/>
      <point x="-38.3520746614223" y="-194.0" type="curve"/>
    </contour>
  </outline>
</glyph>
<glyph name="asciicircum" format="2">
  <advance width="587"/>
  <unicode hex="005E"/>
  <outline>
    <contour>
      <point x="68.70345659313023" y="176.72553054900834" type="line"/>
      <point x="59.255382076492324" y="161.60861132238773"/>
      <point x="70.12340865515465" y="142.0"/>
      <point x="87.95" y="142.0" type="curve"/>
      <point x="122.36443416678372" y="142.0" type="line"/>
      <point x="132.08192891139657" y="142.0"/>
      <point x="141.1045811771806" y="147.03836691042443"/>
      <point x="146.20231502015065" y="155.31138412168514" type="curve"/>
      <point x="362.90484907763005" y="506.99388642683175" type="line"/>
      <point x="367.75347284767963" y="514.8626275451751"/>
      <point x="362.09263161934933" y="525.0"/>
      <point x="352.85" y="525.0" type="curve"/>
      <point x="348.15" y="525.0" type="line"/>
      <point x="337.2639242086082" y="525.0"/>
      <point x="329.14880104973946" y="514.9635268042657"/>
      <point x="331.4278524741905" y="504.3186890534762" type="curve"/>
      <point x="404.2602570574155" y="164.13806764646176" type="line"/>
      <point x="407.02477165670393" y="151.22576165222435"/>
      <point x="418.434839960053" y="142.0"/>
      <point x="431.63977036723423" y="142.0" type="curve"/>
      <point x="455.96715496224624" y="142.0" type="line"/>
      <point x="473.92099670073947" y="142.0"/>
      <point x="487.2357056410736" y="158.65900482248287"/>
      <point x="483.2785926882238" y="176.1713344861584" type="curve"/>
      <point x="401.93243884207" y="536.1713344861583" type="line"/>
      <point x="399.04816957834345" y="548.935760163927"/>
      <point x="387.7072370939798" y="558.0"/>
      <point x="374.6210011160924" y="558.0" type="curve"/>
      <point x="322.5189339621981" y="558.0" type="line"/>
      <point x="312.8648130349375" y="558.0"/>
      <point x="303.89165530816626" y="553.0266484930661"/>
      <point x="298.77498145005563" y="544.839970320089" type="curve"/>
    </contour>
  </outline>
</glyph>
<glyph name="underscore" format="2">
  <advance width="500"/>
  <unicode hex="005F"/>
  <outline>
    <contour>
      <point x="-60.7" y="-38.5" type="line"/>
      <point x="-63.959206221545884" y="-54.79603110772942"/>
      <point x="-51.49493318685093" y="-70.0"/>
      <point x="-34.87617706436545" y="-70.0" type="curve"/>
      <point x="410.0454907238804" y="-70.0" type="line"/>
      <point x="423.3925592849138" y="-70.0"/>
      <point x="434.88417414161194" y="-60.57912929194031"/>
      <point x="437.50174964322616" y="-47.491251783869146" type="curve"/>
      <point x="440.7" y="-31.500000000000004" type="line"/>
      <point x="443.9592062215459" y="-15.203968892270577"/>
      <point x="431.4949331868509" y="0.0"/>
      <point x="414.87617706436544" y="0.0" type="curve"/>
      <point x="-30.045490723880402" y="0.0" type="line"/>
      <point x="-43.392559284913794" y="0.0"/>
      <point x="-54.884174141611936" y="-9.420870708059686"/>
      <point x="-57.50174964322617" y="-22.50874821613085" type="curve"/>
    </contour>
  </outline>
</glyph>
<glyph name="a" format="2">
  <advance width="684"/>
  <unicode hex="0061"/>
  <anchor x="286" y="0" name="bottom"/>
  <anchor x="544" y="0" name="ogonek"/>
  <anchor x="391" y="532" name="top"/>
  <outline>
    <contour>
      <point x="273" y="-6" type="curve" smooth="yes"/>
      <point x="449" y="-6"/>
      <point x="555" y="129"/>
      <point x="555" y="330" type="curve" smooth="yes"/>
      <point x="555" y="464"/>
      <point x="473" y="538"/>
      <point x="338" y="538" type="curve" smooth="yes"/>
      <point x="165" y="538"/>
      <point x="36" y="408"/>
      <point x="36" y="226" type="curve" smooth="yes"/>
      <point x="36" y="80"/>
      <point x="138" y="-6"/>
    </contour>
    <contour>
      <point x="297" y="90" type="curve" smooth="yes"/>
      <point x="201" y="90"/>
      <point x="147" y="143"/>
      <point x="147" y="231" type="curve" smooth="yes"/>
      <point x="147" y="355"/>
      <point x="230" y="442"/>
      <point x="343" y="442" type="curve" smooth="yes"/>
      <point x="439" y="442"/>
      <point x="493" y="389"/>
      <point x="493" y="301" type="curve" smooth="yes"/>
      <point x="493" y="177"/>
      <point x="410" y="90"/>
    </contour>
    <contour>
      <point x="445.7584206630485" y="33.53216405897157" type="line"/>
      <point x="442.26400391231977" y="16.19448094958652"/>
      <point x="455.5201372502216" y="0.0"/>
      <point x="473.2064654171767" y="0.0" type="curve"/>
      <point x="521.028559389628" y="0.0" type="line"/>
      <point x="534.3832396224619" y="0.0"/>
      <point x="545.8791828692785" y="9.431370626944817"/>
      <point x="548.4887816668995" y="22.528602328212806" type="curve"/>
      <point x="643.3308869300574" y="498.5286023282128" type="line"/>
      <point x="646.7819788816856" y="515.8491770288373"/>
      <point x="633.5317049284465" y="532.0"/>
      <point x="615.8706646527859" y="532.0" type="curve"/>
      <point x="562.9545092761196" y="532.0" type="line"/>
      <point x="549.6074407150862" y="532.0"/>
      <point x="538.115825858388" y="522.5791292919403"/>
      <point x="535.4982503567738" y="509.49125178386913" type="curve"/>
      <point x="513" y="397" type="line"/>
      <point x="498" y="262" type="line"/>
      <point x="465" y="129" type="line"/>
    </contour>
  </outline>
</glyph>
<glyph name="b" format="2">
  <advance width="684"/>
  <unicode hex="0062"/>
  <outline>
    <contour>
      <point x="40.67735661666507" y="33.47701763219921" type="line"/>
      <point x="37.22226259128849" y="16.15485704551391"/>
      <point x="50.47308053668796" y="0.0"/>
      <point x="68.13645852944762" y="0.0" type="curve"/>
      <point x="116.0454907238804" y="0.0" type="line"/>
      <point x="129.3925592849138" y="0.0"/>
      <point x="140.88417414161194" y="9.420870708059688"/>
      <point x="143.50174964322616" y="22.50874821613085" type="curve"/>
      <point x="169" y="150" type="line"/>
      <point x="187" y="270" type="line"/>
      <point x="224" y="401" type="line"/>
      <point x="285.32448084999714" y="708.524234850721" type="line"/>
      <point x="288.7786828752165" y="725.8460420654238"/>
      <point x="275.52798612887653" y="742.0"/>
      <point x="257.8651291455242" y="742.0" type="curve"/>
      <point x="204.9666472086929" y="742.0" type="line"/>
      <point x="191.61412154534457" y="742.0"/>
      <point x="180.11940309921576" y="732.5716020244466"/>
      <point x="177.50754529591035" y="719.4770176321992" type="curve"/>
    </contour>
    <contour>
      <point x="346" y="-6" type="curve" smooth="yes"/>
      <point x="519" y="-6"/>
      <point x="648" y="124"/>
      <point x="648" y="306" type="curve" smooth="yes"/>
      <point x="648" y="452"/>
      <point x="546" y="538"/>
      <point x="411" y="538" type="curve" smooth="yes"/>
      <point x="235" y="538"/>
      <point x="129" y="403"/>
      <point x="129" y="202" type="curve" smooth="yes"/>
      <point x="129" y="68"/>
      <point x="211" y="-6"/>
    </contour>
    <contour>
      <point x="341" y="90" type="curve" smooth="yes"/>
      <point x="245" y="90"/>
      <point x="191" y="143"/>
      <point x="191" y="231" type="curve" smooth="yes"/>
      <point x="191" y="355"/>
      <point x="274" y="442"/>
      <point x="387" y="442" type="curve" smooth="yes"/>
      <point x="483" y="442"/>
      <point x="537" y="389"/>
      <point x="537" y="301" type="curve" smooth="yes"/>
      <point x="537" y="177"/>
      <point x="454" y="90"/>
    </contour>
  </outline>
</glyph>
<glyph name="c" format="2">
  <advance width="576"/>
  <unicode hex="0063"/>
  <anchor x="276" y="0" name="bottom"/>
  <anchor x="357" y="532" name="top"/>
  <outline>
    <contour>
      <point x="293" y="-6" type="curve" smooth="yes"/>
      <point x="380.46017030164967" y="-6.0"/>
      <point x="461.5485943399144" y="27.451667882770685"/>
      <point x="513.5193940203231" y="85.11449067243313" type="curve"/>
      <point x="523.8749704334508" y="96.60424590550664"/>
      <point x="520.74308751188" y="114.2178273064548"/>
      <point x="508.0934319187295" y="123.11943679793112" type="curve"/>
      <point x="472.65224521690106" y="148.0595311436622" type="line"/>
      <point x="460.10231977523694" y="156.8909601581666"/>
      <point x="442.9208459658614" y="153.7448999376057"/>
      <point x="432.11008082847775" y="142.85352150446474" type="curve"/>
      <point x="396.73327219735813" y="107.21291645367555"/>
      <point x="348.65964822927026" y="90.0"/>
      <point x="297" y="90" type="curve" smooth="yes"/>
      <point x="201" y="90"/>
      <point x="147" y="143"/>
      <point x="147" y="231" type="curve" smooth="yes"/>
      <point x="147" y="355"/>
      <point x="230" y="442"/>
      <point x="343" y="442" type="curve" smooth="yes"/>
      <point x="398.7841861250281" y="442.0"/>
      <point x="440.99499460749337" y="424.1402925755752"/>
      <point x="468.4248021224228" y="388.42087772672556" type="curve"/>
      <point x="476.9110232449848" y="377.3700217332638"/>
      <point x="492.04383812870026" y="372.4493164315288"/>
      <point x="504.2907434607401" y="379.0939140052951" type="curve"/>
      <point x="551.4850650033103" y="404.6993437783918" type="line"/>
      <point x="565.0397762868946" y="412.0534956450173"/>
      <point x="570.2422876460936" y="429.126880143785"/>
      <point x="561.432805184239" y="441.7841613057484" type="curve"/>
      <point x="516.7885811636378" y="505.9280537685828"/>
      <point x="446.0203710907076" y="538.0"/>
      <point x="352" y="538" type="curve" smooth="yes"/>
      <point x="167" y="538"/>
      <point x="36" y="405"/>
      <point x="36" y="226" type="curve" smooth="yes"/>
      <point x="36" y="86"/>
      <point x="136" y="-6"/>
    </contour>
  </outline>
</glyph>
<glyph name="d" format="2">
  <advance width="684"/>
  <unicode hex="0064"/>
  <guideline x="511" y="371" angle="78.7"/>
  <anchor x="295" y="0" name="bottom"/>
  <anchor x="557" y="635" name="center"/>
  <anchor x="779" y="742" name="topright"/>
  <outline>
    <contour>
      <point x="273" y="-6" type="curve" smooth="yes"/>
      <point x="449" y="-6"/>
      <point x="555" y="129"/>
      <point x="555" y="330" type="curve" smooth="yes"/>
      <point x="555" y="464"/>
      <point x="473" y="538"/>
      <point x="338" y="538" type="curve" smooth="yes"/>
      <point x="165" y="538"/>
      <point x="36" y="408"/>
      <point x="36" y="226" type="curve" smooth="yes"/>
      <point x="36" y="80"/>
      <point x="138" y="-6"/>
    </contour>
    <contour>
      <point x="297" y="90" type="curve" smooth="yes"/>
      <point x="201" y="90"/>
      <point x="147" y="143"/>
      <point x="147" y="231" type="curve" smooth="yes"/>
      <point x="147" y="355"/>
      <point x="230" y="442"/>
      <point x="343" y="442" type="curve" smooth="yes"/>
      <point x="439" y="442"/>
      <point x="493" y="389"/>
      <point x="493" y="301" type="curve" smooth="yes"/>
      <point x="493" y="177"/>
      <point x="410" y="90"/>
    </contour>
    <contour>
      <point x="445.7584206630485" y="33.53216405897157" type="line"/>
      <point x="442.26400391231977" y="16.194480949586524"/>
      <point x="455.5201372502216" y="0.0"/>
      <point x="473.2064654171767" y="0.0" type="curve"/>
      <point x="521.033352791307" y="0.0" type="line"/>
      <point x="534.3858784546554" y="0.0"/>
      <point x="545.8805969007842" y="9.42839797555341"/>
      <point x="548.4924547040896" y="22.522982367800786" type="curve"/>
      <point x="685.3226433833349" y="708.5229823678008" type="line"/>
      <point x="688.7777374087116" y="725.845142954486"/>
      <point x="675.5269194633121" y="742.0"/>
      <point x="657.8635414705524" y="742.0" type="curve"/>
      <point x="604.9545092761196" y="742.0" type="line"/>
      <point x="591.6074407150861" y="742.0"/>
      <point x="580.1158258583881" y="732.5791292919404"/>
      <point x="577.4982503567738" y="719.4912517838692" type="curve"/>
      <point x="513" y="397" type="line"/>
      <point x="497" y="262" type="line"/>
      <point x="465" y="129" type="line"/>
    </contour>
  </outline>
</glyph>
<glyph name="e" format="2">
  <advance width="615"/>
  <unicode hex="0065"/>
  <anchor x="253" y="0" name="bottom"/>
  <anchor x="455" y="0" name="ogonek"/>
  <anchor x="356" y="531" name="top"/>
  <outline>
    <contour>
      <point x="294" y="-6" type="curve" smooth="yes"/>
      <point x="366.69945783943285" y="-6.0"/>
      <point x="439.3989156788657" y="14.138740931822415"/>
      <point x="492.5773662208014" y="53.69322252518958" type="curve"/>
      <point x="503.137828013312" y="61.548163527276785"/>
      <point x="505.323062538957" y="76.13380428007478"/>
      <point x="498.7624657197186" y="87.54353787875031" type="curve"/>
      <point x="475.74161403874496" y="127.57980167174794" type="line"/>
      <point x="469.75758406116563" y="137.98681032840767"/>
      <point x="455.57818233641456" y="140.02245507521502"/>
      <point x="445.86576929035107" y="132.9667143788023" type="curve"/>
      <point x="408.706538901945" y="105.9717860478743"/>
      <point x="358.53124027568265" y="90.0"/>
      <point x="304" y="90" type="curve" smooth="yes"/>
      <point x="194" y="90"/>
      <point x="144" y="141"/>
      <point x="144" y="232" type="curve" smooth="yes"/>
      <point x="144" y="361"/>
      <point x="219" y="446"/>
      <point x="334" y="446" type="curve" smooth="yes"/>
      <point x="431" y="446"/>
      <point x="492" y="388"/>
      <point x="476" y="283" type="curve"/>
      <point x="521" y="310" type="line"/>
      <point x="129" y="310" type="line"/>
      <point x="116" y="231" type="line"/>
      <point x="562.4082579336541" y="231.0" type="line"/>
      <point x="568.5904374553809" y="231.0"/>
      <point x="573.963008453933" y="235.30485205320983"/>
      <point x="575.0932683185144" y="241.38283331982905" type="curve"/>
      <point x="578.825370224478" y="261.4522405246584"/>
      <point x="581.0" y="282.8636819664089"/>
      <point x="581" y="305" type="curve" smooth="yes"/>
      <point x="581" y="451"/>
      <point x="484" y="538"/>
      <point x="339" y="538" type="curve" smooth="yes"/>
      <point x="164" y="538"/>
      <point x="36" y="407"/>
      <point x="36" y="226" type="curve" smooth="yes"/>
      <point x="36" y="86"/>
      <point x="135" y="-6"/>
    </contour>
  </outline>
</glyph>
<glyph name="f" format="2">
  <advance width="361"/>
  <unicode hex="0066"/>
  <outline>
    <contour>
      <point x="55.71176254088582" y="33.500449551899656" type="line"/>
      <point x="52.23997167375082" y="16.17168470202582"/>
      <point x="65.49305316029884" y="0.0"/>
      <point x="83.1661803042806" y="0.0" type="curve"/>
      <point x="136.0454907238804" y="0.0" type="line"/>
      <point x="149.39255928491377" y="0.0"/>
      <point x="160.88417414161194" y="9.420870708059688"/>
      <point x="163.50174964322616" y="22.50874821613085" type="curve"/>
      <point x="250" y="455" type="line"/>
      <point x="256" y="501" type="line"/>
      <point x="270" y="565" type="line" smooth="yes"/>
      <point x="283" y="628"/>
      <point x="314" y="658"/>
      <point x="369" y="658" type="curve" smooth="yes"/>
      <point x="392.78829002531165" y="658.0"/>
      <point x="412.9676339898558" y="652.225686302772"/>
      <point x="429.5380318936325" y="641.2902778767392" type="curve"/>
      <point x="434.1072066418156" y="638.2749132288022"/>
      <point x="440.4619040510532" y="639.4314272918957"/>
      <point x="443.12053993688977" y="644.2169718864016" type="curve"/>
      <point x="475.52480517070967" y="702.5446493072774" type="line"/>
      <point x="479.82673223456226" y="710.2881180222121"/>
      <point x="477.8810019586492" y="720.1322618607153"/>
      <point x="470.21767877701916" y="724.5753871139317" type="curve"/>
      <point x="443.640744210459" y="739.9844526494722"/>
      <point x="407.41340128939237" y="748.0"/>
      <point x="369" y="748" type="curve" smooth="yes"/>
      <point x="255" y="748"/>
      <point x="186" y="683"/>
      <point x="164" y="574" type="curve" smooth="yes"/>
    </contour>
    <contour>
      <point x="54.698250356773826" y="475.49125178386913" type="line"/>
      <point x="51.233015557366016" y="458.16507778683007"/>
      <point x="64.48520941475837" y="442.0"/>
      <point x="82.15450927611958" y="442.0" type="curve"/>
      <point x="372.0454907238804" y="442.0" type="line"/>
      <point x="385.3925592849138" y="442.0"/>
      <point x="396.88417414161194" y="451.4208707080597"/>
      <point x="399.50174964322616" y="464.50874821613087" type="curve"/>
      <point x="406.3017496432262" y="498.50874821613087" type="line"/>
      <point x="409.766984442634" y="515.8349222131699"/>
      <point x="396.5147905852416" y="532.0"/>
      <point x="378.8454907238804" y="532.0" type="curve"/>
      <point x="88.9545092761196" y="532.0" type="line"/>
      <point x="75.6074407150862" y="532.0"/>
      <point x="64.11582585838806" y="522.5791292919403"/>
      <point x="61.49825035677383" y="509.49125178386913" type="curve"/>
    </contour>
  </outline>
</glyph>
<glyph name="g" format="2">
  <advance width="692"/>
  <unicode hex="0067"/>
  <anchor x="385" y="532" name="top"/>
  <outline>
    <contour>
      <point x="244" y="-200" type="curve" smooth="yes"/>
      <point x="422" y="-200"/>
      <point x="528" y="-119"/>
      <point x="567" y="77" type="curve" smooth="yes"/>
      <point x="651.3017496432261" y="498.50874821613087" type="line"/>
      <point x="654.766984442634" y="515.8349222131699"/>
      <point x="641.5147905852416" y="532.0"/>
      <point x="623.8454907238804" y="532.0" type="curve"/>
      <point x="576.0203408390436" y="532.0" type="line"/>
      <point x="562.6436967697647" y="532.0"/>
      <point x="551.1352858028391" y="522.5383020366281"/>
      <point x="548.5487654360275" y="509.41410610132436" type="curve"/>
      <point x="526" y="395" type="line"/>
      <point x="509" y="281" type="line"/>
      <point x="477" y="175" type="line"/>
      <point x="454" y="59" type="line" smooth="yes"/>
      <point x="432" y="-49"/>
      <point x="373" y="-103"/>
      <point x="252" y="-103" type="curve" smooth="yes"/>
      <point x="170" y="-103"/>
      <point x="98" y="-78"/>
      <point x="57" y="-42" type="curve"/>
      <point x="-3" y="-127" type="line"/>
      <point x="57" y="-175"/>
      <point x="142" y="-200"/>
    </contour>
    <contour>
      <point x="278" y="23" type="curve" smooth="yes"/>
      <point x="458" y="23"/>
      <point x="561" y="163"/>
      <point x="561" y="340" type="curve" smooth="yes"/>
      <point x="561" y="479"/>
      <point x="459" y="538"/>
      <point x="343" y="538" type="curve" smooth="yes"/>
      <point x="165" y="538"/>
      <point x="39" y="409"/>
      <point x="39" y="242" type="curve" smooth="yes"/>
      <point x="39" y="106"/>
      <point x="137" y="23"/>
    </contour>
    <contour>
      <point x="300" y="119" type="curve" smooth="yes"/>
      <point x="206" y="119"/>
      <point x="150" y="168"/>
      <point x="150" y="248" type="curve" smooth="yes"/>
      <point x="150" y="361"/>
      <point x="232" y="442"/>
      <point x="346" y="442" type="curve" smooth="yes"/>
      <point x="441" y="442"/>
      <point x="496" y="393"/>
      <point x="496" y="313" type="curve" smooth="yes"/>
      <point x="496" y="200"/>
      <point x="414" y="119"/>
    </contour>
  </outline>
</glyph>
<glyph name="h" format="2">
  <advance width="683"/>
  <unicode hex="0068"/>
  <anchor x="290" y="0" name="bottom"/>
  <anchor x="274" y="635" name="center"/>
  <anchor x="237" y="742" name="top"/>
  <anchor x="316" y="532" name="topright"/>
  <outline>
    <contour>
      <point x="419" y="538" type="curve" smooth="yes"/>
      <point x="326" y="538"/>
      <point x="247" y="504"/>
      <point x="196" y="429" type="curve"/>
      <point x="220" y="380" type="line"/>
      <point x="285.34456047329695" y="708.5379290462987" type="line"/>
      <point x="288.78901286383103" y="725.8558702320395"/>
      <point x="275.53964264198993" y="742.0"/>
      <point x="257.8824815116318" y="742.0" type="curve"/>
      <point x="204.9666472086929" y="742.0" type="line"/>
      <point x="191.61412154534457" y="742.0"/>
      <point x="180.11940309921576" y="732.5716020244466"/>
      <point x="177.50754529591035" y="719.4770176321992" type="curve"/>
      <point x="40.67735661666507" y="33.47701763219921" type="line"/>
      <point x="37.22226259128849" y="16.15485704551391"/>
      <point x="50.47308053668796" y="0.0"/>
      <point x="68.13645852944762" y="0.0" type="curve"/>
      <point x="121.06161924507518" y="0.0" type="line"/>
      <point x="134.40143376503715" y="0.0"/>
      <point x="145.8889199414433" y="9.41086899397642"/>
      <point x="148.51408718466425" y="22.489827223595025" type="curve"/>
      <point x="200" y="279" type="line" smooth="yes"/>
      <point x="222" y="388"/>
      <point x="289" y="440"/>
      <point x="386" y="440" type="curve" smooth="yes"/>
      <point x="480" y="440"/>
      <point x="515" y="387"/>
      <point x="497" y="296" type="curve" smooth="yes"/>
      <point x="444.67206489172275" y="33.4734103042362" type="line"/>
      <point x="441.21953982128036" y="16.152267577949065"/>
      <point x="454.4700086390528" y="0.0"/>
      <point x="472.1318860790772" y="0.0" type="curve"/>
      <point x="525.0454907238804" y="0.0" type="line"/>
      <point x="538.3925592849139" y="0.0"/>
      <point x="549.8841741416119" y="9.420870708059686"/>
      <point x="552.5017496432262" y="22.50874821613085" type="curve"/>
      <point x="607" y="295" type="line" smooth="yes"/>
      <point x="638" y="451"/>
      <point x="558" y="538"/>
    </contour>
  </outline>
</glyph>
<glyph name="k" format="2">
  <advance width="615"/>
  <unicode hex="006B"/>
  <anchor x="262" y="0" name="bottom"/>
  <anchor x="237" y="742" name="top"/>
  <anchor x="312" y="532" name="topright"/>
  <outline>
    <contour>
      <point x="162.35" y="190.75" type="line"/>
      <point x="158.69076408986462" y="169.27187617964017"/>
      <point x="183.38091776796293" y="154.54148697238128"/>
      <point x="200.54340917361324" y="167.9634353793642" type="curve"/>
      <point x="308" y="252" type="line"/>
      <point x="366" y="295" type="line"/>
      <point x="611.6215466054418" y="489.04102181829904" type="line"/>
      <point x="629.5340136247138" y="503.1918707635239"/>
      <point x="619.5276805783478" y="532.0"/>
      <point x="596.7" y="532.0" type="curve"/>
      <point x="521.7476871927984" y="532.0" type="line"/>
      <point x="515.4350272944445" y="532.0"/>
      <point x="509.3075914060055" y="529.8668454166275"/>
      <point x="504.3596657261191" y="525.9466787800409" type="curve"/>
      <point x="183.4118154077277" y="271.6645540470721" type="line"/>
      <point x="177.99602920092877" y="267.37370859539465"/>
      <point x="174.35802791162328" y="261.23190295952804"/>
      <point x="173.1975640615705" y="254.4204847092181" type="curve"/>
    </contour>
    <contour>
      <point x="40.67735661666507" y="33.47701763219921" type="line"/>
      <point x="37.22226259128849" y="16.15485704551391"/>
      <point x="50.47308053668796" y="0.0"/>
      <point x="68.13645852944762" y="0.0" type="curve"/>
      <point x="121.03335279130708" y="0.0" type="line"/>
      <point x="134.38587845465543" y="0.0"/>
      <point x="145.88059690078424" y="9.42839797555341"/>
      <point x="148.49245470408965" y="22.522982367800786" type="curve"/>
      <point x="285.32264338333493" y="708.5229823678008" type="line"/>
      <point x="288.7777374087115" y="725.845142954486"/>
      <point x="275.526919463312" y="742.0"/>
      <point x="257.8635414705524" y="742.0" type="curve"/>
      <point x="204.9666472086929" y="742.0" type="line"/>
      <point x="191.61412154534457" y="742.0"/>
      <point x="180.11940309921576" y="732.5716020244466"/>
      <point x="177.50754529591035" y="719.4770176321992" type="curve"/>
    </contour>
    <contour>
      <point x="434.7916458198071" y="13.271949291350866" type="line"/>
      <point x="439.89439041872805" y="5.0214076995890435"/>
      <point x="448.9041803967003" y="0.0"/>
      <point x="458.6051823552203" y="0.0" type="curve"/>
      <point x="519.8332094573012" y="0.0" type="line"/>
      <point x="541.7507580742182" y="0.0"/>
      <point x="555.1705536026234" y="24.04385969283392"/>
      <point x="543.6649311427219" y="42.69860678801394" type="curve"/>
      <point x="383.83195478780704" y="301.8452771887012" type="line"/>
      <point x="373.96317291118646" y="317.8461177071054"/>
      <point x="351.44290365201766" y="319.7686241389533"/>
      <point x="339.00477315216375" y="305.67207623911895" type="curve"/>
      <point x="302.7479931795126" y="264.58105893678095" type="line"/>
      <point x="294.58392727716" y="255.32845091411465"/>
      <point x="293.43932860681576" y="241.82212452534336"/>
      <point x="299.929916594322" y="231.32760238970013" type="curve"/>
    </contour>
  </outline>
</glyph>
<glyph name="l" format="2">
  <advance width="284"/>
  <unicode hex="006C"/>
  <anchor x="89" y="0" name="bottom"/>
  <anchor x="161" y="360" name="center"/>
  <anchor x="343" y="360" name="dot"/>
  <anchor x="237" y="742" name="top"/>
  <anchor x="379" y="742" name="topright"/>
  <outline>
    <contour>
      <point x="40.67735661666507" y="33.47701763219921" type="line"/>
      <point x="37.22226259128849" y="16.15485704551391"/>
      <point x="50.47308053668796" y="0.0"/>
      <point x="68.13645852944762" y="0.0" type="curve"/>
      <point x="121.03335279130708" y="0.0" type="line"/>
      <point x="134.38587845465543" y="0.0"/>
      <point x="145.88059690078424" y="9.42839797555341"/>
      <point x="148.49245470408965" y="22.522982367800786" type="curve"/>
      <point x="285.32264338333493" y="708.5229823678008" type="line"/>
      <point x="288.7777374087115" y="725.845142954486"/>
      <point x="275.526919463312" y="742.0"/>
      <point x="257.8635414705524" y="742.0" type="curve"/>
      <point x="204.9666472086929" y="742.0" type="line"/>
      <point x="191.61412154534457" y="742.0"/>
      <point x="180.11940309921576" y="732.5716020244466"/>
      <point x="177.50754529591035" y="719.4770176321992" type="curve"/>
    </contour>
  </outline>
</glyph>
<glyph name="m" format="2">
  <advance width="1055"/>
  <unicode hex="006D"/>
  <anchor x="477" y="0" name="bottom"/>
  <outline>
    <contour>
      <point x="792" y="538" type="curve" smooth="yes"/>
      <point x="681" y="538"/>
      <point x="593" y="489"/>
      <point x="537" y="392" type="curve"/>
      <point x="597" y="380" type="line"/>
      <point x="589" y="482"/>
      <point x="517" y="538"/>
      <point x="411" y="538" type="curve" smooth="yes"/>
      <point x="322" y="538"/>
      <point x="245" y="504"/>
      <point x="196" y="429" type="curve"/>
      <point x="215" y="380" type="line"/>
      <point x="238.40360692899213" y="498.5782751068935" type="line"/>
      <point x="241.8193685662265" y="515.8848007355476"/>
      <point x="228.57392123327926" y="532.0"/>
      <point x="210.9335341372526" y="532.0" type="curve"/>
      <point x="162.971440610372" y="532.0" type="line"/>
      <point x="149.6167603775381" y="532.0"/>
      <point x="138.12081713072152" y="522.5686293730552"/>
      <point x="135.51121833310046" y="509.4713976717872" type="curve"/>
      <point x="40.66911306994256" y="33.471397671787194" type="line"/>
      <point x="37.21802111831437" y="16.150822971162675"/>
      <point x="50.468295071553484" y="0.0"/>
      <point x="68.12933534721412" y="0.0" type="curve"/>
      <point x="121.06161924507518" y="0.0" type="line"/>
      <point x="134.40143376503715" y="0.0"/>
      <point x="145.8889199414433" y="9.41086899397642"/>
      <point x="148.51408718466425" y="22.489827223595025" type="curve"/>
      <point x="200" y="279" type="line" smooth="yes"/>
      <point x="222" y="388"/>
      <point x="283" y="440"/>
      <point x="376" y="440" type="curve" smooth="yes"/>
      <point x="466" y="440"/>
      <point x="499" y="387"/>
      <point x="481" y="296" type="curve" smooth="yes"/>
      <point x="428.67206489172275" y="33.4734103042362" type="line"/>
      <point x="425.21953982128036" y="16.152267577949065"/>
      <point x="438.4700086390528" y="0.0"/>
      <point x="456.1318860790772" y="0.0" type="curve"/>
      <point x="509.0616192450752" y="0.0" type="line"/>
      <point x="522.4014337650372" y="0.0"/>
      <point x="533.8889199414433" y="9.41086899397642"/>
      <point x="536.5140871846643" y="22.489827223595025" type="curve"/>
      <point x="588" y="279" type="line" smooth="yes"/>
      <point x="610" y="388"/>
      <point x="671" y="440"/>
      <point x="764" y="440" type="curve" smooth="yes"/>
      <point x="854" y="440"/>
      <point x="887" y="387"/>
      <point x="869" y="296" type="curve" smooth="yes"/>
      <point x="816.6720648917228" y="33.4734103042362" type="line"/>
      <point x="813.2195398212805" y="16.152267577949065"/>
      <point x="826.4700086390529" y="0.0"/>
      <point x="844.1318860790773" y="0.0" type="curve"/>
      <point x="897.0454907238804" y="0.0" type="line"/>
      <point x="910.3925592849139" y="0.0"/>
      <point x="921.8841741416119" y="9.420870708059686"/>
      <point x="924.5017496432262" y="22.50874821613085" type="curve"/>
      <point x="979" y="295" type="line" smooth="yes"/>
      <point x="1010" y="451"/>
      <point x="933" y="538"/>
    </contour>
  </outline>
</glyph>
<glyph name="n" format="2">
  <advance width="683"/>
  <unicode hex="006E"/>
  <anchor x="291" y="0" name="bottom"/>
  <anchor x="397" y="532" name="top"/>
  <outline>
    <contour>
      <point x="419" y="538" type="curve" smooth="yes"/>
      <point x="326" y="538"/>
      <point x="247" y="504"/>
      <point x="196" y="429" type="curve"/>
      <point x="206.45" y="402.05" type="line"/>
      <point x="208.9343256547588" y="395.6430548903589"/>
      <point x="218.24875358669354" y="396.46035150591393"/>
      <point x="219.57934956366756" y="403.202037789249" type="curve"/>
      <point x="238.40360692899213" y="498.5782751068935" type="line"/>
      <point x="241.8193685662265" y="515.8848007355476"/>
      <point x="228.57392123327926" y="532.0"/>
      <point x="210.9335341372526" y="532.0" type="curve"/>
      <point x="162.971440610372" y="532.0" type="line"/>
      <point x="149.61676037753813" y="532.0"/>
      <point x="138.12081713072152" y="522.5686293730552"/>
      <point x="135.51121833310046" y="509.4713976717872" type="curve"/>
      <point x="40.66911306994256" y="33.471397671787194" type="line"/>
      <point x="37.21802111831437" y="16.150822971162672"/>
      <point x="50.4682950715535" y="0.0"/>
      <point x="68.12933534721412" y="0.0" type="curve"/>
      <point x="121.06161924507518" y="0.0" type="line"/>
      <point x="134.40143376503715" y="0.0"/>
      <point x="145.8889199414433" y="9.410868993976422"/>
      <point x="148.51408718466425" y="22.489827223595025" type="curve"/>
      <point x="200" y="279" type="line" smooth="yes"/>
      <point x="222" y="388"/>
      <point x="289" y="440"/>
      <point x="386" y="440" type="curve" smooth="yes"/>
      <point x="480" y="440"/>
      <point x="515" y="387"/>
      <point x="497" y="296" type="curve" smooth="yes"/>
      <point x="444.67206489172275" y="33.47341030423619" type="line"/>
      <point x="441.21953982128036" y="16.15226757794906"/>
      <point x="454.4700086390528" y="0.0"/>
      <point x="472.1318860790772" y="0.0" type="curve"/>
      <point x="525.0454907238804" y="0.0" type="line"/>
      <point x="538.3925592849138" y="0.0"/>
      <point x="549.884174141612" y="9.420870708059683"/>
      <point x="552.5017496432262" y="22.508748216130844" type="curve"/>
      <point x="607" y="295" type="line" smooth="yes"/>
      <point x="638" y="451"/>
      <point x="558" y="538"/>
    </contour>
  </outline>
</glyph>
<glyph name="p" format="2">
  <advance width="684"/>
  <unicode hex="0070"/>
  <anchor x="335" y="0" name="bottom"/>
  <anchor x="418" y="532" name="top"/>
  <outline>
    <contour>
      <point x="346" y="-6" type="curve" smooth="yes"/>
      <point x="519" y="-6"/>
      <point x="648" y="124"/>
      <point x="648" y="306" type="curve" smooth="yes"/>
      <point x="648" y="452"/>
      <point x="546" y="538"/>
      <point x="411" y="538" type="curve" smooth="yes"/>
      <point x="235" y="538"/>
      <point x="129" y="403"/>
      <point x="129" y="202" type="curve" smooth="yes"/>
      <point x="129" y="68"/>
      <point x="211" y="-6"/>
    </contour>
    <contour>
      <point x="1.6875714455806596" y="-160.51602158971338" type="line"/>
      <point x="-1.7724808312661575" y="-177.84014540344296"/>
      <point x="11.479010303000898" y="-194.0"/>
      <point x="29.145284037774317" y="-194.0" type="curve"/>
      <point x="82.05916897601598" y="-194.0" type="line"/>
      <point x="95.40008574713119" y="-194.0"/>
      <point x="106.888199506192" y="-184.58761155246714"/>
      <point x="109.5122138250533" y="-171.50729775087072" type="curve"/>
      <point x="171" y="135" type="line"/>
      <point x="187" y="270" type="line"/>
      <point x="219" y="403" type="line"/>
      <point x="238.24157933695147" y="498.46783594102845" type="line"/>
      <point x="241.73599608768023" y="515.8055190504135"/>
      <point x="228.4798627497784" y="532.0"/>
      <point x="210.7935345828233" y="532.0" type="curve"/>
      <point x="162.9607110350195" y="532.0" type="line"/>
      <point x="149.61085399385274" y="532.0"/>
      <point x="138.1176530069034" y="522.5752833311162"/>
      <point x="135.50299844282583" y="509.4839784102866" type="curve"/>
    </contour>
    <contour>
      <point x="341" y="90" type="curve" smooth="yes"/>
      <point x="245" y="90"/>
      <point x="191" y="143"/>
      <point x="191" y="231" type="curve" smooth="yes"/>
      <point x="191" y="355"/>
      <point x="274" y="442"/>
      <point x="387" y="442" type="curve" smooth="yes"/>
      <point x="483" y="442"/>
      <point x="537" y="389"/>
      <point x="537" y="301" type="curve" smooth="yes"/>
      <point x="537" y="177"/>
      <point x="454" y="90"/>
    </contour>
  </outline>
</glyph>
<glyph name="q" format="2">
  <advance width="684"/>
  <unicode hex="0071"/>
  <anchor x="245" y="0" name="bottom"/>
  <anchor x="373" y="532" name="top"/>
  <outline>
    <contour>
      <point x="273" y="-6" type="curve" smooth="yes"/>
      <point x="449" y="-6"/>
      <point x="555" y="129"/>
      <point x="555" y="330" type="curve" smooth="yes"/>
      <point x="555" y="464"/>
      <point x="473" y="538"/>
      <point x="338" y="538" type="curve" smooth="yes"/>
      <point x="165" y="538"/>
      <point x="36" y="408"/>
      <point x="36" y="226" type="curve" smooth="yes"/>
      <point x="36" y="80"/>
      <point x="138" y="-6"/>
    </contour>
    <contour>
      <point x="297" y="90" type="curve" smooth="yes"/>
      <point x="201" y="90"/>
      <point x="147" y="143"/>
      <point x="147" y="231" type="curve" smooth="yes"/>
      <point x="147" y="355"/>
      <point x="230" y="442"/>
      <point x="343" y="442" type="curve" smooth="yes"/>
      <point x="439" y="442"/>
      <point x="493" y="389"/>
      <point x="493" y="301" type="curve" smooth="yes"/>
      <point x="493" y="177"/>
      <point x="410" y="90"/>
    </contour>
    <contour>
      <point x="401.6982503567738" y="-160.50874821613087" type="line"/>
      <point x="398.233015557366" y="-177.8349222131699"/>
      <point x="411.4852094147584" y="-194.0"/>
      <point x="429.1545092761196" y="-194.0" type="curve"/>
      <point x="482.0392889649805" y="-194.0" type="line"/>
      <point x="495.38914600614726" y="-194.0"/>
      <point x="506.88234699309663" y="-184.57528333111625"/>
      <point x="509.49700155717414" y="-171.48397841028662" type="curve"/>
      <point x="643.3124285544193" y="498.5160215897134" type="line"/>
      <point x="646.7724808312662" y="515.840145403443"/>
      <point x="633.5209896969991" y="532.0"/>
      <point x="615.8547159622257" y="532.0" type="curve"/>
      <point x="567.9545092761196" y="532.0" type="line"/>
      <point x="554.6074407150862" y="532.0"/>
      <point x="543.115825858388" y="522.5791292919403"/>
      <point x="540.4982503567738" y="509.49125178386913" type="curve"/>
      <point x="515" y="382" type="line"/>
      <point x="497" y="262" type="line"/>
      <point x="460" y="131" type="line"/>
    </contour>
  </outline>
</glyph>
<glyph name="r" format="2">
  <advance width="415"/>
  <unicode hex="0072"/>
  <anchor x="89" y="0" name="bottom"/>
  <anchor x="288" y="532" name="top"/>
  <outline>
    <contour>
      <point x="40.66911306994256" y="33.471397671787194" type="line"/>
      <point x="37.21802111831437" y="16.150822971162675"/>
      <point x="50.468295071553484" y="0.0"/>
      <point x="68.12933534721412" y="0.0" type="curve"/>
      <point x="121.06253523113786" y="0.0" type="line"/>
      <point x="134.40193767667103" y="0.0"/>
      <point x="145.88918921138108" y="9.410300977445344"/>
      <point x="148.5147874141682" y="22.488752402649208" type="curve"/>
      <point x="197" y="264" type="line" smooth="yes"/>
      <point x="220" y="381"/>
      <point x="288" y="433"/>
      <point x="390" y="433" type="curve" smooth="yes"/>
      <point x="401" y="433"/>
      <point x="408" y="432"/>
      <point x="418" y="431" type="curve"/>
      <point x="431.80475748589754" y="504.85545254955184" type="line"/>
      <point x="435.0247729852247" y="522.082535470952"/>
      <point x="421.78826917581597" y="538.0940516621564"/>
      <point x="404.2955799786323" y="537.0232059928644" type="curve"/>
      <point x="312.8031441781576" y="531.4223359639332"/>
      <point x="249.7073395321013" y="500.8966239952142"/>
      <point x="205" y="424" type="curve"/>
      <point x="215" y="380" type="line"/>
      <point x="238.40360692899213" y="498.5782751068935" type="line"/>
      <point x="241.8193685662265" y="515.8848007355476"/>
      <point x="228.57392123327926" y="532.0"/>
      <point x="210.9335341372526" y="532.0" type="curve"/>
      <point x="162.971440610372" y="532.0" type="line"/>
      <point x="149.6167603775381" y="532.0"/>
      <point x="138.12081713072152" y="522.5686293730552"/>
      <point x="135.51121833310046" y="509.4713976717872" type="curve"/>
    </contour>
  </outline>
</glyph>
<glyph name="s" format="2">
  <advance width="508"/>
  <unicode hex="0073"/>
  <anchor x="198" y="0" name="bottom"/>
  <anchor x="304" y="532" name="top"/>
  <outline>
    <contour>
      <point x="209" y="-6" type="curve" smooth="yes"/>
      <point x="356" y="-6"/>
      <point x="458" y="56"/>
      <point x="458" y="170" type="curve" smooth="yes"/>
      <point x="458" y="347"/>
      <point x="167" y="276"/>
      <point x="167" y="374" type="curve" smooth="yes"/>
      <point x="167" y="414"/>
      <point x="209" y="444"/>
      <point x="294" y="444" type="curve" smooth="yes"/>
      <point x="339.0765274665323" y="444.0"/>
      <point x="388.4931617221875" y="436.0431375532747"/>
      <point x="429.94569252246356" y="415.2077285620232" type="curve"/>
      <point x="441.41939061781096" y="409.4406695225999"/>
      <point x="455.95164488865146" y="413.3748750047936"/>
      <point x="461.4828688604621" y="424.9641061838253" type="curve"/>
      <point x="482.7857811805448" y="469.59877961637966" type="line"/>
      <point x="488.6401872012192" y="481.8651541358879"/>
      <point x="484.57429141960563" y="496.70428401063464"/>
      <point x="472.395224061046" y="502.7382157291261" type="curve"/>
      <point x="427.9116496042834" y="524.7769189372083"/>
      <point x="364.8539013802424" y="538.0"/>
      <point x="304" y="538" type="curve" smooth="yes"/>
      <point x="155" y="538"/>
      <point x="58" y="469"/>
      <point x="58" y="362" type="curve" smooth="yes"/>
      <point x="58" y="181"/>
      <point x="349" y="251"/>
      <point x="349" y="157" type="curve" smooth="yes"/>
      <point x="349" y="114"/>
      <point x="307" y="88"/>
      <point x="220" y="88" type="curve" smooth="yes"/>
      <point x="157.4443309654157" y="88.0"/>
      <point x="96.3573096052035" y="103.420800580907"/>
      <point x="54.35826920498063" y="127.34052080908566" type="curve"/>
      <point x="43.72276183280307" y="133.3977630318358"/>
      <point x="29.65552324919028" y="130.51082699346028"/>
      <point x="23.649175176555776" y="119.84649470123168" type="curve"/>
      <point x="-2.119564323893563" y="74.09383477186245" type="line"/>
      <point x="-8.941646974770755" y="61.98115741214171"/>
      <point x="-5.868042371499417" y="46.55297612599206"/>
      <point x="6.217007780274708" y="39.68207172080675" type="curve"/>
      <point x="53.72949089426412" y="12.66904939741341"/>
      <point x="129.49784050739072" y="-6.0"/>
    </contour>
  </outline>
</glyph>
<glyph name="t" format="2">
  <advance width="419"/>
  <unicode hex="0074"/>
  <anchor x="202" y="0" name="bottom"/>
  <anchor x="191" y="284" name="center"/>
  <anchor x="233" y="649" name="top"/>
  <anchor x="387" y="742" name="topright"/>
  <outline>
    <contour>
      <point x="225" y="-6" type="curve" smooth="yes"/>
      <point x="261.6428175574606" y="-6.0"/>
      <point x="300.464157686932" y="-0.9167806653080577"/>
      <point x="334.0382338627396" y="16.05662898594428" type="curve"/>
      <point x="344.567643383604" y="21.379783083992336"/>
      <point x="349.07135390522564" y="33.622744088870064"/>
      <point x="346.1773851198404" y="45.06081119301188" type="curve"/>
      <point x="332.9390226888578" y="97.38386270594312" type="line"/>
      <point x="331.5116380432335" y="103.02543059102948"/>
      <point x="324.8853973375959" y="105.53997046389756"/>
      <point x="319.7911986436223" y="102.72681302164176" type="curve"/>
      <point x="299.96878928611994" y="91.78033021690418"/>
      <point x="277.40058272739043" y="86.0"/>
      <point x="257" y="86" type="curve" smooth="yes"/>
      <point x="201" y="86"/>
      <point x="183" y="122"/>
      <point x="193" y="174" type="curve" smooth="yes"/>
      <point x="281.3017496432262" y="615.5087482161308" type="line"/>
      <point x="284.766984442634" y="632.8349222131699"/>
      <point x="271.5147905852416" y="649.0"/>
      <point x="253.8454907238804" y="649.0" type="curve"/>
      <point x="200.96396906390737" y="649.0" type="line"/>
      <point x="187.6126473137388" y="649.0"/>
      <point x="176.11861338918155" y="639.5732628763202"/>
      <point x="173.50549369825154" y="626.4801578986078" type="curve"/>
      <point x="83" y="173" type="line" smooth="yes"/>
      <point x="61" y="62"/>
      <point x="126" y="-6"/>
    </contour>
    <contour>
      <point x="54.698250356773826" y="475.49125178386913" type="line"/>
      <point x="51.233015557366016" y="458.16507778683007"/>
      <point x="64.48520941475837" y="442.0"/>
      <point x="82.15450927611958" y="442.0" type="curve"/>
      <point x="372.0454907238804" y="442.0" type="line"/>
      <point x="385.3925592849138" y="442.0"/>
      <point x="396.88417414161194" y="451.4208707080597"/>
      <point x="399.50174964322616" y="464.50874821613087" type="curve"/>
      <point x="406.3017496432262" y="498.50874821613087" type="line"/>
      <point x="409.766984442634" y="515.8349222131699"/>
      <point x="396.5147905852416" y="532.0"/>
      <point x="378.8454907238804" y="532.0" type="curve"/>
      <point x="88.9545092761196" y="532.0" type="line"/>
      <point x="75.6074407150862" y="532.0"/>
      <point x="64.11582585838806" y="522.5791292919403"/>
      <point x="61.49825035677383" y="509.49125178386913" type="curve"/>
    </contour>
  </outline>
</glyph>
<glyph name="u" format="2">
  <advance width="679"/>
  <unicode hex="0075"/>
  <anchor x="284" y="0" name="bottom"/>
  <anchor x="539" y="0" name="ogonek"/>
  <anchor x="390" y="532" name="top"/>
  <anchor x="590" y="532" name="topright"/>
  <outline>
    <contour>
      <point x="262" y="-6" type="curve" smooth="yes"/>
      <point x="353" y="-6"/>
      <point x="432" y="28"/>
      <point x="483" y="103" type="curve"/>
      <point x="472.55" y="129.95" type="line"/>
      <point x="470.0656743452412" y="136.35694510964112"/>
      <point x="460.75124641330643" y="135.53964849408607"/>
      <point x="459.42065043633244" y="128.79796221075102" type="curve"/>
      <point x="440.59639307100787" y="33.42172489310648" type="line"/>
      <point x="437.1806314337735" y="16.115199264452347"/>
      <point x="450.4260787667207" y="0.0"/>
      <point x="468.0664658627474" y="0.0" type="curve"/>
      <point x="516.028559389628" y="0.0" type="line"/>
      <point x="529.3832396224619" y="0.0"/>
      <point x="540.8791828692785" y="9.431370626944817"/>
      <point x="543.4887816668995" y="22.528602328212806" type="curve"/>
      <point x="638.3308869300574" y="498.5286023282128" type="line"/>
      <point x="641.7819788816856" y="515.8491770288373"/>
      <point x="628.5317049284465" y="532.0"/>
      <point x="610.8706646527859" y="532.0" type="curve"/>
      <point x="557.9383807549249" y="532.0" type="line"/>
      <point x="544.5985662349628" y="532.0"/>
      <point x="533.1110800585567" y="522.5891310060235"/>
      <point x="530.4859128153357" y="509.510172776405" type="curve"/>
      <point x="479" y="253" type="line" smooth="yes"/>
      <point x="457" y="144"/>
      <point x="390" y="92"/>
      <point x="295" y="92" type="curve" smooth="yes"/>
      <point x="203" y="92"/>
      <point x="168" y="145"/>
      <point x="186" y="236" type="curve" smooth="yes"/>
      <point x="238.32793510827725" y="498.5265896957638" type="line"/>
      <point x="241.7804601787196" y="515.847732422051"/>
      <point x="228.52999136094718" y="532.0"/>
      <point x="210.86811392092278" y="532.0" type="curve"/>
      <point x="157.95450927611958" y="532.0" type="line"/>
      <point x="144.6074407150862" y="532.0"/>
      <point x="133.11582585838806" y="522.5791292919403"/>
      <point x="130.49825035677384" y="509.49125178386913" type="curve"/>
      <point x="76" y="237" type="line" smooth="yes"/>
      <point x="45" y="81"/>
      <point x="127" y="-6"/>
    </contour>
  </outline>
</glyph>
<glyph name="v" format="2">
  <advance width="568"/>
  <unicode hex="0076"/>
  <anchor x="231" y="0" name="bottom"/>
  <anchor x="337" y="532" name="top"/>
  <outline>
    <contour>
      <point x="169.92587726769904" y="21.59546634867296" type="line"/>
      <point x="172.8986629825694" y="8.943290346184721"/>
      <point x="184.18684164862904" y="0.0"/>
      <point x="197.18357248774686" y="0.0" type="curve"/>
      <point x="272.5672767621664" y="0.0" type="line"/>
      <point x="282.1744432107605" y="0.0"/>
      <point x="291.11080649638654" y="4.925443619278739"/>
      <point x="296.24096604703357" y="13.048196241136512" type="curve"/>
      <point x="597.3270500801704" y="489.767829293603" type="line"/>
      <point x="608.9051274218533" y="508.099785084601"/>
      <point x="595.7320773463499" y="532.0"/>
      <point x="574.05" y="532.0" type="curve"/>
      <point x="528.4327232378336" y="532.0" type="line"/>
      <point x="518.8255567892395" y="532.0"/>
      <point x="509.88919350361346" y="527.0745563807212"/>
      <point x="504.75903395296643" y="518.9518037588634" type="curve"/>
      <point x="226.21632653685253" y="77.92585035001653" type="line"/>
      <point x="220.47944136755018" y="68.84244883195444"/>
      <point x="227.0066283418987" y="57.0"/>
      <point x="237.75" y="57.0" type="curve"/>
      <point x="243.25" y="57.0" type="line"/>
      <point x="255.91769273319895" y="57.0"/>
      <point x="265.29766565215664" y="68.77622766262012"/>
      <point x="262.4644037242043" y="81.12301129360506" type="curve"/>
      <point x="163.9881858727291" y="510.26249275645574" type="line"/>
      <point x="161.0691366380094" y="522.9831201554637"/>
      <point x="149.7487596205936" y="532.0"/>
      <point x="136.69750642945874" y="532.0" type="curve"/>
      <point x="85.34146722458897" y="532.0" type="line"/>
      <point x="67.28930480325246" y="532.0"/>
      <point x="53.95464051501716" y="515.1690499680869"/>
      <point x="58.083772004541125" y="497.59546634867297" type="curve"/>
    </contour>
  </outline>
</glyph>
<glyph name="w" format="2">
  <advance width="913"/>
  <unicode hex="0077"/>
  <anchor x="410" y="0" name="bottom"/>
  <anchor x="509" y="532" name="top"/>
  <outline>
    <contour>
      <point x="150.70912983007506" y="22.82742930400068" type="line"/>
      <point x="153.19736423449964" y="9.590022272461898"/>
      <point x="164.75797227344782" y="0.0"/>
      <point x="178.2272059327914" y="0.0" type="curve"/>
      <point x="261" y="0" type="line"/>
      <point x="506" y="427" type="line"/>
      <point x="473" y="427" type="line"/>
      <point x="553.5144114912262" y="22.533485802898976" type="line"/>
      <point x="556.1220466180664" y="9.433954048066441"/>
      <point x="567.6190538976422" y="0.0"/>
      <point x="580.9756063401925" y="0.0" type="curve"/>
      <point x="666" y="0" type="line"/>
      <point x="941.1286883444614" y="491.1693362391055" type="line"/>
      <point x="951.3695587362337" y="509.451695462001"/>
      <point x="938.1551923192337" y="532.0"/>
      <point x="917.2" y="532.0" type="curve"/>
      <point x="876.3513428609042" y="532.0" type="line"/>
      <point x="866.2486974750576" y="532.0"/>
      <point x="856.9294368286901" y="526.5577704986111"/>
      <point x="851.9650724986185" y="517.7589904359843" type="curve"/>
      <point x="592" y="57" type="line"/>
      <point x="643" y="57" type="line"/>
      <point x="559.2424198265431" y="509.10057479990917" type="line"/>
      <point x="556.7837914285617" y="522.3715803571951"/>
      <point x="545.2077389394195" y="532.0"/>
      <point x="531.7109081224879" y="532.0" type="curve"/>
      <point x="477.2617675771787" y="532.0" type="line"/>
      <point x="467.20696485277927" y="532.0"/>
      <point x="457.9241506826643" y="526.6087511965518"/>
      <point x="452.94151281869415" y="517.8753453464196" type="curve"/>
      <point x="190" y="57" type="line"/>
      <point x="241" y="57" type="line"/>
      <point x="159.16631555904803" y="508.98837336572313" type="line"/>
      <point x="156.75410943898606" y="522.3116048428096"/>
      <point x="145.15409218782702" y="532.0"/>
      <point x="131.61425336464697" y="532.0" type="curve"/>
      <point x="88.75352172226509" y="532.0" type="line"/>
      <point x="71.21648687208962" y="532.0"/>
      <point x="57.99574731380815" y="516.0626242905406"/>
      <point x="61.23544561954874" y="498.8274293040007" type="curve"/>
    </contour>
  </outline>
</glyph>
<glyph name="x" format="2">
  <advance width="562"/>
  <unicode hex="0078"/>
  <outline>
    <contour>
      <point x="-2.8172790502914324" y="41.26874043483583" type="line"/>
      <point x="-17.817295745939255" y="25.86331788254887"/>
      <point x="-6.901803293775728" y="0.0"/>
      <point x="14.600000000000001" y="0.0" type="curve"/>
      <point x="72.99270474698488" y="0.0" type="line"/>
      <point x="80.65994057430854" y="0.0"/>
      <point x="87.99176071405849" y="3.1441188985707247"/>
      <point x="93.27706505754776" y="8.698582259552502" type="curve"/>
      <point x="285.4868304694286" y="210.6968079470384" type="line"/>
      <point x="291.4312593596954" y="216.94396238264287"/>
      <point x="287.1216842900754" y="227.27756631419848"/>
      <point x="278.5" y="227.45" type="curve"/>
      <point x="273.5" y="227.55" type="line"/>
      <point x="263.52668962115825" y="227.74946620757683"/>
      <point x="257.0969393502647" y="217.05431360739888"/>
      <point x="261.95110835581403" y="208.33974247932596" type="curve"/>
      <point x="369.9930516999536" y="14.37467883787857" type="line"/>
      <point x="374.93587381019586" y="5.500950954923946"/>
      <point x="384.2967714517459" y="0.0"/>
      <point x="394.4542581957307" y="0.0" type="curve"/>
      <point x="445.7509690068058" y="0.0" type="line"/>
      <point x="467.25000372582406" y="0.0"/>
      <point x="480.7282852474811" y="23.225500816908117"/>
      <point x="470.0617769862907" y="41.891890273991336" type="curve"/>
      <point x="335.98735692853205" y="276.52212537506887" type="line"/>
      <point x="331.40646430789985" y="284.5386874611753"/>
      <point x="319.27638462065096" y="282.23731627559545"/>
      <point x="317.95" y="273.1" type="curve"/>
      <point x="317.05" y="266.9" type="line"/>
      <point x="315.7818909175526" y="258.164137432029"/>
      <point x="326.45336507584466" y="252.92874900078615"/>
      <point x="332.5860046896108" y="259.2780896609751" type="curve"/>
      <point x="557.2342930144888" y="491.86448004680284" type="line"/>
      <point x="571.7549654745649" y="506.8982504736661"/>
      <point x="561.1012961784775" y="532.0"/>
      <point x="540.2" y="532.0" type="curve"/>
      <point x="483.9468074281808" y="532.0" type="line"/>
      <point x="476.31509077329474" y="532.0"/>
      <point x="469.01405377216315" y="528.8848541757663"/>
      <point x="463.73307667230546" y="523.375373259088" type="curve"/>
      <point x="279.8839388453401" y="331.5712246607635" type="line"/>
      <point x="273.8173722599809" y="325.2421624058455"/>
      <point x="278.18468652897525" y="314.7218688915887"/>
      <point x="286.95" y="314.55" type="curve"/>
      <point x="292.05" y="314.45" type="line"/>
      <point x="302.21329858049677" y="314.25071963567655"/>
      <point x="308.75429176701704" y="325.16036389172365"/>
      <point x="303.78999366260894" y="334.03099493074797" type="curve"/>
      <point x="201.01726479784847" y="517.674067820238" type="line"/>
      <point x="196.06651878164277" y="526.5204828328023"/>
      <point x="186.72077665441157" y="532.0"/>
      <point x="176.58327475840684" y="532.0" type="curve"/>
      <point x="127.1231233368067" y="532.0" type="line"/>
      <point x="105.65229383657274" y="532.0"/>
      <point x="92.17067409231797" y="508.82936965240356"/>
      <point x="102.78084144126356" y="490.16333450148073" type="curve"/>
      <point x="228.04677664400572" y="269.7880781262862" type="line"/>
      <point x="232.5652360006229" y="261.8389366655708"/>
      <point x="244.51632364739226" y="263.70253732511327"/>
      <point x="246.4" y="272.65" type="curve"/>
      <point x="247.6" y="278.35" type="line"/>
      <point x="249.16862354715113" y="285.8009618489679"/>
      <point x="240.02574684874097" y="290.6750913581664"/>
      <point x="234.71389110962872" y="285.2196719504295" type="curve"/>
    </contour>
  </outline>
</glyph>
<glyph name="y" format="2">
  <advance width="568"/>
  <unicode hex="0079"/>
  <guideline x="329" y="240" angle="57.5034"/>
  <anchor x="370" y="0" name="bottom"/>
  <anchor x="324" y="532" name="top"/>
  <outline>
    <contour>
      <point x="37" y="-200" type="curve" smooth="yes"/>
      <point x="125" y="-200"/>
      <point x="180" y="-165"/>
      <point x="252" y="-52" type="curve" smooth="yes"/>
      <point x="597.4061627588444" y="490.25053508377715" type="line"/>
      <point x="608.9226193414552" y="508.3301335898113"/>
      <point x="595.9359663733304" y="532.0"/>
      <point x="574.5" y="532.0" type="curve"/>
      <point x="529.4775479381187" y="532.0" type="line"/>
      <point x="519.8459561041592" y="532.0"/>
      <point x="510.8904395593208" y="527.0496629773803"/>
      <point x="505.7672370559115" y="518.893661667605" type="curve"/>
      <point x="215" y="56" type="line"/>
      <point x="203" y="44" type="line"/>
      <point x="155" y="-31" type="line" smooth="yes"/>
      <point x="119" y="-87"/>
      <point x="88" y="-107"/>
      <point x="45" y="-107" type="curve" smooth="yes"/>
      <point x="13.523904494052204" y="-107.0"/>
      <point x="-12.88629465097753" y="-96.86820727816388"/>
      <point x="-33.614942463353714" y="-80.91420663664" type="curve"/>
      <point x="-39.308448108582404" y="-76.53214594755515"/>
      <point x="-47.69735109729144" y="-77.34795426572511"/>
      <point x="-51.78310177229466" y="-83.25770077778334" type="curve"/>
      <point x="-89.32221360942526" y="-137.55534468506153" type="line"/>
      <point x="-95.53095968352096" y="-146.5358523993785"/>
      <point x="-94.60565320127087" y="-158.8398340974384"/>
      <point x="-85.75548592931058" y="-165.23300122162877" type="curve"/>
      <point x="-54.8226603096076" y="-187.5781973894743"/>
      <point x="-7.449941612389011" y="-200.0"/>
    </contour>
    <contour>
      <point x="182" y="-18" type="line"/>
      <point x="269" y="66" type="line"/>
      <point x="165.05768783112666" y="510.37722450178876" type="line"/>
      <point x="162.09519038422715" y="523.0425805591756"/>
      <point x="150.80080515561193" y="532.0"/>
      <point x="137.79359041980962" y="532.0" type="curve"/>
      <point x="85.51511069608867" y="532.0" type="line"/>
      <point x="67.40800288864665" y="532.0"/>
      <point x="54.06255703082245" y="515.0726790382398"/>
      <point x="58.28826624063418" y="497.4655573306909" type="curve"/>
    </contour>
  </outline>
</glyph>
<glyph name="z" format="2">
  <advance width="526"/>
  <unicode hex="007A"/>
  <anchor x="217" y="0" name="bottom"/>
  <anchor x="317" y="532" name="top"/>
  <outline>
    <contour>
      <point x="-8.7" y="31.95" type="line"/>
      <point x="-11.962499099562823" y="15.404468852217109"/>
      <point x="0.7010850688442503" y="0.0"/>
      <point x="17.56520382248513" y="0.0" type="curve"/>
      <point x="414.0454907238804" y="0.0" type="line"/>
      <point x="427.3925592849138" y="0.0"/>
      <point x="438.88417414161194" y="9.420870708059686"/>
      <point x="441.50174964322616" y="22.508748216130847" type="curve"/>
      <point x="448.3017496432262" y="56.50874821613086" type="line"/>
      <point x="451.766984442634" y="73.8349222131699"/>
      <point x="438.5147905852416" y="90.0"/>
      <point x="420.8454907238804" y="90.0" type="curve"/>
      <point x="108.75904856009014" y="90.0" type="line"/>
      <point x="99.98332132530567" y="90.0"/>
      <point x="94.50304235499232" y="80.49474502319508"/>
      <point x="98.9" y="72.9" type="curve"/>
      <point x="101.1" y="69.1" type="line"/>
      <point x="106.10227456261984" y="60.45970757365665"/>
      <point x="117.92894229954346" y="58.8952248187671"/>
      <point x="125.00579302423559" y="65.93763831365536" type="curve"/>
      <point x="515.9349200541265" y="454.96443382515264" type="line"/>
      <point x="519.888075597721" y="458.89835260211163"/>
      <point x="522.5763992956704" y="463.92316785661427"/>
      <point x="523.6553186303514" y="469.39483019678244" type="curve"/>
      <point x="529.7" y="500.05" type="line"/>
      <point x="532.9624990995628" y="516.5955311477829"/>
      <point x="520.2989149311558" y="532.0"/>
      <point x="503.43479617751484" y="532.0" type="curve"/>
      <point x="122.9545092761196" y="532.0" type="line"/>
      <point x="109.6074407150862" y="532.0"/>
      <point x="98.11582585838806" y="522.5791292919403"/>
      <point x="95.49825035677384" y="509.49125178386913" type="curve"/>
      <point x="88.69825035677383" y="475.49125178386913" type="line"/>
      <point x="85.23301555736602" y="458.16507778683007"/>
      <point x="98.48520941475837" y="442.0"/>
      <point x="116.15450927611958" y="442.0" type="curve"/>
      <point x="411.46253598851683" y="442.0" type="line"/>
      <point x="420.23903178783604" y="442.0"/>
      <point x="425.7950691274374" y="451.4184463408276"/>
      <point x="421.55" y="459.1" type="curve"/>
      <point x="419.45" y="462.9" type="line"/>
      <point x="414.7138132434551" y="471.4702427023194"/>
      <point x="403.0920301993379" y="473.12564562415866"/>
      <point x="396.15127260145584" y="466.218663002422" type="curve"/>
      <point x="5.065079945873524" y="77.03556617484738" type="line"/>
      <point x="1.1119244022789982" y="73.10164739788834"/>
      <point x="-1.576399295670424" y="68.0768321433857"/>
      <point x="-2.6553186303514673" y="62.605169803217564" type="curve"/>
    </contour>
  </outline>
</glyph>
<glyph name="braceleft" format="2">
  <advance width="361"/>
  <unicode hex="007B"/>
  <guideline x="152" y="350" angle="78.6901"/>
  <outline>
    <contour>
      <point x="203" y="-194" type="curve" smooth="yes"/>
      <point x="228.85" y="-194.0" type="line"/>
      <point x="241.13590560083142" y="-194.0"/>
      <point x="251.70200900473847" y="-185.3008428646701"/>
      <point x="254.06104547505663" y="-173.24354534971056" type="curve"/>
      <point x="265.92627465103493" y="-112.59904067248823" type="line"/>
      <point x="267.0007563096632" y="-107.10724552838809"/>
      <point x="262.7959203657209" y="-102.0"/>
      <point x="257.2" y="-102.0" type="curve"/>
      <point x="244" y="-102" type="line" smooth="yes"/>
      <point x="200" y="-102"/>
      <point x="177" y="-75"/>
      <point x="188" y="-19" type="curve" smooth="yes"/>
      <point x="227" y="177" type="line" smooth="yes"/>
      <point x="240" y="241"/>
      <point x="216" y="273"/>
      <point x="159" y="280" type="curve"/>
      <point x="156" y="267" type="line"/>
      <point x="225" y="274"/>
      <point x="251" y="297"/>
      <point x="266" y="371" type="curve" smooth="yes"/>
      <point x="308" y="579" type="line" smooth="yes"/>
      <point x="317" y="625"/>
      <point x="343" y="650"/>
      <point x="397" y="650" type="curve" smooth="yes"/>
      <point x="409.1" y="650.0" type="line"/>
      <point x="414.8508494301764" y="650.0"/>
      <point x="419.7966850660478" y="654.0719458931331"/>
      <point x="420.900914903218" y="659.7157872831142" type="curve"/>
      <point x="432.93895452494337" y="721.2435453497105" type="line"/>
      <point x="435.0431477730904" y="731.9983108402399"/>
      <point x="426.80867738287014" y="742.0"/>
      <point x="415.85" y="742.0" type="curve"/>
      <point x="390" y="742" type="line" smooth="yes"/>
      <point x="277" y="742"/>
      <point x="221" y="695"/>
      <point x="200" y="591" type="curve" smooth="yes"/>
      <point x="155" y="369" type="line" smooth="yes"/>
      <point x="148" y="335"/>
      <point x="130" y="320"/>
      <point x="101" y="320" type="curve" smooth="yes"/>
      <point x="82.3" y="320.0" type="line"/>
      <point x="73.4123236079092" y="320.0"/>
      <point x="65.76875944338069" y="313.7069927106124"/>
      <point x="64.06222242229946" y="304.98469238064166" type="curve"/>
      <point x="52.02418280057409" y="243.45693431404533" type="line"/>
      <point x="50.45723038174117" y="235.44806639556597"/>
      <point x="56.5892827999903" y="228.0"/>
      <point x="64.75" y="228.0" type="curve"/>
      <point x="84" y="228" type="line" smooth="yes"/>
      <point x="111" y="228"/>
      <point x="125" y="213"/>
      <point x="118" y="179" type="curve" smooth="yes"/>
      <point x="76" y="-31" type="line" smooth="yes"/>
      <point x="56" y="-133"/>
      <point x="107" y="-194"/>
    </contour>
  </outline>
</glyph>
<glyph name="bar" format="2">
  <advance width="301"/>
  <unicode hex="007C"/>
  <outline>
    <contour>
      <point x="14.689967026538177" y="-160.51438964256826" type="line"/>
      <point x="11.228752075394654" y="-177.8389735691476"/>
      <point x="24.480400943638323" y="-194.0"/>
      <point x="42.14735362844254" y="-194.0" type="curve"/>
      <point x="86.04068055959164" y="-194.0" type="line"/>
      <point x="99.38991194303628" y="-194.0"/>
      <point x="110.88275709218254" y="-184.57614631934297"/>
      <point x="113.49806716149601" y="-171.48561035743174" type="curve"/>
      <point x="289.31003297346183" y="708.5143896425683" type="line"/>
      <point x="292.77124792460535" y="725.8389735691476"/>
      <point x="279.5195990563617" y="742.0"/>
      <point x="261.85264637155746" y="742.0" type="curve"/>
      <point x="217.95931944040836" y="742.0" type="line"/>
      <point x="204.61008805696372" y="742.0"/>
      <point x="193.11724290781746" y="732.5761463193429"/>
      <point x="190.501932838504" y="719.4856103574317" type="curve"/>
    </contour>
  </outline>
</glyph>
<glyph name="braceright" format="2">
  <advance width="361"/>
  <unicode hex="007D"/>
  <outline>
    <contour>
      <point x="-68.93895452494337" y="-173.24354534971056" type="line"/>
      <point x="-71.04314777309042" y="-183.99831084023998"/>
      <point x="-62.808677382870165" y="-194.0"/>
      <point x="-51.849999999999994" y="-194.0" type="curve"/>
      <point x="-26" y="-194" type="line" smooth="yes"/>
      <point x="87" y="-194"/>
      <point x="143" y="-147"/>
      <point x="164" y="-43" type="curve" smooth="yes"/>
      <point x="209" y="179" type="line" smooth="yes"/>
      <point x="216" y="213"/>
      <point x="234" y="228"/>
      <point x="263" y="228" type="curve" smooth="yes"/>
      <point x="281.7" y="228.0" type="line"/>
      <point x="290.5876763920908" y="228.0"/>
      <point x="298.2312405566193" y="234.2930072893876"/>
      <point x="299.93777757770056" y="243.0153076193583" type="curve"/>
      <point x="311.97581719942593" y="304.5430656859547" type="line"/>
      <point x="313.54276961825883" y="312.55193360443405"/>
      <point x="307.4107172000097" y="320.0"/>
      <point x="299.25" y="320.0" type="curve"/>
      <point x="280" y="320" type="line" smooth="yes"/>
      <point x="253" y="320"/>
      <point x="239" y="335"/>
      <point x="246" y="369" type="curve" smooth="yes"/>
      <point x="288" y="579" type="line" smooth="yes"/>
      <point x="308" y="681"/>
      <point x="257" y="742"/>
      <point x="161" y="742" type="curve" smooth="yes"/>
      <point x="135.15" y="742.0" type="line"/>
      <point x="122.8640943991686" y="742.0"/>
      <point x="112.29799099526154" y="733.3008428646701"/>
      <point x="109.93895452494337" y="721.2435453497105" type="curve"/>
      <point x="98.07372534896508" y="660.5990406724882" type="line"/>
      <point x="96.9992436903368" y="655.1072455283881"/>
      <point x="101.20407963427907" y="650.0"/>
      <point x="106.8" y="650.0" type="curve"/>
      <point x="120" y="650" type="line" smooth="yes"/>
      <point x="164" y="650"/>
      <point x="187" y="623"/>
      <point x="176" y="567" type="curve" smooth="yes"/>
      <point x="137" y="371" type="line" smooth="yes"/>
      <point x="124" y="307"/>
      <point x="148" y="275"/>
      <point x="205" y="268" type="curve"/>
      <point x="208" y="281" type="line"/>
      <point x="139" y="274"/>
      <point x="113" y="251"/>
      <point x="98" y="177" type="curve" smooth="yes"/>
      <point x="56" y="-31" type="line" smooth="yes"/>
      <point x="47" y="-77"/>
      <point x="21" y="-102"/>
      <point x="-33" y="-102" type="curve" smooth="yes"/>
      <point x="-45.1" y="-102.0" type="line"/>
      <point x="-50.8508494301764" y="-102.0"/>
      <point x="-55.796685066047786" y="-106.07194589313315"/>
      <point x="-56.900914903217995" y="-111.71578728311421" type="curve"/>
    </contour>
  </outline>
</glyph>
<glyph name="asciitilde" format="2">
  <advance width="586"/>
  <unicode hex="007E"/>
  <outline>
    <contour>
      <point x="410" y="261" type="curve" smooth="yes"/>
      <point x="473.41691820020515" y="261.0"/>
      <point x="533.5508114910132" y="306.14159250421085"/>
      <point x="556.9410745303476" y="401.62976056584444" type="curve"/>
      <point x="560.9497725867856" y="417.99482807610667"/>
      <point x="547.8988900145715" y="433.0"/>
      <point x="531.05" y="433.0" type="curve"/>
      <point x="492" y="433" type="line"/>
      <point x="481" y="380"/>
      <point x="450" y="345"/>
      <point x="406" y="345" type="curve" smooth="yes"/>
      <point x="340" y="345"/>
      <point x="320" y="440"/>
      <point x="212" y="440" type="curve" smooth="yes"/>
      <point x="148.59668214205794" y="440.0"/>
      <point x="86.83417273937926" y="395.6981717078893"/>
      <point x="63.8670075180574" y="300.40669869297096" type="curve"/>
      <point x="59.90761985631953" y="283.9790778312624"/>
      <point x="73.05196822609314" y="269.0"/>
      <point x="89.95" y="269.0" type="curve"/>
      <point x="129" y="269" type="line"/>
      <point x="140" y="322"/>
      <point x="171" y="356"/>
      <point x="215" y="356" type="curve" smooth="yes"/>
      <point x="281" y="356"/>
      <point x="302" y="261"/>
    </contour>
  </outline>
</glyph>
<glyph name="exclamdown" format="2">
  <advance width="273"/>
  <unicode hex="00A1"/>
  <outline>
    <contour>
      <point x="-4.369480046547832" y="-119.25080124004785" type="line"/>
      <point x="-8.756029742046781" y="-136.91243554034625"/>
      <point x="4.6067073217343335" y="-154.0"/>
      <point x="22.80492548694378" y="-154.0" type="curve"/>
      <point x="92.94641330279592" y="-154.0" type="line"/>
      <point x="106.78030707072695" y="-154.0"/>
      <point x="118.54074456958516" y="-143.897117750863"/>
      <point x="120.62637442624211" y="-130.22134483364104" type="curve"/>
      <point x="182.08606941534887" y="272.778655166359" type="line"/>
      <point x="184.6710375267156" y="289.7286603537493"/>
      <point x="171.55209137801774" y="305.0"/>
      <point x="154.40610829190268" y="305.0" type="curve"/>
      <point x="122.89642875491765" y="305.0" type="line"/>
      <point x="110.03207302082588" y="305.0"/>
      <point x="98.82288371314445" y="296.2342423187132"/>
      <point x="95.72202322142603" y="283.74919875995215" type="curve"/>
    </contour>
    <contour>
      <point x="174" y="396" type="curve" smooth="yes"/>
      <point x="216" y="396"/>
      <point x="249" y="428"/>
      <point x="249" y="471" type="curve" smooth="yes"/>
      <point x="249" y="508"/>
      <point x="220" y="538"/>
      <point x="180" y="538" type="curve" smooth="yes"/>
      <point x="137" y="538"/>
      <point x="104" y="504"/>
      <point x="104" y="461" type="curve" smooth="yes"/>
      <point x="104" y="425"/>
      <point x="133" y="396"/>
    </contour>
  </outline>
</glyph>
<glyph name="cent" format="2">
  <advance width="576"/>
  <unicode hex="00A2"/>
  <outline>
    <contour>
      <point x="293" y="-6" type="curve" smooth="yes"/>
      <point x="391" y="-6"/>
      <point x="481" y="36"/>
      <point x="531" y="107" type="curve"/>
      <point x="450" y="164" type="line"/>
      <point x="414" y="114"/>
      <point x="358" y="90"/>
      <point x="297" y="90" type="curve" smooth="yes"/>
      <point x="201" y="90"/>
      <point x="147" y="143"/>
      <point x="147" y="231" type="curve" smooth="yes"/>
      <point x="147" y="355"/>
      <point x="230" y="442"/>
      <point x="343" y="442" type="curve" smooth="yes"/>
      <point x="409" y="442"/>
      <point x="456" y="417"/>
      <point x="482" y="367" type="curve"/>
      <point x="576" y="418" type="line"/>
      <point x="533" y="498"/>
      <point x="457" y="538"/>
      <point x="352" y="538" type="curve" smooth="yes"/>
      <point x="167" y="538"/>
      <point x="36" y="405"/>
      <point x="36" y="226" type="curve" smooth="yes"/>
      <point x="36" y="86"/>
      <point x="136" y="-6"/>
    </contour>
    <contour>
      <point x="208.29873438276633" y="-88.2181506961071" type="line"/>
      <point x="205.03806293982967" y="-104.67068895719927"/>
      <point x="217.62746311700332" y="-120.0"/>
      <point x="234.4" y="-120.0" type="curve"/>
      <point x="251.03382461593222" y="-120.0" type="line"/>
      <point x="264.38613818517507" y="-120.0"/>
      <point x="275.88073604586634" y="-110.57189462721553"/>
      <point x="278.4928161765232" y="-97.47757085535106" type="curve"/>
      <point x="421.5736356214899" y="619.7847188298066" type="line"/>
      <point x="424.89883263823486" y="636.4538882903722"/>
      <point x="412.1475923502483" y="652.0"/>
      <point x="395.15" y="652.0" type="curve"/>
      <point x="377.99537167565086" y="652.0" type="line"/>
      <point x="364.62993898207856" y="652.0"/>
      <point x="353.127888031779" y="642.5537879773424"/>
      <point x="350.5295759809286" y="629.4433507011561" type="curve"/>
    </contour>
  </outline>
</glyph>
<glyph name="sterling" format="2">
  <advance width="651"/>
  <unicode hex="00A3"/>
  <outline>
    <contour>
      <point x="88" y="15" type="line"/>
      <point x="202" y="15" type="line"/>
      <point x="285" y="431" type="line" smooth="yes"/>
      <point x="310" y="558"/>
      <point x="384" y="607"/>
      <point x="503" y="607" type="curve" smooth="yes"/>
      <point x="554.8542947512556" y="607.0"/>
      <point x="601.6502516392887" y="598.3285636630472"/>
      <point x="640.9307601956126" y="577.9143029035333" type="curve"/>
      <point x="652.050792671507" y="572.1351709380785"/>
      <point x="666.204218520681" y="575.4716777076394"/>
      <point x="672.2390378833907" y="586.455048947771" type="curve"/>
      <point x="699.2558715284059" y="635.6256861816987" type="line"/>
      <point x="705.9875460478372" y="647.8773338070636"/>
      <point x="702.71016030822" y="663.3950821425063"/>
      <point x="690.5403615859996" y="670.2736219899093" type="curve"/>
      <point x="644.48229754426" y="696.3062816942056"/>
      <point x="581.7212846447633" y="709.0"/>
      <point x="510" y="709" type="curve" smooth="yes"/>
      <point x="350" y="709"/>
      <point x="210" y="627"/>
      <point x="173" y="442" type="curve" smooth="yes"/>
    </contour>
    <contour>
      <point x="-16.223322332233224" y="33.54455445544555" type="line"/>
      <point x="-19.726587169903866" y="16.20339350897588"/>
      <point x="-6.469265208014512" y="0.0"/>
      <point x="11.222222222222221" y="0.0" type="curve"/>
      <point x="544.0909090909091" y="0.0" type="line"/>
      <point x="557.4175418760133" y="0.0"/>
      <point x="568.8975164601954" y="9.392706477967213"/>
      <point x="571.5364536453645" y="22.455445544554458" type="curve"/>
      <point x="580.2233223322332" y="65.45544554455445" type="line"/>
      <point x="583.7265871699038" y="82.79660649102412"/>
      <point x="570.4692652080146" y="99.0"/>
      <point x="552.7777777777778" y="99.0" type="curve"/>
      <point x="19.90909090909091" y="99.0" type="line"/>
      <point x="6.582458123986752" y="99.0"/>
      <point x="-4.897516460195397" y="89.60729352203278"/>
      <point x="-7.536453645364538" y="76.54455445544554" type="curve"/>
    </contour>
    <contour>
      <point x="44.75" y="346.3" type="line"/>
      <point x="41.26138273113645" y="329.08948814027315"/>
      <point x="54.416706305923405" y="313.0"/>
      <point x="71.97723502582281" y="313.0" type="curve"/>
      <point x="497.10622880711594" y="313.0" type="line"/>
      <point x="510.42596282731523" y="313.0"/>
      <point x="521.9020014685276" y="322.38320724473607"/>
      <point x="524.5481321665675" y="335.4374520217328" type="curve"/>
      <point x="528.25" y="353.7" type="line"/>
      <point x="531.7386172688635" y="370.91051185972685"/>
      <point x="518.5832936940766" y="387.0"/>
      <point x="501.0227649741772" y="387.0" type="curve"/>
      <point x="75.89377119288405" y="387.0" type="line"/>
      <point x="62.57403717268474" y="387.0"/>
      <point x="51.097998531472406" y="377.61679275526393"/>
      <point x="48.45186783343254" y="364.5625479782672" type="curve"/>
    </contour>
  </outline>
</glyph>
<glyph name="currency" format="2">
  <advance width="700"/>
  <unicode hex="00A4"/>
  <outline>
    <contour>
      <point x="154" y="457" type="line"/>
      <point x="217" y="525" type="line"/>
      <point x="122.73338411293156" y="618.4469061837026" type="line"/>
      <point x="111.4253883603547" y="629.656571538431"/>
      <point x="93.05815158100992" y="629.1928114114303"/>
      <point x="82.33027702812302" y="617.4267554501995" type="curve"/>
      <point x="58.014493047603835" y="590.7578310844688" type="line"/>
      <point x="47.933768704563825" y="579.7015527727475"/>
      <point x="48.32651507277879" y="562.6734849272212"/>
      <point x="58.90626680395373" y="552.0937331960463" type="curve"/>
    </contour>
    <contour>
      <point x="565" y="457" type="line"/>
      <point x="660.7754208042621" y="551.9425910581381" type="line"/>
      <point x="671.4963092985213" y="562.5702544350559"/>
      <point x="671.8622867216509" y="579.7835635385355"/>
      <point x="661.6027982573936" y="590.8572971190038" type="curve"/>
      <point x="636.683420885023" y="617.7544028542609" type="line"/>
      <point x="625.9218056176002" y="629.3701145714791"/>
      <point x="607.6769539702707" y="629.7580239357467"/>
      <point x="596.4313565214209" y="618.6102142907998" type="curve"/>
      <point x="502" y="525" type="line"/>
    </contour>
    <contour>
      <point x="596.4313565214209" y="16.389785709200154" type="line"/>
      <point x="607.6769539702707" y="5.241976064253324"/>
      <point x="625.9218056176002" y="5.629885428520867"/>
      <point x="636.683420885023" y="17.24559714573911" type="curve"/>
      <point x="661.6027982573936" y="44.142702880996254" type="line"/>
      <point x="671.8622867216509" y="55.21643646146445"/>
      <point x="671.4963092985213" y="72.42974556494413"/>
      <point x="660.7754208042621" y="83.0574089418619" type="curve"/>
      <point x="565" y="178" type="line"/>
      <point x="502" y="110" type="line"/>
    </contour>
    <contour>
      <point x="82.33027702812302" y="17.573244549800556" type="line"/>
      <point x="93.05815158100992" y="5.807188588569755"/>
      <point x="111.4253883603547" y="5.343428461569015"/>
      <point x="122.73338411293156" y="16.553093816297373" type="curve"/>
      <point x="197.77542080426213" y="90.9425910581381" type="line"/>
      <point x="208.49630929852128" y="101.57025443505587"/>
      <point x="208.8622867216509" y="118.78356353853556"/>
      <point x="198.6027982573936" y="129.85729711900376" type="curve"/>
      <point x="154" y="178" type="line"/>
      <point x="58.90626680395373" y="82.90626680395373" type="line"/>
      <point x="48.32651507277879" y="72.32651507277879"/>
      <point x="47.933768704563825" y="55.29844722725258"/>
      <point x="58.014493047603835" y="44.24216891553128" type="curve"/>
    </contour>
    <contour>
      <point x="360" y="57" type="curve" smooth="yes"/>
      <point x="509" y="57"/>
      <point x="630" y="175"/>
      <point x="630" y="319" type="curve" smooth="yes"/>
      <point x="630" y="465"/>
      <point x="509" y="583"/>
      <point x="360" y="583" type="curve" smooth="yes"/>
      <point x="212" y="583"/>
      <point x="91" y="465"/>
      <point x="91" y="319" type="curve" smooth="yes"/>
      <point x="91" y="175"/>
      <point x="212" y="57"/>
    </contour>
    <contour>
      <point x="360" y="147" type="curve" smooth="yes"/>
      <point x="261" y="147"/>
      <point x="180" y="225"/>
      <point x="180" y="319" type="curve" smooth="yes"/>
      <point x="180" y="415"/>
      <point x="261" y="493"/>
      <point x="360" y="493" type="curve" smooth="yes"/>
      <point x="459" y="493"/>
      <point x="542" y="415"/>
      <point x="542" y="319" type="curve" smooth="yes"/>
      <point x="542" y="225"/>
      <point x="459" y="147"/>
    </contour>
  </outline>
</glyph>
<glyph name="yen" format="2">
  <advance width="714"/>
  <unicode hex="00A5"/>
  <outline>
    <contour>
      <point x="253.69825035677383" y="33.49125178386914" type="line"/>
      <point x="250.233015557366" y="16.16507778683009"/>
      <point x="263.4852094147584" y="0.0"/>
      <point x="281.1545092761196" y="0.0" type="curve"/>
      <point x="338.0454907238804" y="0.0" type="line"/>
      <point x="351.3925592849138" y="0.0"/>
      <point x="362.88417414161194" y="9.420870708059688"/>
      <point x="365.50174964322616" y="22.50874821613085" type="curve"/>
      <point x="422" y="305" type="line"/>
      <point x="383" y="229" type="line"/>
      <point x="770.8711970369392" y="659.8663533122602" type="line"/>
      <point x="784.8005043507025" y="675.3397112008981"/>
      <point x="773.8194718134523" y="700.0"/>
      <point x="753.0" y="700.0" type="curve"/>
      <point x="699.4561165998223" y="700.0" type="line"/>
      <point x="691.5266540492058" y="700.0"/>
      <point x="683.9690147322442" y="696.6378986945901"/>
      <point x="678.6595557122077" y="690.7484147395918" type="curve"/>
      <point x="330" y="304" type="line"/>
      <point x="399" y="304" type="line"/>
      <point x="205.77957690684286" y="684.6730723626379" type="line"/>
      <point x="201.00694374889258" y="694.075872017107"/>
      <point x="191.35643145089188" y="700.0"/>
      <point x="180.81173284910847" y="700.0" type="curve"/>
      <point x="127.19055735565563" y="700.0" type="line"/>
      <point x="106.16443141093524" y="700.0"/>
      <point x="92.64021054850704" y="677.6895964486948"/>
      <point x="102.3661816630229" y="659.0481518125395" type="curve"/>
      <point x="321" y="240" type="line"/>
      <point x="308" y="305" type="line"/>
    </contour>
    <contour>
      <point x="68.85" y="138.8" type="line"/>
      <point x="65.82699101138516" y="123.91749420989625"/>
      <point x="77.2017084627501" y="110.0"/>
      <point x="92.38813536106025" y="110.0" type="curve"/>
      <point x="564.1157017323026" y="110.0" type="line"/>
      <point x="577.4311684634516" y="110.0"/>
      <point x="588.9047708812101" y="119.37733356903423"/>
      <point x="591.5553466806" y="132.42632211987706" type="curve"/>
      <point x="594.15" y="145.2" type="line"/>
      <point x="597.1730089886148" y="160.08250579010374"/>
      <point x="585.79829153725" y="174.0"/>
      <point x="570.6118646389398" y="174.0" type="curve"/>
      <point x="98.88429826769746" y="174.0" type="line"/>
      <point x="85.56883153654836" y="174.0"/>
      <point x="74.09522911878992" y="164.62266643096575"/>
      <point x="71.44465331939998" y="151.57367788012294" type="curve"/>
    </contour>
    <contour>
      <point x="96.85" y="276.8" type="line"/>
      <point x="93.82699101138516" y="261.91749420989623"/>
      <point x="105.2017084627501" y="248.0"/>
      <point x="120.38813536106025" y="248.0" type="curve"/>
      <point x="592.1157017323026" y="248.0" type="line"/>
      <point x="605.4311684634516" y="248.0"/>
      <point x="616.9047708812101" y="257.37733356903425"/>
      <point x="619.5553466806" y="270.42632211987706" type="curve"/>
      <point x="622.15" y="283.2" type="line"/>
      <point x="625.1730089886148" y="298.08250579010377"/>
      <point x="613.79829153725" y="312.0"/>
      <point x="598.6118646389398" y="312.0" type="curve"/>
      <point x="126.88429826769746" y="312.0" type="line"/>
      <point x="113.56883153654836" y="312.0"/>
      <point x="102.09522911878992" y="302.62266643096575"/>
      <point x="99.44465331939998" y="289.57367788012294" type="curve"/>
    </contour>
  </outline>
</glyph>
